<svg width="198" height="44" viewBox="0 0 198 44" fill="none" xmlns="http://www.w3.org/2000/svg">
<rect x="33" y="6" width="132" height="30" rx="5" fill="#4C60A5"/>
<path d="M45.672 23.76V24.608H50.776V23.76H45.672ZM45.672 25.6V26.432H50.872V25.6H45.672ZM45.544 27.568V28.448H51.08V27.568H45.544ZM47.864 22.496V27.776H48.84V22.496H47.864ZM44.984 18.496H46.376V19.888H44.984V18.496ZM44.232 17.776V20.608H47.16V17.776H44.232ZM48.776 18.496H50.2V19.872H48.776V18.496ZM48.008 17.76V20.592H50.968V17.76H48.008ZM45.864 21.92H45.768L44.936 22.928V29.28H45.864V22.8H51.112V21.92H45.864ZM45.672 20.688C45.176 21.984 44.36 23.232 43.496 24.112C43.672 24.304 43.976 24.736 44.072 24.912C45 23.936 45.928 22.432 46.504 20.96L45.672 20.688ZM47.544 21.088C47.832 21.52 48.12 22.096 48.232 22.496L49.032 22.08C48.936 21.712 48.616 21.136 48.312 20.736L47.544 21.088ZM43.576 15.568V16.496H46.392V15.568H43.576ZM45.912 14.576V17.472H46.888V14.576H45.912ZM48.36 14.576V17.472H49.352V14.576H48.36ZM48.824 15.568V16.48H51.48V15.568H48.824ZM52.808 18.816H56.648V20.4H52.808V18.816ZM52.808 21.392H56.648V22.992H52.808V21.392ZM52.808 16.24H56.648V17.824H52.808V16.24ZM51.768 15.168V24.08H57.72V15.168H51.768ZM55.224 23.632V27.744C55.224 28.816 55.432 29.136 56.344 29.136C56.536 29.136 57.016 29.136 57.208 29.136C58.008 29.136 58.28 28.608 58.344 26.368C58.072 26.288 57.624 26.112 57.432 25.936C57.4 27.904 57.352 28.112 57.08 28.112C56.968 28.112 56.584 28.112 56.488 28.112C56.248 28.112 56.232 28.064 56.232 27.728V23.632H55.224ZM53.192 23.664C53.048 25.792 52.584 27.472 50.632 28.416C50.888 28.608 51.224 29.04 51.368 29.312C53.512 28.176 54.072 26.208 54.28 23.664H53.192ZM63.144 21.68V29.328H64.296V22.64H71.272V29.328H72.472V21.68H63.144ZM59.928 19.568V20.56H74.056V19.568H59.928ZM61.096 17.424V18.384H73.128V17.424H61.096ZM63.928 23.728V24.576H71.784V23.728H63.928ZM63.928 25.712V26.544H71.784V25.712H63.928ZM63.816 27.728V28.688H71.784V27.728H63.816ZM72.2 14.688C69.656 15.216 64.776 15.44 60.872 15.472C60.984 15.728 61.096 16.144 61.128 16.416C65.08 16.4 69.992 16.16 72.968 15.568L72.2 14.688ZM65.64 15.792C64.792 19.328 62.92 22.832 59.528 24.784C59.768 25.008 60.12 25.456 60.28 25.712C63.864 23.584 65.816 19.92 66.888 16.048L65.64 15.792ZM77.496 21.456V22.368H81.976V21.456H77.496ZM77.304 19.184V20.144H81.576V23.616H77.32V24.56H82.712V19.184H77.304ZM80.008 25.328C80.824 26.432 81.848 27.936 82.328 28.864L83.336 28.32C82.824 27.408 81.816 25.984 80.952 24.896L80.008 25.328ZM83.928 19.184V29.264H85.048V20.288H88.984V19.184H83.928ZM88.44 19.184V25.984C88.44 26.208 88.392 26.272 88.12 26.272C87.864 26.288 87 26.288 86.04 26.272C86.216 26.576 86.376 27.056 86.424 27.392C87.688 27.392 88.488 27.376 88.968 27.184C89.464 26.992 89.608 26.656 89.608 26V19.184H88.44ZM76.728 28.88C77.048 28.672 77.592 28.528 81.864 27.488C81.848 27.232 81.848 26.768 81.896 26.432L77.208 27.488L76.648 27.92L76.728 28.88ZM76.728 28.88C76.728 28.448 77.896 27.696 77.896 27.696V19.184H76.776V26.72C76.776 27.392 76.408 27.744 76.152 27.904C76.344 28.128 76.632 28.608 76.728 28.88ZM77.864 15.744V16.784H82.952V15.744H77.864ZM84.248 15.744V16.784H90.28V15.744H84.248ZM78.12 14.48C77.592 15.888 76.68 17.264 75.672 18.144C75.912 18.384 76.312 18.928 76.472 19.168C77.576 18.112 78.648 16.48 79.288 14.816L78.12 14.48ZM84.408 14.496C84.024 16.032 83.304 17.504 82.392 18.464C82.664 18.672 83.144 19.088 83.336 19.312C84.296 18.224 85.128 16.528 85.624 14.8L84.408 14.496ZM78.888 17.52C79.368 17.984 79.912 18.672 80.168 19.12L81.048 18.384C80.776 17.952 80.216 17.312 79.736 16.864L78.888 17.52ZM85.784 17.456C86.28 17.936 86.872 18.608 87.128 19.056L87.992 18.336C87.72 17.904 87.112 17.248 86.6 16.816L85.784 17.456ZM94.344 19.344V20.48H103.608V19.344H94.344ZM94.344 23.136V24.272H103.608V23.136H94.344ZM94.344 26.944V28.112H103.608V26.944H94.344ZM93.512 15.552V29.2H94.712V16.736H103.128V29.2H104.376V15.552H93.512ZM110.616 19.264V20.384H119.32V19.264H110.616ZM107.896 22.24V23.376H122.088V22.24H107.896ZM112.232 22.96C112.056 26.096 111.496 27.568 107.688 28.304C107.928 28.544 108.232 29.008 108.328 29.296C112.504 28.416 113.256 26.576 113.448 22.96H112.232ZM116.232 22.912V27.376C116.232 28.672 116.616 29.04 118.088 29.04C118.408 29.04 120.232 29.04 120.552 29.04C121.832 29.04 122.168 28.48 122.312 26.272C121.976 26.192 121.48 26 121.208 25.792C121.16 27.648 121.048 27.92 120.456 27.92C120.04 27.92 118.536 27.92 118.216 27.92C117.544 27.92 117.432 27.84 117.432 27.376V22.912H116.232ZM108.296 16.4V19.952H109.496V17.568H120.408V19.952H121.64V16.4H108.296ZM113.72 14.768C114.152 15.504 114.6 16.48 114.776 17.072L116.056 16.672C115.848 16.064 115.368 15.12 114.936 14.416L113.72 14.768ZM124.824 23.312V24.32H137.224V23.312H124.824ZM123.896 15.568V16.48H131.208V15.568H123.896ZM131.032 25.568V26.512H136.184V25.568H131.032ZM123.752 27.824V28.864H138.28V27.824H123.752ZM130.376 23.68V28.272H131.56V23.68H130.376ZM127.08 14.56V22.864H128.152V14.56H127.08ZM126.376 25.152V28.352H127.528V25.152H126.376ZM125.352 18.112H129.752V19.296H125.352V18.112ZM124.376 17.296V20.08H130.792V17.296H124.376ZM133.208 14.576C132.76 16.192 131.96 17.68 130.904 18.656C131.144 18.848 131.56 19.248 131.72 19.472C132.84 18.368 133.784 16.64 134.296 14.816L133.208 14.576ZM132.968 16.352L132.472 17.36H138.216V16.352H132.968ZM136.184 16.784C135.544 19.616 133.736 21.28 130.936 22.16C131.16 22.368 131.512 22.832 131.64 23.056C134.552 21.952 136.52 20.128 137.304 16.912L136.184 16.784ZM133.096 16.944L132.312 17.472C133.032 19.536 134.728 21.984 137.704 23.088C137.832 22.816 138.152 22.368 138.392 22.144C135.432 21.2 133.768 18.928 133.096 16.944ZM126.968 19.776C126.248 20.736 124.856 21.744 123.624 22.208C123.848 22.384 124.168 22.752 124.328 22.992C125.576 22.416 127 21.232 127.752 20.112L126.968 19.776ZM128.088 20.768C128.872 21.168 129.784 21.76 130.264 22.208L130.792 21.504C130.328 21.056 129.368 20.496 128.616 20.144L128.088 20.768ZM147.384 19.424V20.544H153.096V19.424H147.384ZM141.192 22.4V23.472H143.928V29.264H145.048V22.4H141.192ZM140.664 14.624V21.168C140.664 23.648 140.552 26.576 139.64 28.688C139.912 28.848 140.328 29.184 140.52 29.392C141.608 27.12 141.752 23.984 141.752 21.168V14.624H140.664ZM152.744 19.424V19.664C152.072 24 149.88 27.04 147.192 28.336C147.448 28.56 147.784 29.024 147.96 29.312C150.872 27.728 153.112 24.608 153.896 19.616L153.16 19.392L152.952 19.424H152.744ZM149.048 20.128L148.072 20.368C148.936 24.512 150.616 27.728 153.672 29.264C153.88 28.944 154.248 28.496 154.504 28.256C151.544 26.976 149.832 23.92 149.048 20.128ZM146.728 15.856V21.312C146.728 23.648 146.584 26.592 145.464 28.688C145.768 28.832 146.2 29.152 146.408 29.344C147.672 27.088 147.864 23.936 147.864 21.312V15.856H146.728ZM143.992 14.992V19.44H141.256V20.528H145.096V14.992H143.992ZM146.728 15.52V16.624H153.816V15.52H146.728Z" fill="white"/>
<path d="M1 25.0698L5.43 21.6798L1 18.2998" stroke="#4C60A5" stroke-miterlimit="10"/>
<path d="M8.96997 25.0698L13.41 21.6798L8.96997 18.2998" stroke="#4C60A5" stroke-miterlimit="10"/>
<path d="M16.95 25.0698L21.38 21.6798L16.95 18.2998" stroke="#4C60A5" stroke-miterlimit="10"/>
<path d="M197.14 18.2998L192.71 21.6798L197.14 25.0698" stroke="#4C60A5" stroke-miterlimit="10"/>
<path d="M189.17 18.2998L184.73 21.6798L189.17 25.0698" stroke="#4C60A5" stroke-miterlimit="10"/>
<path d="M181.19 18.2998L176.76 21.6798L181.19 25.0698" stroke="#4C60A5" stroke-miterlimit="10"/>
</svg>
