<svg width="49" height="66" viewBox="0 0 49 66" fill="none" xmlns="http://www.w3.org/2000/svg">
<path d="M6.14769 26.7763C6.14769 26.4684 6.14769 26.1885 6.14769 25.9366C6.17538 23.0818 6.09231 20.227 6.23077 17.3723C6.64615 9.08778 12.6277 2.09076 20.6585 0.411474C30.9877 -1.7716 40.7908 4.94554 42.6185 15.4971C42.8123 16.6446 42.84 17.8201 42.8677 18.9676C42.8954 21.3186 42.8677 23.6696 42.8677 26.0206C42.8677 26.2725 42.8677 26.4964 42.8677 26.7763C43.2554 26.8322 43.56 26.8322 43.8646 26.8882C46.9938 27.448 48.96 29.827 48.9877 33.1575C49.0154 36.2642 48.9877 39.3709 48.9877 42.4776C48.9877 48.1592 48.9877 53.8407 48.9877 59.5223C48.9877 62.601 47.2431 64.98 44.4738 65.7637C43.8923 65.9316 43.2831 65.9876 42.6738 65.9876C30.5446 65.9876 18.4154 66.0155 6.28615 65.9876C2.71385 65.9876 0 63.3287 0 59.6902C0 50.846 0 41.9458 0 33.0736C0 29.9669 2.07692 27.0281 6.14769 26.7763ZM38.7138 26.7763C38.7415 26.6083 38.7692 26.4964 38.7692 26.3564C38.7692 23.5296 38.8246 20.7028 38.7415 17.876C38.4369 8.97583 30.0738 2.51058 21.4615 4.44176C14.76 5.9811 10.3292 11.5507 10.2462 18.5757C10.2185 21.1227 10.2462 23.6416 10.2462 26.1885C10.2462 26.3844 10.2738 26.5803 10.3015 26.7763C19.8 26.7763 29.2431 26.7763 38.7138 26.7763ZM30.6554 43.1213C30.5723 42.7015 30.5446 42.1137 30.3785 41.554C29.6308 38.7831 27.1662 37.0199 24.2862 37.1318C21.4338 37.2438 19.08 39.231 18.5538 42.0298C17.9723 44.9405 19.3292 47.6833 21.9323 48.8588C22.3754 49.0548 22.5138 49.2787 22.5138 49.7545C22.4862 51.0139 22.4862 52.2734 22.5138 53.5329C22.5138 54.8763 23.2892 55.6879 24.5077 55.7159C25.7538 55.7439 26.5569 54.9043 26.5846 53.5329C26.5846 52.2454 26.6123 50.9859 26.5846 49.6985C26.5846 49.2787 26.6954 49.0828 27.1108 48.8868C29.4092 47.7953 30.5169 45.8921 30.6554 43.1213Z" fill="white" fill-opacity="0.3"/>
</svg>
