<svg width="198" height="42" viewBox="0 0 198 42" fill="none" xmlns="http://www.w3.org/2000/svg">
<rect x="0.902832" width="196.194" height="42" rx="21" fill="#735795"/>
<rect x="4.33496" y="2.75" width="188.924" height="36.5" rx="18.25" stroke="white" stroke-width="1.5"/>
<path d="M63.865 14.296C63.809 16.452 63.893 23.298 58.055 26.252C58.377 26.476 58.727 26.798 58.909 27.078C64.859 23.886 64.971 16.774 65.027 14.296H63.865ZM64.901 16.018L63.893 16.13C64.089 17.348 64.663 24.432 70.207 27.022C70.361 26.728 70.669 26.364 70.977 26.126C65.601 23.732 65.027 17.026 64.901 16.018ZM78.943 14.24C78.467 16.368 77.641 18.384 76.465 19.644C76.689 19.784 77.109 20.092 77.277 20.246C78.453 18.86 79.377 16.732 79.895 14.436L78.943 14.24ZM83.773 16.592V16.844C83.479 22.99 83.157 25.216 82.695 25.748C82.527 25.93 82.387 25.986 82.163 25.986C81.897 25.986 81.323 25.972 80.693 25.916C80.861 26.196 80.959 26.644 80.987 26.952C81.603 26.994 82.219 27.008 82.583 26.952C83.017 26.91 83.283 26.784 83.563 26.406C84.137 25.72 84.431 23.522 84.753 17.138C84.767 16.984 84.767 16.592 84.767 16.592H83.773ZM78.845 16.592L78.397 17.586H84.193V16.592H78.845ZM80.259 16.9C79.685 19.35 78.341 22.066 76.703 23.354C76.983 23.508 77.319 23.76 77.529 23.97C79.125 22.584 80.455 19.784 81.057 17.306L80.259 16.9ZM82.261 16.984C81.589 20.708 80.035 24.502 77.585 26.252C77.893 26.406 78.271 26.672 78.481 26.896C80.833 25.006 82.401 21.142 83.101 17.376L82.261 16.984ZM71.957 22.01L72.237 23.032C73.651 22.584 75.541 21.996 77.319 21.436L77.179 20.512C75.275 21.086 73.273 21.674 71.957 22.01ZM74.575 14.254V27.12H75.555V14.254H74.575ZM72.839 15.052C72.671 16.774 72.391 18.552 71.859 19.742C72.083 19.84 72.489 20.078 72.657 20.204C73.189 18.958 73.539 17.068 73.749 15.206L72.839 15.052ZM72.923 17.11L72.755 18.132H76.997V17.11H72.923ZM95.743 19.91V25.944C95.743 26.14 95.673 26.21 95.435 26.224C95.211 26.238 94.399 26.238 93.573 26.196C93.713 26.462 93.881 26.854 93.923 27.134C95.057 27.134 95.785 27.134 96.219 26.98C96.667 26.826 96.807 26.546 96.807 25.958V19.91H95.743ZM86.587 15.458V16.312H90.703V15.458H86.587ZM86.237 18.79L86.391 19.7C87.917 19.42 90.003 19.042 91.991 18.664L91.949 17.866C89.835 18.23 87.651 18.58 86.237 18.79ZM89.989 14.24V18.566H91.039V14.24H89.989ZM93.181 14.24V17.936C93.181 19.028 93.517 19.322 94.861 19.322C95.127 19.322 96.933 19.322 97.241 19.322C98.277 19.322 98.585 18.944 98.697 17.586C98.417 17.516 97.997 17.376 97.759 17.208C97.717 18.244 97.619 18.398 97.143 18.398C96.751 18.398 95.253 18.398 94.973 18.398C94.343 18.398 94.231 18.342 94.231 17.95V14.24H93.181ZM93.643 15.458V16.312H97.759V15.458H93.643ZM88.715 19.91V20.792H96.177V19.91H88.715ZM88.225 19.91V22.374C88.225 23.676 88.043 25.3 86.657 26.504C86.867 26.63 87.287 27.022 87.441 27.232C88.967 25.902 89.247 23.9 89.247 22.388V19.91H88.225ZM89.401 24.418L89.751 25.356C91.515 25.048 93.923 24.586 96.149 24.138L96.079 23.284C93.671 23.718 91.081 24.166 89.401 24.418ZM89.527 22.024C91.095 22.318 93.055 22.906 94.077 23.382L94.469 22.556C93.433 22.08 91.459 21.534 89.919 21.296L89.527 22.024ZM102.855 17.04H110.037V17.936H102.855V17.04ZM102.855 15.472H110.037V16.354H102.855V15.472ZM101.833 14.744V18.664H111.073V14.744H101.833ZM100.251 19.56V20.414H112.627V19.56H100.251ZM103.163 21.94H109.771V23.27H103.163V21.94ZM102.155 21.17V24.054H110.821V21.17H102.155ZM105.935 23.606V26.084C105.935 26.238 105.879 26.294 105.697 26.308C105.487 26.308 104.815 26.308 104.087 26.28C104.213 26.532 104.353 26.868 104.409 27.12C105.389 27.12 106.047 27.12 106.453 26.994C106.873 26.868 106.985 26.63 106.985 26.112V23.606H105.935ZM108.189 25.076C109.463 25.566 111.087 26.364 111.899 26.938L112.599 26.238C111.745 25.678 110.121 24.908 108.861 24.474L108.189 25.076ZM103.527 24.418C102.687 25.076 101.301 25.72 100.083 26.14C100.307 26.308 100.685 26.686 100.853 26.896C102.057 26.406 103.541 25.594 104.479 24.796L103.527 24.418ZM105.529 18.916C105.823 19.308 106.103 19.84 106.215 20.19L107.181 19.84C107.055 19.476 106.747 18.972 106.453 18.608L105.529 18.916ZM115.063 21.898V22.78H125.913V21.898H115.063ZM114.251 15.122V15.92H120.649V15.122H114.251ZM120.495 23.872V24.698H125.003V23.872H120.495ZM114.125 25.846V26.756H126.837V25.846H114.125ZM119.921 22.22V26.238H120.957V22.22H119.921ZM117.037 14.24V21.506H117.975V14.24H117.037ZM116.421 23.508V26.308H117.429V23.508H116.421ZM115.525 17.348H119.375V18.384H115.525V17.348ZM114.671 16.634V19.07H120.285V16.634H114.671ZM122.399 14.254C122.007 15.668 121.307 16.97 120.383 17.824C120.593 17.992 120.957 18.342 121.097 18.538C122.077 17.572 122.903 16.06 123.351 14.464L122.399 14.254ZM122.189 15.808L121.755 16.69H126.781V15.808H122.189ZM125.003 16.186C124.443 18.664 122.861 20.12 120.411 20.89C120.607 21.072 120.915 21.478 121.027 21.674C123.575 20.708 125.297 19.112 125.983 16.298L125.003 16.186ZM122.301 16.326L121.615 16.788C122.245 18.594 123.729 20.736 126.333 21.702C126.445 21.464 126.725 21.072 126.935 20.876C124.345 20.05 122.889 18.062 122.301 16.326ZM116.939 18.804C116.309 19.644 115.091 20.526 114.013 20.932C114.209 21.086 114.489 21.408 114.629 21.618C115.721 21.114 116.967 20.078 117.625 19.098L116.939 18.804ZM117.919 19.672C118.605 20.022 119.403 20.54 119.823 20.932L120.285 20.316C119.879 19.924 119.039 19.434 118.381 19.126L117.919 19.672ZM130.939 18.818V19.798H138.009V18.818H130.939ZM130.687 25.328V26.322H138.191V25.328H130.687ZM130.211 21.478V27.092H131.261V22.43H137.799V27.05H138.905V21.478H130.211ZM134.691 14.212C133.263 16.382 130.687 18.244 128.013 19.294C128.307 19.546 128.601 19.938 128.783 20.218C131.485 19.028 134.061 17.012 135.615 14.674L134.691 14.212ZM134.901 15.024L134.005 15.486C135.867 17.614 137.897 18.944 140.291 20.092C140.445 19.77 140.753 19.378 141.019 19.14C138.667 18.146 136.609 16.914 134.901 15.024Z" fill="white"/>
<path fill-rule="evenodd" clip-rule="evenodd" d="M17.519 21C19.7282 21 21.519 19.2091 21.519 17C21.519 19.2091 23.3099 21 25.519 21C23.3099 21 21.519 22.7909 21.519 25C21.519 22.7909 19.7282 21 17.519 21Z" fill="#F9C270"/>
<path fill-rule="evenodd" clip-rule="evenodd" d="M173.076 21C175.285 21 177.076 19.2091 177.076 17C177.076 19.2091 178.867 21 181.076 21C178.867 21 177.076 22.7909 177.076 25C177.076 22.7909 175.285 21 173.076 21Z" fill="#F9C270"/>
</svg>
