<svg width="197" height="42" viewBox="0 0 197 42" fill="none" xmlns="http://www.w3.org/2000/svg">
<rect width="196.194" height="42" rx="21" fill="#4C60A5"/>
<rect x="3.43188" y="2.75" width="188.924" height="36.5" rx="18.25" stroke="white" stroke-width="1.5"/>
<path d="M38.4764 17.698V18.496H46.6804V17.698H38.4764ZM44.3144 16.55C44.8464 16.816 45.4904 17.222 45.8264 17.558L46.3304 16.998C45.9944 16.676 45.3504 16.284 44.8044 16.046L44.3144 16.55ZM45.2384 19.14C44.6364 21.562 43.3484 23.382 41.4444 24.488C41.6264 24.642 41.9344 24.992 42.0604 25.16C43.9924 23.914 45.3924 21.954 46.0924 19.308L45.2384 19.14ZM38.3364 23.424L38.4764 24.222C39.6384 24.012 41.1364 23.704 42.5924 23.424L42.5644 22.682C40.9824 22.976 39.4144 23.242 38.3364 23.424ZM39.7224 20.036H41.3184V21.45H39.7224V20.036ZM38.9664 19.378V22.094H42.0884V19.378H38.9664ZM42.6204 16.2C42.8724 20.526 43.4464 24.502 45.3784 24.922C46.1204 25.188 46.6104 24.628 46.7924 23.088C46.5964 23.004 46.2744 22.78 46.1064 22.612C46.0084 23.522 45.8684 24.11 45.6724 24.068C44.3144 23.858 43.6984 20.162 43.5164 16.2H42.6204ZM36.7124 14.898V27.176H37.7064V15.85H47.3664V27.176H48.4164V14.898H36.7124ZM37.3284 25.566V26.518H47.9544V25.566H37.3284ZM51.0904 17.376V27.134H52.1544V18.412H61.5624V17.376H51.0904ZM61.0444 17.376V25.748C61.0444 25.972 60.9744 26.042 60.7224 26.056C60.4564 26.07 59.5604 26.07 58.6504 26.042C58.8044 26.336 58.9724 26.812 59.0144 27.12C60.1904 27.12 61.0164 27.106 61.4924 26.938C61.9684 26.756 62.1084 26.42 62.1084 25.762V17.376H61.0444ZM53.5404 14.87V15.808H56.5364V14.87H53.5404ZM55.8224 14.87V15.388H56.0464C56.2564 19.462 57.3344 22.416 60.1484 23.816C60.3164 23.536 60.6664 23.13 60.8904 22.906C58.1464 21.73 57.1524 18.902 56.9844 14.87H55.8224ZM55.9344 17.656C55.5704 20.288 54.3944 22.038 52.2804 23.074C52.5044 23.242 52.8404 23.648 52.9944 23.886C55.2484 22.724 56.4524 20.708 56.9284 17.824L55.9344 17.656ZM66.6724 16.396V17.39H70.1164V16.396H66.6724ZM72.1044 14.254V27.106H73.2104V14.254H72.1044ZM65.3984 19.434C66.4484 20.316 67.7224 21.59 68.3104 22.402L69.0664 21.66C68.4504 20.862 67.1344 19.644 66.0984 18.79L65.3984 19.434ZM66.7984 14.24C66.2944 16.69 65.3984 19.014 64.1104 20.47C64.3484 20.624 64.8104 20.946 64.9924 21.128C66.2804 19.532 67.2604 17.082 67.8344 14.436L66.7984 14.24ZM69.7664 16.396V16.648C69.1364 21.688 67.0924 24.698 64.1384 26.21C64.4184 26.392 64.8384 26.812 65.0204 27.078C68.0024 25.426 70.1724 22.108 70.9144 16.564L70.1724 16.354L69.9764 16.396H69.7664ZM72.7904 19.112C73.9944 20.092 75.5064 21.492 76.2204 22.388L77.0744 21.66C76.3324 20.778 74.7784 19.434 73.5884 18.496L72.7904 19.112ZM84.8724 17.012V17.754H88.7784V17.012H84.8724ZM84.2844 24.32V25.006H89.2684V24.32H84.2844ZM84.2844 25.972V26.714H89.2684V25.972H84.2844ZM84.2564 19.266H89.4924V21.282H84.2564V19.266ZM83.3884 18.538V22.01H90.3744V18.538H83.3884ZM83.8364 22.668V27.148H84.7604V23.396H88.9604V27.092H89.9264V22.668H83.8364ZM86.4264 18.944V21.534H87.2244V18.944H86.4264ZM84.6904 19.7C84.9564 20.12 85.2084 20.68 85.3064 21.058L85.8524 20.806C85.7684 20.456 85.5024 19.91 85.2224 19.518L84.6904 19.7ZM88.4004 19.504C88.2604 19.882 87.9664 20.498 87.7564 20.876L88.2464 21.086C88.4564 20.75 88.7364 20.246 89.0024 19.756L88.4004 19.504ZM81.4004 19.84C81.7224 20.82 82.0444 22.108 82.1424 22.864L82.9544 22.626C82.8424 21.884 82.5064 20.624 82.1704 19.658L81.4004 19.84ZM80.1964 23.34C80.3644 24.404 80.5184 25.79 80.5464 26.714L81.3304 26.574C81.2884 25.664 81.1204 24.292 80.9384 23.214L80.1964 23.34ZM78.7264 23.256C78.5864 24.474 78.3764 25.79 78.0264 26.714C78.2644 26.77 78.6704 26.91 78.8524 27.008C79.1604 26.098 79.4264 24.684 79.5944 23.396L78.7264 23.256ZM78.3904 19.49C78.3904 19.28 79.0204 18.972 79.0204 18.972V18.944C79.9864 17.824 80.9804 16.214 81.7364 14.632L80.8124 14.226C80.1964 15.766 79.1744 17.376 78.8524 17.782C78.5584 18.216 78.3204 18.51 78.0684 18.552C78.1804 18.818 78.3344 19.28 78.3904 19.49ZM78.3904 19.49C78.6144 19.378 78.9924 19.308 81.2044 19.056C81.2044 18.846 81.2324 18.482 81.2744 18.23L78.8524 18.426L78.3624 18.734L78.3904 19.49ZM78.4744 22.64C78.4744 22.444 79.1184 22.15 79.1184 22.15V22.122C80.4204 20.82 81.7784 18.972 82.8424 17.138L81.9884 16.62C81.0644 18.44 79.6224 20.33 79.1884 20.82C78.7684 21.296 78.4464 21.646 78.1664 21.702C78.2644 21.968 78.4324 22.444 78.4744 22.64ZM78.4744 22.64C78.7264 22.514 79.1604 22.416 82.1144 21.968C82.1004 21.758 82.1144 21.394 82.1564 21.142L78.9364 21.562L78.4464 21.884L78.4744 22.64ZM81.5264 23.088C81.8344 23.984 82.1844 25.16 82.3244 25.93L83.0524 25.678C82.9124 24.936 82.5484 23.774 82.2124 22.878L81.5264 23.088ZM86.5664 14.086C85.6844 15.346 84.0324 16.508 82.4784 17.18C82.7164 17.376 82.9684 17.698 83.1224 17.922C84.7604 17.152 86.4264 15.878 87.4204 14.45L86.5664 14.086ZM87.0284 14.688L86.2304 15.052C87.5184 16.326 88.9604 17.138 90.5704 17.838C90.7104 17.558 90.9904 17.236 91.2284 17.026C89.6604 16.48 88.2044 15.794 87.0284 14.688ZM98.0184 22.234V25.048H98.9984V22.234H98.0184ZM92.2784 25.972V26.728H104.864V25.972H92.2784ZM92.3064 16.48V17.138H104.822V16.48H92.3064ZM92.2784 20.68V21.422H104.864V20.68H92.2784ZM93.3564 19.294V19.952H103.856V19.294H93.3564ZM93.7904 15.108V15.766H102.246V17.908H93.7064V18.566H103.296V15.108H93.7904ZM97.9764 14.24V20.974H99.0404V14.24H97.9764ZM94.9104 23.956H102.26V24.698H94.9104V23.956ZM94.9104 22.654H102.26V23.368H94.9104V22.654ZM93.8744 22.024V25.314H103.324V22.024H93.8744ZM108.196 14.996V15.99H116.75V14.996H108.196ZM107.706 14.996V19.532C107.706 21.688 107.566 24.558 106.054 26.56C106.292 26.686 106.726 26.966 106.894 27.148C108.49 25.034 108.714 21.828 108.714 19.532V14.996H107.706ZM116.316 14.996C116.386 21.59 116.26 27.134 118.066 27.134C118.78 27.12 118.99 26.406 119.088 24.6C118.892 24.432 118.626 24.124 118.444 23.844C118.416 25.062 118.332 26.014 118.178 26.014C117.352 26.014 117.324 20.26 117.338 14.996H116.316ZM111.948 17.628V25.384H112.886V17.628H111.948ZM110.38 19.994H114.51V22.15H110.38V19.994ZM109.526 19.154V22.99H115.392V19.154H109.526ZM108.672 25.146L108.742 26.098C110.478 25.986 113.026 25.804 115.462 25.622V24.726C112.928 24.894 110.324 25.062 108.672 25.146ZM113.964 23.592C114.664 24.558 115.35 25.874 115.574 26.728L116.442 26.42C116.218 25.538 115.504 24.264 114.762 23.326L113.964 23.592ZM109.33 16.914V17.796H115.63V16.914H109.33ZM127.306 15.752V16.676H131.254V15.752H127.306ZM126.032 21.996V27.134H127.012V22.906H130.918V27.092H131.926V21.996H126.032ZM126.452 25.594V26.518H131.45V25.594H126.452ZM127.712 14.226C127.054 15.92 125.92 17.516 124.632 18.524C124.87 18.678 125.29 19.042 125.458 19.224C126.732 18.118 127.964 16.368 128.72 14.506L127.712 14.226ZM130.96 15.752V15.934C129.938 18.902 127.138 21.058 124.324 21.94C124.534 22.136 124.8 22.528 124.926 22.794C127.908 21.716 130.792 19.49 131.996 16.018L131.338 15.71L131.156 15.752H130.96ZM127.222 16.48L126.452 16.97C127.404 19.056 129.462 21.38 132.584 22.472C132.724 22.22 133.018 21.8 133.228 21.604C130.148 20.666 128.09 18.468 127.222 16.48ZM120.278 17.25V18.244H125.206V17.25H120.278ZM122.392 14.24V27.106H123.386V14.24H122.392ZM122.35 17.866C121.93 19.882 120.936 22.304 119.942 23.564C120.138 23.802 120.39 24.208 120.502 24.488C121.552 23.074 122.546 20.344 123.008 18.09L122.35 17.866ZM123.316 18.804L122.798 19.266C123.19 19.77 124.198 21.212 124.534 21.828L125.164 21.016C124.884 20.638 123.652 19.14 123.316 18.804ZM135.496 17.796V18.622H139.542V17.796H135.496ZM135.496 20.176V20.974H139.542V20.176H135.496ZM135.496 22.612V23.438H139.542V22.612H135.496ZM141.46 20.876V21.786H146.794V20.876H141.46ZM136.224 15.5V16.326H138.548V15.5H136.224ZM140.564 14.954V15.85H146.038V14.954H140.564ZM140.396 23.494V24.432H147.032V23.494H140.396ZM143.35 19.434V27.064H144.358V19.434H143.35ZM137.232 18.202V22.962H137.988V18.202H137.232ZM145.702 14.954V15.094C145.604 17.292 145.492 18.104 145.31 18.314C145.226 18.426 145.1 18.454 144.904 18.44C144.708 18.44 144.204 18.44 143.644 18.384C143.77 18.622 143.868 18.986 143.882 19.266C144.47 19.294 145.058 19.294 145.338 19.266C145.702 19.238 145.912 19.154 146.108 18.916C146.402 18.594 146.542 17.684 146.64 15.346C146.654 15.22 146.654 14.954 146.654 14.954H145.702ZM141.516 19.56C141.278 20.75 140.844 21.926 140.242 22.71C140.466 22.822 140.886 23.032 141.068 23.158C141.656 22.318 142.146 21.044 142.426 19.742L141.516 19.56ZM136.196 14.24C135.776 15.962 134.992 17.628 133.998 18.706C134.222 18.846 134.628 19.168 134.796 19.336C135.79 18.146 136.644 16.34 137.162 14.45L136.196 14.24ZM135.09 17.796V21.52C135.09 23.102 134.992 25.188 134.04 26.672C134.25 26.77 134.642 27.008 134.796 27.148C135.79 25.594 135.958 23.228 135.958 21.52V17.796H135.09ZM139.262 17.796V25.972C139.262 26.154 139.178 26.21 138.996 26.224C138.8 26.238 138.17 26.238 137.456 26.21C137.582 26.462 137.736 26.868 137.778 27.106C138.744 27.106 139.318 27.092 139.668 26.938C140.032 26.784 140.144 26.49 140.144 25.972V17.796H139.262ZM142.552 15.248C142.356 16.83 141.852 18.216 140.13 18.944C140.34 19.098 140.592 19.434 140.718 19.658C142.678 18.776 143.28 17.18 143.518 15.248H142.552ZM138.296 15.5V15.668C138.086 16.368 137.694 17.376 137.344 18.006C137.54 18.09 137.848 18.272 138.016 18.412C138.436 17.754 138.968 16.718 139.262 15.85L138.646 15.444L138.506 15.5H138.296ZM154.802 19.042V20.036H160.948V19.042H154.802ZM159.24 14.408C158.092 14.926 156.076 15.444 154.298 15.794C154.438 16.004 154.592 16.396 154.648 16.648C156.51 16.326 158.666 15.836 160.136 15.22L159.24 14.408ZM157.868 19.364V27.12H158.904V19.364H157.868ZM148.39 17.25V18.258H153.57V17.25H148.39ZM150.49 14.24V27.106H151.498V14.24H150.49ZM150.462 17.866C150.042 19.882 149.02 22.304 147.998 23.564C148.18 23.802 148.446 24.222 148.558 24.502C149.636 23.102 150.658 20.358 151.134 18.104L150.462 17.866ZM151.386 18.832L150.84 19.322C151.288 19.924 152.408 21.66 152.772 22.402L153.444 21.562C153.136 21.114 151.75 19.252 151.386 18.832ZM154.298 15.794V20.106C154.298 22.066 154.172 24.698 152.898 26.56C153.15 26.658 153.584 26.938 153.766 27.092C155.096 25.146 155.306 22.206 155.306 20.106V15.794H154.298Z" fill="white"/>
<path fill-rule="evenodd" clip-rule="evenodd" d="M14.751 21C16.9601 21 18.751 19.2091 18.751 17C18.751 19.2091 20.5418 21 22.751 21C20.5418 21 18.751 22.7909 18.751 25C18.751 22.7909 16.9601 21 14.751 21Z" fill="#F9C270"/>
<path fill-rule="evenodd" clip-rule="evenodd" d="M170.308 21C172.517 21 174.308 19.2091 174.308 17C174.308 19.2091 176.099 21 178.308 21C176.099 21 174.308 22.7909 174.308 25C174.308 22.7909 172.517 21 170.308 21Z" fill="#F9C270"/>
</svg>
