<svg width="197" height="42" viewBox="0 0 197 42" fill="none" xmlns="http://www.w3.org/2000/svg">
<rect width="196.194" height="42" rx="21" fill="#735795"/>
<rect x="3.43213" y="2.75" width="188.924" height="36.5" rx="18.25" stroke="white" stroke-width="1.5"/>
<path d="M63.0466 22.318V26.308H64.1526V22.318H63.0466ZM57.6146 15.864V19.028H58.6646V16.83H68.3806V18.678H69.4586V15.864H57.6146ZM58.8606 21.814V22.794H68.2686V21.814H58.8606ZM57.6006 25.818V26.826H69.5846V25.818H57.6006ZM62.4166 14.464C62.7946 15.108 63.1866 15.976 63.3686 16.522L64.5026 16.144C64.3206 15.626 63.8726 14.786 63.5086 14.17L62.4166 14.464ZM61.7306 16.578C61.5906 18.79 61.0446 19.756 57.7966 20.218C57.9926 20.428 58.2306 20.806 58.3006 21.072C61.8986 20.484 62.6126 19.224 62.8086 16.578H61.7306ZM64.5726 16.592V19.07C64.5726 20.176 64.8946 20.568 66.0846 20.568C66.3646 20.568 68.1566 20.568 68.5486 20.568C69.0106 20.568 69.5146 20.554 69.7386 20.484C69.7106 20.232 69.6686 19.826 69.6406 19.546C69.3886 19.602 68.8286 19.63 68.5066 19.63C68.1286 19.63 66.4346 19.63 66.0986 19.63C65.6926 19.63 65.6226 19.49 65.6226 19.084V16.592H64.5726ZM75.4226 22.822V23.634H79.6646V22.822H75.4226ZM75.3806 20.708V21.534H79.1606V25.006H75.3806V25.818H80.1546V20.708H75.3806ZM74.9186 20.708V26.532H75.8846V20.708H74.9186ZM72.3426 16.83V17.6H76.2346V16.83H72.3426ZM78.7966 16.83V17.6H82.7586V16.83H78.7966ZM82.3246 14.842V25.734C82.3246 25.972 82.2406 26.056 81.9886 26.056C81.7366 26.07 80.8826 26.084 80.0286 26.042C80.1826 26.336 80.3506 26.826 80.3926 27.12C81.5686 27.12 82.3246 27.106 82.7726 26.938C83.2206 26.756 83.3746 26.406 83.3746 25.734V14.842H82.3246ZM72.4266 14.842V15.654H75.9126V18.846H72.4266V19.658H76.9066V14.842H72.4266ZM82.8426 14.842H78.1666V19.672H82.8426V18.874H79.1746V15.654H82.8426V14.842ZM71.8246 14.842V27.134H72.8606V14.842H71.8246ZM89.0306 16.844V17.67H97.7526V16.844H89.0306ZM90.2346 20.372V21.184H94.8266V20.372H90.2346ZM94.5886 21.646V22.444H96.6746V21.646H94.5886ZM92.9226 15.36V20.036H93.9166V15.36H92.9226ZM92.6286 17.222C91.8026 18.286 90.1646 19.336 88.7086 19.812C88.9326 19.994 89.1986 20.344 89.3526 20.568C90.8226 19.994 92.4746 18.79 93.3986 17.53L92.6286 17.222ZM96.3806 21.646V21.786C96.2406 23.312 96.1006 23.928 95.8766 24.124C95.7786 24.222 95.6526 24.236 95.4146 24.236C95.1906 24.236 94.5326 24.222 93.8606 24.152C94.0006 24.39 94.0846 24.726 94.1126 24.978C94.7986 25.02 95.4706 25.02 95.8206 24.992C96.1986 24.978 96.4506 24.908 96.6746 24.684C96.9966 24.404 97.1646 23.69 97.3186 22.038C97.3466 21.898 97.3606 21.646 97.3606 21.646H96.3806ZM96.4786 14.478C94.8546 14.842 91.8726 15.08 89.3946 15.192C89.5066 15.388 89.6046 15.71 89.6326 15.934C92.1666 15.85 95.2186 15.612 97.1646 15.192L96.4786 14.478ZM91.7746 20.596C91.6066 22.36 91.1166 23.676 89.1426 24.348C89.3386 24.53 89.6186 24.894 89.7306 25.118C91.9426 24.278 92.5306 22.724 92.7546 20.596H91.7746ZM94.5606 20.372C94.4206 21.044 94.2246 21.856 94.0286 22.444H94.9526C95.1206 21.898 95.3166 21.086 95.4706 20.372H94.5606ZM85.7266 14.702C86.3006 15.402 87.0286 16.382 87.3646 16.97L88.2046 16.424C87.8546 15.85 87.1266 14.94 86.5246 14.254L85.7266 14.702ZM85.2086 17.474V18.356H88.2326V17.474H85.2086ZM87.7006 23.9L87.0006 24.222C88.0646 26.532 89.8986 26.896 93.1886 26.896C94.7286 26.896 96.4926 26.868 97.8226 26.784C97.8786 26.504 98.0046 26.028 98.1586 25.804C96.7166 25.93 94.6726 25.986 93.1886 25.986C90.3886 25.986 88.5686 25.734 87.7006 23.9ZM87.7006 20.974V21.156C87.3506 23.676 86.3706 25.468 84.9846 26.42C85.1946 26.574 85.5446 26.938 85.6846 27.148C87.1406 26.07 88.2186 24.082 88.6666 21.142L88.1906 20.946L88.0086 20.974H87.7006ZM85.4186 22.024C85.5166 21.912 85.8806 21.828 86.2446 21.828H88.1346V20.974H85.9226L85.4186 21.226V22.024ZM85.4186 22.024C85.4186 21.758 86.2026 21.366 86.2026 21.366C87.0006 20.47 88.2606 18.678 88.9186 17.726L88.2186 17.404L87.9106 17.544V17.586C87.4486 18.328 86.1186 20.232 85.6986 20.652C85.4606 20.932 85.2366 21.016 85.0266 21.072C85.1386 21.296 85.3486 21.786 85.4186 22.024ZM94.1266 18.286C95.3306 18.972 96.6046 19.826 97.3746 20.484L98.0466 19.826C97.2346 19.182 95.9046 18.328 94.6726 17.67L94.1266 18.286ZM106.139 17.95H110.241V19.35H106.139V17.95ZM106.139 20.176H110.241V21.59H106.139V20.176ZM106.139 15.738H110.241V17.11H106.139V15.738ZM105.173 14.87V22.458H111.249V14.87H105.173ZM108.603 22.164V25.762C108.603 26.784 108.827 27.064 109.779 27.064C109.975 27.064 110.745 27.064 110.941 27.064C111.767 27.064 112.033 26.616 112.117 24.796C111.837 24.726 111.431 24.558 111.221 24.39C111.179 25.944 111.137 26.126 110.829 26.126C110.661 26.126 110.045 26.126 109.919 26.126C109.639 26.126 109.583 26.084 109.583 25.762V22.164H108.603ZM106.447 22.304C106.265 24.348 105.775 25.678 103.493 26.392C103.703 26.574 103.969 26.938 104.067 27.162C106.587 26.308 107.203 24.726 107.413 22.304H106.447ZM99.3066 16.648V17.614H103.675V16.648H99.3066ZM101.351 20.778V27.12H102.373V19.56L101.351 20.778ZM102.331 19.826L101.715 20.358C102.219 20.876 103.409 22.234 103.843 22.836L104.515 21.968C104.165 21.604 102.751 20.162 102.331 19.826ZM103.353 16.648V16.872C102.555 18.888 100.707 20.918 98.9286 21.982C99.0826 22.164 99.3206 22.71 99.4046 22.99C101.295 21.744 103.325 19.476 104.319 17.012L103.759 16.606L103.563 16.648H103.353ZM100.805 14.786C101.295 15.346 101.841 16.116 102.079 16.62L102.905 16.06C102.653 15.556 102.107 14.828 101.575 14.296L100.805 14.786ZM114.497 17.796V18.622H118.543V17.796H114.497ZM114.497 20.176V20.974H118.543V20.176H114.497ZM114.497 22.612V23.438H118.543V22.612H114.497ZM120.461 20.876V21.786H125.795V20.876H120.461ZM115.225 15.5V16.326H117.549V15.5H115.225ZM119.565 14.954V15.85H125.039V14.954H119.565ZM119.397 23.494V24.432H126.033V23.494H119.397ZM122.351 19.434V27.064H123.359V19.434H122.351ZM116.233 18.202V22.962H116.989V18.202H116.233ZM124.703 14.954V15.094C124.605 17.292 124.493 18.104 124.311 18.314C124.227 18.426 124.101 18.454 123.905 18.44C123.709 18.44 123.205 18.44 122.645 18.384C122.771 18.622 122.869 18.986 122.883 19.266C123.471 19.294 124.059 19.294 124.339 19.266C124.703 19.238 124.913 19.154 125.109 18.916C125.403 18.594 125.543 17.684 125.641 15.346C125.655 15.22 125.655 14.954 125.655 14.954H124.703ZM120.517 19.56C120.279 20.75 119.845 21.926 119.243 22.71C119.467 22.822 119.887 23.032 120.069 23.158C120.657 22.318 121.147 21.044 121.427 19.742L120.517 19.56ZM115.197 14.24C114.777 15.962 113.993 17.628 112.999 18.706C113.223 18.846 113.629 19.168 113.797 19.336C114.791 18.146 115.645 16.34 116.163 14.45L115.197 14.24ZM114.091 17.796V21.52C114.091 23.102 113.993 25.188 113.041 26.672C113.251 26.77 113.643 27.008 113.797 27.148C114.791 25.594 114.959 23.228 114.959 21.52V17.796H114.091ZM118.263 17.796V25.972C118.263 26.154 118.179 26.21 117.997 26.224C117.801 26.238 117.171 26.238 116.457 26.21C116.583 26.462 116.737 26.868 116.779 27.106C117.745 27.106 118.319 27.092 118.669 26.938C119.033 26.784 119.145 26.49 119.145 25.972V17.796H118.263ZM121.553 15.248C121.357 16.83 120.853 18.216 119.131 18.944C119.341 19.098 119.593 19.434 119.719 19.658C121.679 18.776 122.281 17.18 122.519 15.248H121.553ZM117.297 15.5V15.668C117.087 16.368 116.695 17.376 116.345 18.006C116.541 18.09 116.849 18.272 117.017 18.412C117.437 17.754 117.969 16.718 118.263 15.85L117.647 15.444L117.507 15.5H117.297ZM133.803 19.042V20.036H139.949V19.042H133.803ZM138.241 14.408C137.093 14.926 135.077 15.444 133.299 15.794C133.439 16.004 133.593 16.396 133.649 16.648C135.511 16.326 137.667 15.836 139.137 15.22L138.241 14.408ZM136.869 19.364V27.12H137.905V19.364H136.869ZM127.391 17.25V18.258H132.571V17.25H127.391ZM129.491 14.24V27.106H130.499V14.24H129.491ZM129.463 17.866C129.043 19.882 128.021 22.304 126.999 23.564C127.181 23.802 127.447 24.222 127.559 24.502C128.637 23.102 129.659 20.358 130.135 18.104L129.463 17.866ZM130.387 18.832L129.841 19.322C130.289 19.924 131.409 21.66 131.773 22.402L132.445 21.562C132.137 21.114 130.751 19.252 130.387 18.832ZM133.299 15.794V20.106C133.299 22.066 133.173 24.698 131.899 26.56C132.151 26.658 132.585 26.938 132.767 27.092C134.097 25.146 134.307 22.206 134.307 20.106V15.794H133.299Z" fill="white"/>
<path fill-rule="evenodd" clip-rule="evenodd" d="M14.751 21C16.9601 21 18.751 19.2091 18.751 17C18.751 19.2091 20.5418 21 22.751 21C20.5418 21 18.751 22.7909 18.751 25C18.751 22.7909 16.9601 21 14.751 21Z" fill="#F9C270"/>
<path fill-rule="evenodd" clip-rule="evenodd" d="M170.308 21C172.517 21 174.308 19.2091 174.308 17C174.308 19.2091 176.099 21 178.308 21C176.099 21 174.308 22.7909 174.308 25C174.308 22.7909 172.517 21 170.308 21Z" fill="#F9C270"/>
</svg>
