<svg width="197" height="42" viewBox="0 0 197 42" fill="none" xmlns="http://www.w3.org/2000/svg">
<rect x="0.805664" width="196.194" height="42" rx="21" fill="#735795"/>
<rect x="4.23779" y="2.75" width="188.924" height="36.5" rx="18.25" stroke="white" stroke-width="1.5"/>
<path d="M49.8943 20.708V21.646H56.8803V20.708H49.8943ZM52.5543 19.098V25.958C52.5543 26.112 52.5123 26.168 52.3443 26.168C52.1763 26.168 51.6303 26.168 51.0283 26.154C51.1543 26.42 51.2943 26.812 51.3363 27.078C52.1483 27.078 52.7083 27.064 53.0723 26.924C53.4363 26.77 53.5343 26.504 53.5343 25.958V19.098H52.5543ZM55.6903 14.394C54.3603 14.828 51.9523 15.192 49.9223 15.416C50.0343 15.612 50.1603 15.962 50.1883 16.158C52.3023 15.99 54.7943 15.626 56.4183 15.122L55.6903 14.394ZM50.5523 18.622V19.504H55.0603V22.948H50.4963V23.816H55.9563V18.622H50.5523ZM50.3283 16.704C50.6643 17.278 51.0143 18.048 51.1403 18.566L51.9523 18.216C51.7983 17.726 51.4483 16.97 51.0843 16.424L50.3283 16.704ZM52.2743 16.354C52.5403 16.956 52.7783 17.782 52.8483 18.3L53.7023 18.076C53.6183 17.572 53.3663 16.774 53.0863 16.172L52.2743 16.354ZM55.3823 15.92C55.1583 16.536 54.7243 17.46 54.3883 18.034L55.1723 18.286C55.5083 17.74 55.9143 16.928 56.2643 16.186L55.3823 15.92ZM44.2663 15.5V16.284H49.6843V15.5H44.2663ZM44.6443 17.124V17.894H49.3203V17.124H44.6443ZM44.0423 18.79V19.602H49.8803V18.79H44.0423ZM45.2043 22.192V22.948H48.8443V22.192H45.2043ZM45.2043 23.956V24.712H48.8303V23.956H45.2043ZM46.5483 14.24V19.266H47.5283V14.24H46.5483ZM48.3403 20.414V26.07C48.3403 26.224 48.2843 26.28 48.1163 26.28C47.9483 26.28 47.3743 26.294 46.7303 26.266C46.8703 26.504 47.0103 26.854 47.0663 27.092C47.9343 27.092 48.4663 27.092 48.8023 26.938C49.1523 26.798 49.2503 26.546 49.2503 26.07V20.414H48.3403ZM45.1763 20.414V21.212H48.7603V20.414H45.1763ZM44.7003 20.414V23.466C44.7003 24.46 44.6443 25.622 44.0003 26.504C44.1963 26.63 44.5463 26.994 44.6723 27.19C45.4843 26.182 45.6103 24.67 45.6103 23.48V20.414H44.7003ZM61.2203 23.9V25.636C61.2203 26.658 61.6403 26.91 63.1663 26.91C63.4883 26.91 65.8543 26.91 66.2043 26.91C67.4363 26.91 67.7443 26.532 67.8703 24.936C67.5903 24.88 67.1843 24.74 66.9463 24.572C66.8903 25.86 66.7783 26.028 66.1063 26.028C65.6023 26.028 63.6003 26.028 63.2223 26.028C62.3823 26.028 62.2423 25.972 62.2423 25.622V23.9H61.2203ZM63.5443 23.564C64.0483 24.096 64.6783 24.866 65.0003 25.314L65.7423 24.768C65.4203 24.348 64.7623 23.62 64.2723 23.102L63.5443 23.564ZM68.2903 23.942C68.7103 24.768 69.1863 25.874 69.3963 26.532L70.3623 26.21C70.1383 25.566 69.6343 24.488 69.2143 23.69L68.2903 23.942ZM59.2743 23.732C59.0503 24.544 58.6303 25.594 58.1543 26.238L59.0643 26.714C59.5263 26.014 59.9043 24.936 60.1703 24.096L59.2743 23.732ZM65.2943 18.916V21.87C65.2943 22.878 65.6163 23.144 66.8903 23.144C67.1563 23.144 68.8503 23.144 69.1303 23.144C70.0683 23.144 70.3623 22.836 70.4743 21.646C70.2083 21.59 69.8163 21.464 69.6063 21.31C69.5643 22.15 69.4663 22.276 69.0323 22.276C68.6683 22.276 67.2403 22.276 66.9743 22.276C66.3723 22.276 66.2743 22.22 66.2743 21.856V18.916H65.2943ZM62.0883 15.304C62.7743 16.018 63.5583 17.012 63.9223 17.642L64.6923 17.194C64.3143 16.578 63.5023 15.612 62.8163 14.926L62.0883 15.304ZM62.8443 17.866V22.36C62.8443 22.5 62.8023 22.542 62.6343 22.556C62.4803 22.556 61.9623 22.556 61.3743 22.556C61.4863 22.752 61.6263 23.06 61.6683 23.298C62.4803 23.298 63.0123 23.298 63.3483 23.158C63.6703 23.018 63.7683 22.808 63.7683 22.36V17.866H62.8443ZM59.5683 17.866V18.664H63.2223V17.866H59.5683ZM58.4623 17.474C58.4623 17.278 59.0643 17.012 59.0643 17.012V16.984C59.9323 16.41 60.8983 15.5 61.7243 14.52L60.7723 14.184C60.1283 15.08 59.1763 15.948 58.8963 16.172C58.6163 16.396 58.3643 16.55 58.1543 16.578C58.2663 16.816 58.4063 17.278 58.4623 17.474ZM58.4623 17.474C58.7703 17.362 59.2883 17.292 63.7683 16.914C63.7123 16.732 63.6283 16.41 63.6003 16.172L58.9523 16.494L58.4343 16.802L58.4623 17.474ZM65.8683 15.388V16.214H69.7043V15.388H65.8683ZM65.8683 20.022V20.862H69.7183V20.022H65.8683ZM58.9663 17.866V20.092C58.9663 20.988 58.9103 22.08 58.2243 22.92C58.4203 23.032 58.8123 23.34 58.9523 23.508C59.7503 22.57 59.8763 21.184 59.8763 20.12V17.866H58.9663ZM59.7923 21.324L60.1283 22.108C61.0383 21.814 62.0883 21.464 63.1383 21.1L63.0543 20.498C61.8223 20.82 60.6463 21.142 59.7923 21.324ZM60.0443 19.574C60.8003 19.854 61.7803 20.26 62.2983 20.526L62.7043 19.952C62.1723 19.686 61.1923 19.308 60.4503 19.056L60.0443 19.574ZM65.3083 14.352V16.914C65.3083 17.964 65.5883 18.328 66.6943 18.328C66.9603 18.328 68.6963 18.328 69.0743 18.328C69.5223 18.328 70.0123 18.314 70.2223 18.244C70.1943 18.034 70.1523 17.656 70.1383 17.404C69.8723 17.446 69.3543 17.474 69.0463 17.474C68.6963 17.474 67.0723 17.474 66.7363 17.474C66.3583 17.474 66.2883 17.334 66.2883 16.928V14.352H65.3083ZM77.2363 16.116V17.096H84.6703V16.116H77.2363ZM77.6563 19.308V20.288H84.2923V19.308H77.6563ZM78.4963 25.552V26.518H83.3963V25.552H78.4963ZM80.3163 14.24V19.826H81.3803V14.24H80.3163ZM77.9363 21.744V27.12H78.9163V22.71H82.8643V27.064H83.8863V21.744H77.9363ZM75.4723 19.77C75.8503 20.736 76.2283 21.982 76.3683 22.752L77.2223 22.458C77.0683 21.716 76.6623 20.484 76.2703 19.546L75.4723 19.77ZM74.1143 23.368C74.2963 24.376 74.4503 25.692 74.4783 26.56L75.3323 26.392C75.2763 25.524 75.1083 24.236 74.9123 23.228L74.1143 23.368ZM72.5323 23.256C72.3923 24.418 72.1963 25.72 71.8463 26.602C72.0843 26.672 72.5043 26.812 72.7003 26.91C72.9803 26.028 73.2603 24.656 73.4143 23.41L72.5323 23.256ZM72.1963 19.49C72.1963 19.28 72.8403 18.958 72.8403 18.958V18.944C73.8063 17.81 74.7863 16.186 75.5563 14.618L74.5903 14.198C73.9883 15.738 72.9803 17.348 72.6583 17.768C72.3643 18.188 72.1123 18.482 71.8603 18.538C71.9723 18.804 72.1403 19.28 72.1963 19.49ZM72.1963 19.49C72.4203 19.378 72.8123 19.308 75.0663 19.042C75.0663 18.832 75.0943 18.468 75.1503 18.216L72.6583 18.426L72.1683 18.72L72.1963 19.49ZM72.2803 22.64C72.2803 22.43 72.9383 22.122 72.9383 22.122V22.094C74.2963 20.75 75.6823 18.832 76.7883 16.942L75.8923 16.41C74.9543 18.286 73.4703 20.26 73.0083 20.75C72.5743 21.268 72.2523 21.618 71.9443 21.674C72.0703 21.954 72.2383 22.43 72.2803 22.64ZM72.2803 22.64C72.5743 22.5 73.0363 22.388 76.5363 21.884C76.5223 21.66 76.5363 21.282 76.5783 21.03L72.7703 21.52L72.2523 21.856L72.2803 22.64ZM75.5563 23.102C75.8643 23.97 76.2003 25.118 76.3403 25.86L77.1243 25.594C76.9843 24.866 76.6343 23.732 76.2983 22.864L75.5563 23.102ZM88.8423 18.818V19.798H95.9123V18.818H88.8423ZM88.5903 25.328V26.322H96.0943V25.328H88.5903ZM88.1143 21.478V27.092H89.1643V22.43H95.7023V27.05H96.8083V21.478H88.1143ZM92.5943 14.212C91.1663 16.382 88.5903 18.244 85.9163 19.294C86.2103 19.546 86.5043 19.938 86.6863 20.218C89.3883 19.028 91.9643 17.012 93.5183 14.674L92.5943 14.212ZM92.8043 15.024L91.9083 15.486C93.7703 17.614 95.8003 18.944 98.1943 20.092C98.3483 19.77 98.6563 19.378 98.9223 19.14C96.5703 18.146 94.5123 16.914 92.8043 15.024ZM100.336 23.396V24.194H106.72V23.396H100.336ZM99.9583 16.648V17.46H106.944V16.648H99.9583ZM102.996 15.374V25.678H103.962V15.374H102.996ZM99.9443 25.706L100.098 26.616C101.876 26.434 104.41 26.14 106.79 25.86L106.776 25.034C104.27 25.3 101.652 25.552 99.9443 25.706ZM101.246 20.778H105.782V21.814H101.246V20.778ZM101.246 19.07H105.782V20.078H101.246V19.07ZM100.364 18.342V22.542H106.678V18.342H100.364ZM106.174 14.38C104.732 14.716 102.184 14.968 100.098 15.08C100.21 15.29 100.308 15.64 100.35 15.864C102.45 15.794 105.054 15.556 106.706 15.192L106.174 14.38ZM106.846 17.516V18.496H111.9V17.516H106.846ZM111.494 17.516V17.768C111.34 23.438 111.186 25.454 110.836 25.888C110.71 26.07 110.57 26.112 110.346 26.112C110.066 26.112 109.45 26.098 108.764 26.042C108.932 26.322 109.044 26.756 109.072 27.05C109.716 27.092 110.388 27.092 110.78 27.05C111.2 27.008 111.48 26.882 111.732 26.518C112.194 25.916 112.334 23.956 112.488 18.048C112.488 17.908 112.502 17.516 112.502 17.516H111.494ZM108.54 14.422C108.526 19.714 108.596 24.152 105.39 26.448C105.642 26.616 106.006 26.952 106.174 27.204C109.52 24.698 109.534 19.994 109.548 14.422H108.54ZM117.22 23.9V25.636C117.22 26.658 117.64 26.91 119.166 26.91C119.488 26.91 121.854 26.91 122.204 26.91C123.436 26.91 123.744 26.532 123.87 24.936C123.59 24.88 123.184 24.74 122.946 24.572C122.89 25.86 122.778 26.028 122.106 26.028C121.602 26.028 119.6 26.028 119.222 26.028C118.382 26.028 118.242 25.972 118.242 25.622V23.9H117.22ZM119.544 23.564C120.048 24.096 120.678 24.866 121 25.314L121.742 24.768C121.42 24.348 120.762 23.62 120.272 23.102L119.544 23.564ZM124.29 23.942C124.71 24.768 125.186 25.874 125.396 26.532L126.362 26.21C126.138 25.566 125.634 24.488 125.214 23.69L124.29 23.942ZM115.274 23.732C115.05 24.544 114.63 25.594 114.154 26.238L115.064 26.714C115.526 26.014 115.904 24.936 116.17 24.096L115.274 23.732ZM121.294 18.916V21.87C121.294 22.878 121.616 23.144 122.89 23.144C123.156 23.144 124.85 23.144 125.13 23.144C126.068 23.144 126.362 22.836 126.474 21.646C126.208 21.59 125.816 21.464 125.606 21.31C125.564 22.15 125.466 22.276 125.032 22.276C124.668 22.276 123.24 22.276 122.974 22.276C122.372 22.276 122.274 22.22 122.274 21.856V18.916H121.294ZM118.088 15.304C118.774 16.018 119.558 17.012 119.922 17.642L120.692 17.194C120.314 16.578 119.502 15.612 118.816 14.926L118.088 15.304ZM118.844 17.866V22.36C118.844 22.5 118.802 22.542 118.634 22.556C118.48 22.556 117.962 22.556 117.374 22.556C117.486 22.752 117.626 23.06 117.668 23.298C118.48 23.298 119.012 23.298 119.348 23.158C119.67 23.018 119.768 22.808 119.768 22.36V17.866H118.844ZM115.568 17.866V18.664H119.222V17.866H115.568ZM114.462 17.474C114.462 17.278 115.064 17.012 115.064 17.012V16.984C115.932 16.41 116.898 15.5 117.724 14.52L116.772 14.184C116.128 15.08 115.176 15.948 114.896 16.172C114.616 16.396 114.364 16.55 114.154 16.578C114.266 16.816 114.406 17.278 114.462 17.474ZM114.462 17.474C114.77 17.362 115.288 17.292 119.768 16.914C119.712 16.732 119.628 16.41 119.6 16.172L114.952 16.494L114.434 16.802L114.462 17.474ZM121.868 15.388V16.214H125.704V15.388H121.868ZM121.868 20.022V20.862H125.718V20.022H121.868ZM114.966 17.866V20.092C114.966 20.988 114.91 22.08 114.224 22.92C114.42 23.032 114.812 23.34 114.952 23.508C115.75 22.57 115.876 21.184 115.876 20.12V17.866H114.966ZM115.792 21.324L116.128 22.108C117.038 21.814 118.088 21.464 119.138 21.1L119.054 20.498C117.822 20.82 116.646 21.142 115.792 21.324ZM116.044 19.574C116.8 19.854 117.78 20.26 118.298 20.526L118.704 19.952C118.172 19.686 117.192 19.308 116.45 19.056L116.044 19.574ZM121.308 14.352V16.914C121.308 17.964 121.588 18.328 122.694 18.328C122.96 18.328 124.696 18.328 125.074 18.328C125.522 18.328 126.012 18.314 126.222 18.244C126.194 18.034 126.152 17.656 126.138 17.404C125.872 17.446 125.354 17.474 125.046 17.474C124.696 17.474 123.072 17.474 122.736 17.474C122.358 17.474 122.288 17.334 122.288 16.928V14.352H121.308ZM128.168 16.284V17.236H134.552V16.284H128.168ZM129.736 17.6C129.288 18.692 128.574 19.84 127.846 20.624C128.07 20.778 128.448 21.114 128.602 21.268C129.33 20.414 130.128 19.084 130.646 17.88L129.736 17.6ZM132.186 19.882C131.444 22.584 130.002 24.726 127.902 26.014C128.126 26.196 128.49 26.588 128.644 26.784C130.786 25.328 132.312 23.046 133.18 20.064L132.186 19.882ZM132.046 17.978C132.662 18.748 133.334 19.784 133.6 20.456L134.426 19.98C134.16 19.308 133.46 18.3 132.83 17.558L132.046 17.978ZM129.288 20.96C130.744 22.388 132.382 24.376 133.068 25.692L133.922 25.02C133.194 23.718 131.514 21.8 130.072 20.4L129.288 20.96ZM136.064 16.802V17.782H140.712V16.802H136.064ZM136.386 14.226C135.98 16.718 135.28 19.112 134.146 20.652C134.356 20.834 134.72 21.24 134.86 21.436C136.078 19.728 136.89 17.138 137.38 14.38L136.386 14.226ZM138.962 17.418C138.346 21.94 136.918 24.796 133.53 26.378C133.754 26.574 134.118 26.966 134.244 27.176C137.702 25.37 139.256 22.374 139.97 17.544L138.962 17.418ZM136.204 18.608L135.308 18.818C136.106 22.542 137.604 25.622 140.152 27.12C140.32 26.854 140.656 26.476 140.894 26.266C138.43 24.992 136.904 22.01 136.204 18.608ZM130.184 14.576C130.59 15.122 131.024 15.864 131.22 16.354L132.144 15.948C131.934 15.472 131.486 14.758 131.052 14.226L130.184 14.576ZM142.224 21.674V22.654H154.516V21.674H142.224ZM147.81 15.262V27.12H148.916V15.262H147.81ZM147.432 22.094C146.256 23.634 143.946 25.118 141.874 25.804C142.098 26.014 142.434 26.406 142.588 26.658C144.688 25.86 147.012 24.264 148.314 22.472L147.432 22.094ZM149.238 22.052L148.398 22.43C149.742 24.152 152.122 25.79 154.152 26.602C154.32 26.336 154.642 25.93 154.88 25.72C152.836 25.034 150.456 23.55 149.238 22.052ZM144.66 18.118H152.108V19.588H144.66V18.118ZM144.66 15.822H152.108V17.264H144.66V15.822ZM143.582 14.926V20.484H153.228V14.926H143.582Z" fill="white"/>
<path fill-rule="evenodd" clip-rule="evenodd" d="M18.1392 21C20.3483 21 22.1392 19.2091 22.1392 17C22.1392 19.2091 23.93 21 26.1392 21C23.93 21 22.1392 22.7909 22.1392 25C22.1392 22.7909 20.3483 21 18.1392 21Z" fill="#F9C270"/>
<path fill-rule="evenodd" clip-rule="evenodd" d="M173.696 21C175.905 21 177.696 19.2091 177.696 17C177.696 19.2091 179.487 21 181.696 21C179.487 21 177.696 22.7909 177.696 25C177.696 22.7909 175.905 21 173.696 21Z" fill="#F9C270"/>
</svg>
