<svg width="147" height="39" viewBox="0 0 147 39" fill="none" xmlns="http://www.w3.org/2000/svg">
<rect x="0.76709" width="146.233" height="39" rx="19.5" fill="#C85551"/>
<rect x="3.51611" y="2.60718" width="140.432" height="33.7857" rx="16.8929" stroke="white" stroke-width="1.5"/>
<path d="M32.0498 14.8776L31.5598 15.8856H38.6858V14.8776H32.0498ZM33.7998 17.9156V18.8816H38.3638V17.9156H33.7998ZM33.7858 20.9956V21.9896H38.5598V20.9956H33.7858ZM33.2678 15.1996V25.4056H34.3458V15.1996H33.2678ZM32.5818 12.6936C31.8958 14.7516 30.7618 16.7956 29.4878 18.0976C29.7258 18.2656 30.1458 18.6436 30.2998 18.8256C31.5878 17.3836 32.8058 15.1856 33.6038 12.9596L32.5818 12.6936ZM29.2218 12.5816C28.4238 14.7096 27.1218 16.8096 25.7218 18.1676C25.9178 18.4196 26.2398 18.9796 26.3378 19.2316C27.8638 17.6636 29.3058 15.2696 30.2298 12.9036L29.2218 12.5816ZM27.7238 16.1936V25.3916H28.7878V15.1576L28.7598 15.1436L27.7238 16.1936ZM43.4458 14.1356H49.0458V16.7956H43.4458V14.1356ZM42.4238 13.1276V17.8036H50.1098V13.1276H42.4238ZM40.3938 19.2876V25.4056H41.3878V20.2956H44.3278V25.2936H45.3778V19.2876H40.3938ZM46.9038 19.2876V25.4056H47.9118V20.2956H51.1178V25.3216H52.1678V19.2876H46.9038ZM40.8418 23.6416V24.6496H44.7478V23.6416H40.8418ZM47.4218 23.6416V24.6496H51.5798V23.6416H47.4218ZM62.4578 13.2396V14.1636H65.0478V13.2396H62.4578ZM59.2098 13.9256V14.8216H61.9398V13.9256H59.2098ZM62.5838 15.9276V16.8236H65.0058V15.9276H62.5838ZM62.4998 18.5596V19.4556H64.8798V18.5596H62.4998ZM55.5838 15.8856V16.7816H57.9638V15.8856H55.5838ZM55.6538 18.5036V19.3996H58.0058V18.5036H55.6538ZM64.4738 13.2396C64.4878 15.8296 64.3618 19.4696 64.2218 21.5276H65.2018C65.3418 19.4976 65.4258 15.8856 65.4538 13.2396H64.4738ZM57.6418 12.6096C56.9558 12.9596 55.9058 13.3796 55.0238 13.6876C55.1358 13.9116 55.2618 14.2336 55.3038 14.4436C56.1998 14.1776 57.2918 13.8276 58.1458 13.4636L57.6418 12.6096ZM58.7058 12.6236V17.1736H61.4638V16.3196H59.6158V12.6236H58.7058ZM53.8758 21.1356V22.1156H66.5878V21.1356H53.8758ZM61.5758 23.0116C63.0458 23.7256 64.5998 24.6636 65.5518 25.3496L66.2518 24.5516C65.2718 23.8796 63.6478 22.9836 62.1498 22.2836L61.5758 23.0116ZM57.9918 22.3396C57.0958 23.0956 55.4018 24.0476 54.0578 24.5936C54.2678 24.8176 54.5338 25.1676 54.6738 25.3916C56.0458 24.7896 57.7398 23.8516 58.8878 22.9696L57.9918 22.3396ZM55.0238 13.6876L55.3038 21.4716H56.2558L56.0038 13.9676L55.0238 13.6876ZM59.1538 17.7896C59.0278 18.6436 58.8178 19.4976 58.3838 20.0996C58.5798 20.1976 58.9578 20.4216 59.0978 20.5476C59.5318 19.8896 59.8258 18.9096 59.9798 17.9296L59.1538 17.7896ZM60.9458 16.3336V20.0576C60.9458 20.1836 60.9038 20.2256 60.7638 20.2256C60.6238 20.2396 60.2038 20.2396 59.6998 20.2256C59.8118 20.4356 59.9238 20.7156 59.9658 20.9396C60.6518 20.9396 61.1418 20.9396 61.4498 20.8136C61.7578 20.6876 61.8418 20.4916 61.8418 20.0576V16.3336H60.9458ZM69.8638 13.2816V14.2756H78.4178V13.2816H69.8638ZM69.3738 13.2816V17.8176C69.3738 19.9736 69.2338 22.8436 67.7218 24.8456C67.9598 24.9716 68.3938 25.2516 68.5618 25.4336C70.1578 23.3196 70.3818 20.1136 70.3818 17.8176V13.2816H69.3738ZM77.9838 13.2816C78.0538 19.8756 77.9278 25.4196 79.7338 25.4196C80.4478 25.4056 80.6578 24.6916 80.7558 22.8856C80.5598 22.7176 80.2938 22.4096 80.1118 22.1296C80.0838 23.3476 79.9998 24.2996 79.8458 24.2996C79.0198 24.2996 78.9918 18.5456 79.0058 13.2816H77.9838ZM73.6158 15.9136V23.6696H74.5538V15.9136H73.6158ZM72.0478 18.2796H76.1778V20.4356H72.0478V18.2796ZM71.1938 17.4396V21.2756H77.0598V17.4396H71.1938ZM70.3398 23.4316L70.4098 24.3836C72.1458 24.2716 74.6938 24.0896 77.1298 23.9076V23.0116C74.5958 23.1796 71.9918 23.3476 70.3398 23.4316ZM75.6318 21.8776C76.3318 22.8436 77.0178 24.1596 77.2418 25.0136L78.1098 24.7056C77.8858 23.8236 77.1718 22.5496 76.4298 21.6116L75.6318 21.8776ZM70.9978 15.1996V16.0816H77.2978V15.1996H70.9978ZM88.9738 14.0376V14.9616H92.9218V14.0376H88.9738ZM87.6998 20.2816V25.4196H88.6798V21.1916H92.5858V25.3776H93.5938V20.2816H87.6998ZM88.1198 23.8796V24.8036H93.1178V23.8796H88.1198ZM89.3798 12.5116C88.7218 14.2056 87.5878 15.8016 86.2998 16.8096C86.5378 16.9636 86.9578 17.3276 87.1258 17.5096C88.3998 16.4036 89.6318 14.6536 90.3878 12.7916L89.3798 12.5116ZM92.6278 14.0376V14.2196C91.6058 17.1876 88.8058 19.3436 85.9918 20.2256C86.2018 20.4216 86.4678 20.8136 86.5938 21.0796C89.5758 20.0016 92.4598 17.7756 93.6638 14.3036L93.0058 13.9956L92.8238 14.0376H92.6278ZM88.8898 14.7656L88.1198 15.2556C89.0718 17.3416 91.1298 19.6656 94.2518 20.7576C94.3918 20.5056 94.6858 20.0856 94.8958 19.8896C91.8158 18.9516 89.7578 16.7536 88.8898 14.7656ZM81.9458 15.5356V16.5296H86.8738V15.5356H81.9458ZM84.0598 12.5256V25.3916H85.0538V12.5256H84.0598ZM84.0178 16.1516C83.5978 18.1676 82.6038 20.5896 81.6098 21.8496C81.8058 22.0876 82.0578 22.4936 82.1698 22.7736C83.2198 21.3596 84.2138 18.6296 84.6758 16.3756L84.0178 16.1516ZM84.9838 17.0896L84.4658 17.5516C84.8578 18.0556 85.8658 19.4976 86.2018 20.1136L86.8318 19.3016C86.5518 18.9236 85.3198 17.4256 84.9838 17.0896ZM96.8278 20.1836V21.0656H107.678V20.1836H96.8278ZM96.0158 13.4076V14.2056H102.414V13.4076H96.0158ZM102.26 22.1576V22.9836H106.768V22.1576H102.26ZM95.8898 24.1316V25.0416H108.602V24.1316H95.8898ZM101.686 20.5056V24.5236H102.722V20.5056H101.686ZM98.8018 12.5256V19.7916H99.7398V12.5256H98.8018ZM98.1858 21.7936V24.5936H99.1938V21.7936H98.1858ZM97.2898 15.6336H101.14V16.6696H97.2898V15.6336ZM96.4358 14.9196V17.3556H102.05V14.9196H96.4358ZM104.164 12.5396C103.772 13.9536 103.072 15.2556 102.148 16.1096C102.358 16.2776 102.722 16.6276 102.862 16.8236C103.842 15.8576 104.668 14.3456 105.116 12.7496L104.164 12.5396ZM103.954 14.0936L103.52 14.9756H108.546V14.0936H103.954ZM106.768 14.4716C106.208 16.9496 104.626 18.4056 102.176 19.1756C102.372 19.3576 102.68 19.7636 102.792 19.9596C105.34 18.9936 107.062 17.3976 107.748 14.5836L106.768 14.4716ZM104.066 14.6116L103.38 15.0736C104.01 16.8796 105.494 19.0216 108.098 19.9876C108.21 19.7496 108.49 19.3576 108.7 19.1616C106.11 18.3356 104.654 16.3476 104.066 14.6116ZM98.7038 17.0896C98.0738 17.9296 96.8558 18.8116 95.7778 19.2176C95.9738 19.3716 96.2538 19.6936 96.3938 19.9036C97.4858 19.3996 98.7318 18.3636 99.3898 17.3836L98.7038 17.0896ZM99.6838 17.9576C100.37 18.3076 101.168 18.8256 101.588 19.2176L102.05 18.6016C101.644 18.2096 100.804 17.7196 100.146 17.4116L99.6838 17.9576ZM112.704 17.1036V18.0836H119.774V17.1036H112.704ZM112.452 23.6136V24.6076H119.956V23.6136H112.452ZM111.976 19.7636V25.3776H113.026V20.7156H119.564V25.3356H120.67V19.7636H111.976ZM116.456 12.4976C115.028 14.6676 112.452 16.5296 109.778 17.5796C110.072 17.8316 110.366 18.2236 110.548 18.5036C113.25 17.3136 115.826 15.2976 117.38 12.9596L116.456 12.4976ZM116.666 13.3096L115.77 13.7716C117.632 15.8996 119.662 17.2296 122.056 18.3776C122.21 18.0556 122.518 17.6636 122.784 17.4256C120.432 16.4316 118.374 15.1996 116.666 13.3096Z" fill="white"/>
<path fill-rule="evenodd" clip-rule="evenodd" d="M11.7617 19.4999C13.9698 19.4999 15.7598 17.837 15.7598 15.7856C15.7598 17.837 17.5498 19.4999 19.7579 19.4999C17.5498 19.4999 15.7598 21.1629 15.7598 23.2142C15.7598 21.1629 13.9698 19.4999 11.7617 19.4999Z" fill="#F9C270"/>
<path fill-rule="evenodd" clip-rule="evenodd" d="M127.706 19.4999C129.914 19.4999 131.704 17.837 131.704 15.7856C131.704 17.837 133.494 19.4999 135.702 19.4999C133.494 19.4999 131.704 21.1629 131.704 23.2142C131.704 21.1629 129.914 19.4999 127.706 19.4999Z" fill="#F9C270"/>
</svg>
