<svg width="147" height="42" viewBox="0 0 147 42" fill="none" xmlns="http://www.w3.org/2000/svg">
<rect width="146.233" height="42" rx="21" fill="#C85551"/>
<rect x="2.74902" y="2.75" width="140.432" height="36.5" rx="18.25" stroke="white" stroke-width="1.5"/>
<path d="M32.1366 14.912C34.3066 16.97 34.6006 19.238 34.6006 21.8C34.6006 23.62 34.4886 25.44 34.1386 25.888C34.0406 26.028 33.9146 26.084 33.7186 26.112C33.4386 26.14 32.9486 26.14 32.3606 26.098C32.5426 26.392 32.6406 26.784 32.6546 27.106C33.1726 27.134 33.7046 27.134 34.1386 27.05C34.4746 26.994 34.7406 26.84 34.9226 26.602C35.4686 25.846 35.6086 23.858 35.6086 21.814C35.6086 19.112 35.2866 16.606 32.8786 14.366L32.1366 14.912ZM34.6146 19.378C34.0406 20.666 32.8786 22.122 31.8566 22.85C32.0946 23.046 32.3886 23.396 32.5426 23.648C33.5926 22.766 34.7686 21.184 35.3846 19.826L34.6146 19.378ZM35.3146 14.324C34.5866 15.752 33.2566 17.362 31.8846 18.426C32.1086 18.594 32.4446 18.888 32.5986 19.084C33.9986 17.936 35.3566 16.354 36.2246 14.786L35.3146 14.324ZM41.9086 15.654H43.4066V17.334H41.9086V15.654ZM39.6546 15.654H41.1246V17.334H39.6546V15.654ZM37.4566 15.654H38.8566V17.334H37.4566V15.654ZM36.5466 14.842V18.16H44.3586V14.842H36.5466ZM37.8766 17.782C37.3586 18.958 36.4906 20.064 35.5246 20.806C35.7486 20.946 36.1406 21.268 36.3086 21.422C37.2746 20.61 38.2406 19.35 38.8146 18.02L37.8766 17.782ZM37.6666 19.112L37.2326 19.98H44.0086V19.112H37.6666ZM43.6726 19.112V19.322C43.5466 24.026 43.3926 25.664 43.1266 26.014C43.0146 26.182 42.9026 26.21 42.7066 26.21C42.5106 26.21 42.0626 26.21 41.5446 26.168C41.6846 26.42 41.7826 26.826 41.7966 27.092C42.3426 27.12 42.8606 27.134 43.1686 27.092C43.5326 27.05 43.7706 26.938 43.9946 26.63C44.3726 26.14 44.4986 24.474 44.6526 19.588C44.6526 19.448 44.6526 19.112 44.6526 19.112H43.6726ZM37.6666 21.814H41.4886V23.116H37.6666V21.814ZM36.8266 21.086V23.844H42.3426V21.086H36.8266ZM39.1786 20.26V25.622L40.0186 25.468V20.26H39.1786ZM36.2246 25.314L36.3226 26.21C37.7926 26.07 39.8786 25.86 41.8946 25.664V24.852C39.7666 25.034 37.6106 25.216 36.2246 25.314ZM40.9426 24.208C41.3766 24.852 41.7826 25.706 41.9366 26.294L42.7206 26C42.5526 25.44 42.1186 24.586 41.6706 23.956L40.9426 24.208ZM54.5366 15.794V23.536H55.5166V15.794H54.5366ZM57.1826 14.31V25.734C57.1826 25.972 57.0846 26.042 56.8466 26.056C56.6226 26.07 55.8666 26.07 55.0126 26.042C55.1526 26.35 55.3066 26.812 55.3626 27.092C56.5106 27.092 57.2106 27.064 57.6166 26.896C58.0226 26.714 58.1906 26.392 58.1906 25.734V14.31H57.1826ZM47.7886 20.26V20.96H52.4786V20.26H47.7886ZM48.4326 25.622V26.448H52.7586V25.622H48.4326ZM47.1866 18.58V20.47C47.1866 22.066 47.0466 24.376 45.9266 26.084C46.1926 26.182 46.6266 26.378 46.8226 26.546C47.9566 24.768 48.1666 22.22 48.1666 20.47V18.58H47.1866ZM47.7746 18.58V19.364H51.9606V21.926H47.7186V22.71H52.9266V18.58H47.7746ZM48.0266 23.354V27.036H48.9366V24.138H52.3246V27.008H53.2626V23.354H48.0266ZM49.9166 14.352C49.0626 15.752 47.5086 16.956 45.9546 17.698C46.1366 17.922 46.4306 18.44 46.5426 18.664C48.1946 17.768 49.8886 16.354 50.8826 14.702L49.9166 14.352ZM49.5946 15.5C50.7846 16.228 52.3946 17.292 53.1926 17.964L53.7526 17.096C52.9546 16.452 51.3026 15.444 50.1406 14.758L49.5946 15.5ZM48.7126 17.18V17.88H51.6666V17.18H48.7126ZM64.2386 15.094V27.12H65.2186V16.032H71.4206V27.008H72.4286V15.094H64.2386ZM65.7926 18.062V18.888H70.9446V18.062H65.7926ZM64.7706 25.342V26.28H71.9806V25.342H64.7706ZM67.9206 16.48V20.918H68.7746V16.48H67.9206ZM67.1926 21.212H69.5586V23.382H67.1926V21.212ZM66.3806 20.428V24.18H70.3986V20.428H66.3806ZM62.7826 14.31C62.0966 16.438 60.9486 18.552 59.6886 19.924C59.8706 20.176 60.1646 20.75 60.2486 21.002C61.6486 19.392 62.9506 16.984 63.7486 14.59L62.7826 14.31ZM61.6206 17.74V27.148H62.6146V16.76L62.6006 16.746L61.6206 17.74ZM79.8626 14.296C79.8066 16.452 79.8906 23.298 74.0526 26.252C74.3746 26.476 74.7246 26.798 74.9066 27.078C80.8566 23.886 80.9686 16.774 81.0246 14.296H79.8626ZM80.8986 16.018L79.8906 16.13C80.0866 17.348 80.6606 24.432 86.2046 27.022C86.3586 26.728 86.6666 26.364 86.9746 26.126C81.5986 23.732 81.0246 17.026 80.8986 16.018ZM90.0966 14.996V15.99H98.6506V14.996H90.0966ZM89.6066 14.996V19.532C89.6066 21.688 89.4666 24.558 87.9546 26.56C88.1926 26.686 88.6266 26.966 88.7946 27.148C90.3906 25.034 90.6146 21.828 90.6146 19.532V14.996H89.6066ZM98.2166 14.996C98.2866 21.59 98.1606 27.134 99.9666 27.134C100.681 27.12 100.891 26.406 100.989 24.6C100.793 24.432 100.527 24.124 100.345 23.844C100.317 25.062 100.233 26.014 100.079 26.014C99.2526 26.014 99.2246 20.26 99.2386 14.996H98.2166ZM93.8486 17.628V25.384H94.7866V17.628H93.8486ZM92.2806 19.994H96.4106V22.15H92.2806V19.994ZM91.4266 19.154V22.99H97.2926V19.154H91.4266ZM90.5726 25.146L90.6426 26.098C92.3786 25.986 94.9266 25.804 97.3626 25.622V24.726C94.8286 24.894 92.2246 25.062 90.5726 25.146ZM95.8646 23.592C96.5646 24.558 97.2506 25.874 97.4746 26.728L98.3426 26.42C98.1186 25.538 97.4046 24.264 96.6626 23.326L95.8646 23.592ZM91.2306 16.914V17.796H97.5306V16.914H91.2306ZM109.207 15.752V16.676H113.155V15.752H109.207ZM107.933 21.996V27.134H108.913V22.906H112.819V27.092H113.827V21.996H107.933ZM108.353 25.594V26.518H113.351V25.594H108.353ZM109.613 14.226C108.955 15.92 107.821 17.516 106.533 18.524C106.771 18.678 107.191 19.042 107.359 19.224C108.633 18.118 109.865 16.368 110.621 14.506L109.613 14.226ZM112.861 15.752V15.934C111.839 18.902 109.039 21.058 106.225 21.94C106.435 22.136 106.701 22.528 106.827 22.794C109.809 21.716 112.693 19.49 113.897 16.018L113.239 15.71L113.057 15.752H112.861ZM109.123 16.48L108.353 16.97C109.305 19.056 111.363 21.38 114.485 22.472C114.625 22.22 114.919 21.8 115.129 21.604C112.049 20.666 109.991 18.468 109.123 16.48ZM102.179 17.25V18.244H107.107V17.25H102.179ZM104.293 14.24V27.106H105.287V14.24H104.293ZM104.251 17.866C103.831 19.882 102.837 22.304 101.843 23.564C102.039 23.802 102.291 24.208 102.403 24.488C103.453 23.074 104.447 20.344 104.909 18.09L104.251 17.866ZM105.217 18.804L104.699 19.266C105.091 19.77 106.099 21.212 106.435 21.828L107.065 21.016C106.785 20.638 105.553 19.14 105.217 18.804Z" fill="white"/>
<path fill-rule="evenodd" clip-rule="evenodd" d="M10.9948 21C13.2028 21 14.9928 19.2091 14.9928 17C14.9928 19.2091 16.7828 21 18.9909 21C16.7828 21 14.9928 22.7909 14.9928 25C14.9928 22.7909 13.2028 21 10.9948 21Z" fill="#F9C270"/>
<path fill-rule="evenodd" clip-rule="evenodd" d="M126.939 21C129.147 21 130.937 19.2091 130.937 17C130.937 19.2091 132.727 21 134.935 21C132.727 21 130.937 22.7909 130.937 25C130.937 22.7909 129.147 21 126.939 21Z" fill="#F9C270"/>
</svg>
