<svg width="148" height="39" viewBox="0 0 148 39" fill="none" xmlns="http://www.w3.org/2000/svg">
<rect x="0.844971" width="146.233" height="39" rx="19.5" fill="#C85551"/>
<rect x="3.59399" y="2.60718" width="140.432" height="33.7857" rx="16.8929" stroke="white" stroke-width="1.5"/>
<path d="M32.6877 19.9736L32.9677 20.9956C34.1437 20.6036 35.6837 20.1136 37.1397 19.6236L36.9857 18.6576C35.4037 19.1756 33.7657 19.6656 32.6877 19.9736ZM32.8837 15.3536V16.3336H37.2097V15.3536H32.8837ZM34.6757 12.5396V24.1596C34.6757 24.3416 34.6197 24.3976 34.4517 24.3976C34.2837 24.4116 33.7517 24.4116 33.1497 24.3836C33.2897 24.6776 33.4157 25.1116 33.4437 25.3636C34.3257 25.3776 34.8577 25.3356 35.1937 25.1816C35.5297 25.0136 35.6557 24.7196 35.6557 24.1456V12.5396H34.6757ZM37.8257 13.9956V14.9196H45.3297V13.9956H37.8257ZM37.4757 17.2716V18.1956H45.6097V17.2716H37.4757ZM38.8757 15.4096C39.2817 15.9556 39.7157 16.7256 39.8837 17.2016L40.7937 16.7956C40.6117 16.3336 40.1637 15.6056 39.7437 15.0596L38.8757 15.4096ZM43.2857 15.0876C43.0337 15.7596 42.5437 16.7536 42.1517 17.3556L43.0057 17.6356C43.3977 17.0476 43.8737 16.1656 44.2797 15.3676L43.2857 15.0876ZM37.2937 19.7356V20.6596H45.7777V19.7356H37.2937ZM43.6217 18.9096C43.0477 22.3116 41.4237 23.8936 37.2797 24.4816C37.4617 24.7196 37.6717 25.0976 37.7557 25.3776C42.1937 24.6076 43.9997 22.8576 44.6437 19.0916L43.6217 18.9096ZM40.6537 12.6656C40.9617 13.2396 41.3117 14.0236 41.4377 14.5416L42.5997 14.2756C42.4597 13.7856 42.1097 13.0296 41.7597 12.4696L40.6537 12.6656ZM38.1057 22.2836L39.1837 22.4096C39.8977 21.4576 40.8917 19.8756 41.4797 18.5316L40.4857 18.3216C39.9397 19.6376 38.9317 21.2616 38.1057 22.2836ZM38.1057 22.2836C40.4017 23.0816 43.3277 24.4116 44.7557 25.3636L45.5117 24.6076C43.9297 23.6276 41.0177 22.3676 38.8057 21.6396L38.1057 22.2836ZM52.7357 19.9036V25.4056H53.7997V19.9036H52.7357ZM47.4297 13.5756V15.6056H48.4097V14.4716H58.2377V15.6056H59.2457V13.5756H47.4297ZM47.1917 16.0816V16.9356H59.4557V16.0816H47.1917ZM47.0377 21.0656V21.9756H59.5957V21.0656H47.0377ZM56.2357 15.1016C55.2417 18.1536 52.6097 19.1896 47.1777 19.4136C47.3317 19.6516 47.4717 20.0016 47.5557 20.3096C53.2397 19.9596 56.1097 18.8116 57.2577 15.3536L56.2357 15.1016ZM48.9557 18.3076C52.7357 18.8956 56.2217 19.6936 58.2517 20.4496L59.2877 19.7496C57.0477 19.0076 53.3937 18.1816 49.8237 17.6636L48.9557 18.3076ZM52.3437 12.7636C52.6237 13.1976 52.9737 13.7996 53.1417 14.1776L54.2337 13.8556C54.0517 13.4916 53.6877 12.9176 53.3797 12.4976L52.3437 12.7636ZM48.9557 18.3076H50.1177C51.0417 17.5096 52.3997 16.1376 53.2397 14.9336L52.2177 14.6116C51.4337 15.8296 50.0337 17.3556 48.9557 18.3076ZM50.5517 22.2696C49.8097 23.0816 48.4797 23.8096 47.2197 24.2716C47.4717 24.4396 47.8777 24.7896 48.0737 24.9856C49.3057 24.4396 50.7337 23.5576 51.6017 22.6196L50.5517 22.2696ZM54.8917 22.7876C56.1797 23.4036 57.7757 24.3696 58.5597 25.0556L59.3297 24.2856C58.5037 23.6136 56.8797 22.6896 55.6057 22.1156L54.8917 22.7876ZM61.4997 13.9676V14.8776H66.6657V13.9676H61.4997ZM60.9677 21.6676V22.5776H67.1557V21.6676H60.9677ZM67.2397 15.2836V16.2636H71.9857V15.2836H67.2397ZM60.9677 16.2076V17.1316H67.0717V16.2076H60.9677ZM61.4157 19.3016V20.1976H66.7917V19.3016H61.4157ZM63.6417 12.5256V16.5716H64.6217V12.5256H63.6417ZM63.6557 19.5676V25.3776H64.6357V19.5676H63.6557ZM66.9037 18.9796C68.2617 19.9736 69.8297 21.4436 70.5157 22.4796L71.1877 21.6676C70.4737 20.6596 68.8777 19.2456 67.5197 18.2656L66.9037 18.9796ZM65.3777 17.2296C65.2237 17.8596 64.9157 18.7976 64.6497 19.3856L65.4337 19.6236C65.6997 19.0496 66.0077 18.2096 66.2877 17.4676L65.3777 17.2296ZM61.8917 17.4256C62.2137 17.9996 62.5077 18.7696 62.5917 19.2596L63.4037 18.9516C63.3057 18.4756 62.9837 17.7196 62.6617 17.1736L61.8917 17.4256ZM71.3277 15.2836C71.3137 20.4496 71.1877 24.7896 72.6857 25.2516C73.3717 25.4896 73.8197 24.9996 73.9177 22.8996C73.7497 22.7736 73.4557 22.4516 73.2737 22.2276C73.2317 23.3196 73.1477 24.2436 73.0497 24.2296C72.2237 24.0476 72.2657 19.9456 72.3217 15.2836H71.3277ZM68.8357 12.5396V16.8096C68.8357 19.3576 68.5977 22.5496 66.1757 24.8176C66.4277 24.9576 66.8057 25.2516 66.9877 25.4476C69.5217 23.0396 69.8297 19.6236 69.8297 16.8236V12.5396H68.8357ZM80.3997 13.3796V14.3876H87.2737V13.3796H80.3997ZM84.4877 17.5516V24.0476C84.4877 24.2856 84.4037 24.3416 84.1237 24.3556C83.8717 24.3696 82.9337 24.3696 81.9397 24.3416C82.0937 24.6496 82.2337 25.0836 82.2757 25.3776C83.6477 25.3776 84.4457 25.3636 84.9217 25.2096C85.3977 25.0416 85.5517 24.7196 85.5517 24.0616V17.5516H84.4877ZM79.7837 17.2436V18.2376H87.6797V17.2436H79.7837ZM76.9837 18.3216V25.4476H78.0337V17.4676L77.9077 17.4116L76.9837 18.3216ZM78.6077 15.5216C77.6417 17.1316 76.1017 18.7556 74.6457 19.7916C74.8697 19.9876 75.2337 20.4496 75.3877 20.6596C76.8577 19.4836 78.5097 17.6776 79.6017 15.8996L78.6077 15.5216ZM78.0337 12.5256C77.3197 13.5336 75.9617 14.7936 74.7997 15.5776C74.9817 15.7876 75.2617 16.1936 75.4157 16.4176C76.6617 15.5216 78.1037 14.1636 79.0417 12.9316L78.0337 12.5256ZM93.5877 14.7376V15.7176H101.302V14.7376H93.5877ZM93.8817 17.8176V18.7836H100.056V17.8176H93.8817ZM96.8917 12.5256V18.3636H97.9277V12.5256H96.8917ZM95.2397 18.5316L94.2877 18.8116C95.5057 22.1016 97.7737 24.4256 101.134 25.4196C101.288 25.1536 101.582 24.7336 101.82 24.5236C98.5437 23.6556 96.2897 21.4716 95.2397 18.5316ZM99.9717 17.8176V17.9996C98.9497 21.4576 95.9957 23.6276 92.7897 24.4536C92.9857 24.6776 93.2517 25.1256 93.3497 25.4056C96.7797 24.3696 99.8317 22.0876 101.022 18.0696L100.364 17.7756L100.168 17.8176H99.9717ZM88.8137 19.9456L89.1217 20.9536C90.3677 20.5896 91.9917 20.1136 93.5177 19.6516L93.3917 18.6996C91.7257 19.1756 89.9897 19.6516 88.8137 19.9456ZM88.9957 15.3536V16.3476H93.3917V15.3536H88.9957ZM90.8017 12.5396V24.1456C90.8017 24.3416 90.7177 24.4116 90.5357 24.4116C90.3537 24.4256 89.7377 24.4256 89.0797 24.4116C89.2197 24.6916 89.3737 25.1116 89.4017 25.3776C90.3677 25.3776 90.9557 25.3496 91.3197 25.1816C91.6977 25.0276 91.8377 24.7336 91.8377 24.1456V12.5396H90.8017ZM102.898 14.3596V15.3956H107.966V14.3596H102.898ZM108.064 13.3796V14.4436H115.736V13.3796H108.064ZM104.998 14.6676V21.8916H106.048V14.6676H104.998ZM102.758 21.9616L102.982 23.0396C104.41 22.7036 106.384 22.2696 108.246 21.8356L108.148 20.8276C106.174 21.2616 104.102 21.7096 102.758 21.9616ZM110.248 13.7436C109.954 15.4516 109.422 17.7616 109.002 19.1616H110.136C110.5 17.8036 111.004 15.5216 111.354 13.7436H110.248ZM114.308 18.1536V18.3216C114.056 22.0456 113.804 23.6416 113.328 24.0336C113.16 24.1876 112.95 24.2016 112.628 24.2016C112.208 24.2016 111.116 24.1876 109.996 24.0896C110.22 24.3976 110.388 24.8456 110.416 25.1676C111.452 25.2236 112.446 25.2516 112.964 25.2096C113.552 25.1676 113.916 25.0836 114.252 24.7056C114.812 24.1456 115.078 22.5916 115.358 18.6576C115.372 18.5036 115.386 18.1536 115.386 18.1536H114.308ZM109.744 18.1536L109.464 19.1616H114.7V18.1536H109.744Z" fill="white"/>
<path fill-rule="evenodd" clip-rule="evenodd" d="M11.8396 19.4999C14.0477 19.4999 15.8377 17.837 15.8377 15.7856C15.8377 17.837 17.6277 19.4999 19.8357 19.4999C17.6277 19.4999 15.8377 21.1629 15.8377 23.2142C15.8377 21.1629 14.0477 19.4999 11.8396 19.4999Z" fill="#F9C270"/>
<path fill-rule="evenodd" clip-rule="evenodd" d="M127.784 19.4999C129.992 19.4999 131.782 17.837 131.782 15.7856C131.782 17.837 133.572 19.4999 135.78 19.4999C133.572 19.4999 131.782 21.1629 131.782 23.2142C131.782 21.1629 129.992 19.4999 127.784 19.4999Z" fill="#F9C270"/>
</svg>
