<svg width="148" height="42" viewBox="0 0 148 42" fill="none" xmlns="http://www.w3.org/2000/svg">
<rect x="0.922607" width="146.233" height="42" rx="21" fill="#C85551"/>
<rect x="3.67163" y="2.75" width="140.432" height="36.5" rx="18.25" stroke="white" stroke-width="1.5"/>
<path d="M32.8771 21.688L33.1431 22.71C34.2771 22.346 35.7051 21.884 37.0631 21.436L36.9231 20.456C35.4251 20.946 33.8991 21.422 32.8771 21.688ZM33.0731 17.068V18.048H36.8951V17.068H33.0731ZM34.6551 14.254V25.832C34.6551 26.014 34.5991 26.07 34.4311 26.07C34.2771 26.07 33.7871 26.07 33.2411 26.056C33.3811 26.336 33.5071 26.784 33.5351 27.036C34.3471 27.036 34.8511 27.008 35.1731 26.84C35.5091 26.672 35.6211 26.392 35.6211 25.832V14.254H34.6551ZM41.1791 15.248V25.944H42.1731V15.248H41.1791ZM37.4971 17.208V18.16H45.7571V17.208H37.4971ZM37.8471 20.022V27.162H38.8551V20.372L37.8471 20.022ZM40.0731 19.182C39.5551 19.49 38.6451 19.826 37.8471 20.022C37.9591 20.232 38.0991 20.554 38.1551 20.75C39.0231 20.568 40.0871 20.26 40.8711 19.868L40.0731 19.182ZM42.6211 19.658V20.582H44.4971V27.106H45.4771V19.658H42.6211ZM38.3091 22.5V23.396H40.5911V22.5H38.3091ZM42.7191 22.5V23.382H45.0571V22.5H42.7191ZM38.3091 25.496V26.434H45.1131V25.496H38.3091ZM38.1551 14.786V15.724H45.1131V14.786H38.1551ZM52.8411 22.234V25.048H53.8211V22.234H52.8411ZM47.1011 25.972V26.728H59.6871V25.972H47.1011ZM47.1291 16.48V17.138H59.6451V16.48H47.1291ZM47.1011 20.68V21.422H59.6871V20.68H47.1011ZM48.1791 19.294V19.952H58.6791V19.294H48.1791ZM48.6131 15.108V15.766H57.0691V17.908H48.5291V18.566H58.1191V15.108H48.6131ZM52.7991 14.24V20.974H53.8631V14.24H52.7991ZM49.7331 23.956H57.0831V24.698H49.7331V23.956ZM49.7331 22.654H57.0831V23.368H49.7331V22.654ZM48.6971 22.024V25.314H58.1471V22.024H48.6971ZM62.0391 18.692V27.092H63.0471V19.574H72.3571V18.692H62.0391ZM71.7971 18.692V25.958C71.7971 26.168 71.7131 26.224 71.4891 26.238C71.2651 26.252 70.4531 26.266 69.5851 26.238C69.7111 26.462 69.8511 26.798 69.8931 27.05C71.0971 27.05 71.8111 27.036 72.2171 26.91C72.6371 26.756 72.7771 26.504 72.7771 25.958V18.692H71.7971ZM65.3151 22.122V22.92H69.0391V24.544H65.3151V25.328H69.9351V22.122H65.3151ZM64.7691 22.122V25.986H65.6791V22.122H64.7691ZM61.2411 15.752V16.676H73.5471V15.752H61.2411ZM64.2231 16.998C64.5311 17.516 64.9091 18.216 65.0911 18.65L66.0151 18.258C65.8331 17.866 65.4271 17.194 65.1191 16.69L64.2231 16.998ZM69.5991 16.76C69.3471 17.404 68.8291 18.328 68.4231 18.902L69.2351 19.14C69.6691 18.608 70.2151 17.754 70.6631 17.012L69.5991 16.76ZM66.5751 14.436C66.7991 15.01 67.0791 15.794 67.2051 16.284L68.2271 15.976C68.0871 15.5 67.8071 14.758 67.5411 14.184L66.5751 14.436ZM65.5251 19.126C65.4131 20.526 64.9371 21.17 63.0751 21.506C63.2711 21.674 63.4951 22.024 63.5791 22.234C65.7211 21.758 66.3091 20.876 66.4631 19.126H65.5251ZM68.0031 19.154V20.456C68.0031 21.31 68.1711 21.674 69.0391 21.674C69.2491 21.674 70.2431 21.674 70.5231 21.674C70.8171 21.674 71.1671 21.66 71.3351 21.604C71.3071 21.38 71.2791 21.086 71.2651 20.848C71.0691 20.89 70.7051 20.904 70.4951 20.904C70.2851 20.904 69.4311 20.904 69.2351 20.904C68.9831 20.904 68.9551 20.792 68.9551 20.47V19.154H68.0031ZM75.2691 22.892V23.774H87.5331V22.892H75.2691ZM75.3251 16.746V17.614H87.4771V16.746H75.3251ZM75.8851 19.168V20.022H86.9731V19.168H75.8851ZM76.5991 21.044V21.856H86.2871V21.044H76.5991ZM80.8411 19.546V27.134H81.8771V19.546H80.8411ZM79.5671 14.24V17.166H80.5471V14.24H79.5671ZM82.2131 14.24V17.124H83.2211V14.24H82.2131ZM85.4611 14.408C85.2231 15.052 84.7611 15.976 84.3831 16.564L85.2371 16.844C85.6291 16.298 86.1191 15.472 86.5391 14.702L85.4611 14.408ZM83.6551 17.572C83.4591 17.978 83.0811 18.608 82.8011 19.028L83.6691 19.294C83.9911 18.916 84.3831 18.398 84.7331 17.866L83.6551 17.572ZM76.4591 14.702C76.9211 15.36 77.4251 16.256 77.6211 16.816L78.5591 16.466C78.3631 15.892 77.8451 15.01 77.3551 14.38L76.4591 14.702ZM78.2091 17.796C78.5311 18.258 78.8531 18.888 78.9651 19.28L79.9731 19.014C79.8331 18.608 79.5111 18.006 79.1891 17.558L78.2091 17.796ZM79.3711 24.488C78.4471 25.09 76.6551 25.65 75.1991 25.888C75.4091 26.084 75.7031 26.42 75.8431 26.672C77.2991 26.35 79.1471 25.622 80.1551 24.866L79.3711 24.488ZM82.7871 24.992C84.1311 25.468 85.9231 26.196 86.8471 26.644L87.5051 25.986C86.5531 25.538 84.7471 24.866 83.4311 24.418L82.7871 24.992ZM95.3871 19.042V19.658H100.861V19.042H95.3871ZM95.3871 20.442V21.058H100.903V20.442H95.3871ZM95.0931 21.87V22.584H101.477V21.87H95.0931ZM93.3711 16.326C92.7551 17.628 91.7331 18.916 90.6971 19.756C90.9071 19.91 91.2571 20.274 91.3971 20.428C92.4471 19.49 93.5251 18.048 94.2531 16.592L93.3711 16.326ZM95.6111 16.298C95.0931 17.516 94.2531 18.734 93.3431 19.56C93.5671 19.7 93.9311 19.994 94.0851 20.148C94.9671 19.266 95.8911 17.894 96.4931 16.55L95.6111 16.298ZM97.9211 17.908V22.15H98.8171V17.908H97.9211ZM94.1271 23.83V25.79C94.1271 26.77 94.4351 27.022 95.6951 27.022C95.9611 27.022 97.6971 27.022 97.9631 27.022C98.9431 27.022 99.2371 26.686 99.3351 25.3C99.0831 25.23 98.6771 25.09 98.4671 24.936C98.4251 26.014 98.3411 26.154 97.8651 26.154C97.5011 26.154 96.0731 26.154 95.7931 26.154C95.2051 26.154 95.0931 26.098 95.0931 25.79V23.83H94.1271ZM95.3451 23.41C96.1851 23.788 97.1651 24.418 97.6691 24.866L98.3131 24.208C97.7951 23.76 96.7871 23.186 95.9751 22.808L95.3451 23.41ZM98.8871 24.026C99.6991 24.838 100.539 25.986 100.875 26.756L101.715 26.308C101.365 25.538 100.483 24.432 99.6711 23.634L98.8871 24.026ZM92.4471 23.788C92.1531 24.684 91.5931 25.692 90.8231 26.28L91.6351 26.798C92.4611 26.14 92.9651 25.062 93.3011 24.096L92.4471 23.788ZM95.6671 17.6L95.1631 18.286H101.253V17.6H95.6671ZM94.8551 18.412V23.004H95.7511V17.656L94.8551 18.412ZM90.4731 15.332V16.228H101.715V15.332H90.4731ZM89.8991 15.332V19.56C89.8991 21.618 89.8151 24.488 88.7931 26.532C89.0171 26.63 89.4371 26.952 89.6051 27.134C90.7111 24.964 90.8791 21.744 90.8791 19.56V15.332H89.8991ZM92.4471 18.622V23.004H93.3571V17.74L93.3431 17.726L92.4471 18.622ZM94.8831 14.282C95.2751 14.8 95.6671 15.528 95.8351 16.018L96.7871 15.654C96.6051 15.178 96.1851 14.492 95.7791 13.974L94.8831 14.282ZM97.3471 16.578C97.6831 16.942 98.0331 17.46 98.1871 17.824L98.9851 17.432C98.8031 17.096 98.4391 16.606 98.0891 16.242L97.3471 16.578ZM105.117 15.234V16.242H114.175V15.234H105.117ZM105.117 18.496V19.49H114.161V18.496H105.117ZM105.047 21.842V22.836H114.189V21.842H105.047ZM104.529 15.234V20.302C104.529 22.276 104.375 24.768 102.835 26.504C103.059 26.644 103.479 26.994 103.647 27.204C105.313 25.342 105.565 22.444 105.565 20.316V15.234H104.529ZM113.755 15.234V25.692C113.755 25.958 113.657 26.042 113.391 26.056C113.125 26.056 112.173 26.07 111.179 26.028C111.333 26.308 111.501 26.77 111.543 27.05C112.873 27.064 113.685 27.05 114.161 26.882C114.623 26.7 114.791 26.378 114.791 25.692V15.234H113.755ZM108.925 15.612V26.994H109.989V15.612H108.925Z" fill="white"/>
<path fill-rule="evenodd" clip-rule="evenodd" d="M11.9172 21C14.1253 21 15.9153 19.2091 15.9153 17C15.9153 19.2091 17.7053 21 19.9134 21C17.7053 21 15.9153 22.7909 15.9153 25C15.9153 22.7909 14.1253 21 11.9172 21Z" fill="#F9C270"/>
<path fill-rule="evenodd" clip-rule="evenodd" d="M127.861 21C130.069 21 131.859 19.2091 131.859 17C131.859 19.2091 133.649 21 135.857 21C133.649 21 131.859 22.7909 131.859 25C131.859 22.7909 130.069 21 127.861 21Z" fill="#F9C270"/>
</svg>
