<svg width="197" height="42" viewBox="0 0 197 42" fill="none" xmlns="http://www.w3.org/2000/svg">
<rect x="0.80542" width="196.194" height="42" rx="21" fill="#4C60A5"/>
<rect x="4.2373" y="2.75" width="188.924" height="36.5" rx="18.25" stroke="white" stroke-width="1.5"/>
<path d="M50.7478 21.688L51.0278 22.71C52.2038 22.318 53.7438 21.828 55.1998 21.338L55.0458 20.372C53.4638 20.89 51.8258 21.38 50.7478 21.688ZM50.9438 17.068V18.048H55.2698V17.068H50.9438ZM52.7358 14.254V25.874C52.7358 26.056 52.6798 26.112 52.5118 26.112C52.3438 26.126 51.8118 26.126 51.2098 26.098C51.3498 26.392 51.4758 26.826 51.5038 27.078C52.3858 27.092 52.9178 27.05 53.2538 26.896C53.5898 26.728 53.7158 26.434 53.7158 25.86V14.254H52.7358ZM55.8858 15.71V16.634H63.3898V15.71H55.8858ZM55.5358 18.986V19.91H63.6698V18.986H55.5358ZM56.9358 17.124C57.3418 17.67 57.7758 18.44 57.9438 18.916L58.8538 18.51C58.6718 18.048 58.2238 17.32 57.8038 16.774L56.9358 17.124ZM61.3458 16.802C61.0938 17.474 60.6038 18.468 60.2118 19.07L61.0658 19.35C61.4578 18.762 61.9338 17.88 62.3398 17.082L61.3458 16.802ZM55.3538 21.45V22.374H63.8378V21.45H55.3538ZM61.6818 20.624C61.1078 24.026 59.4838 25.608 55.3398 26.196C55.5218 26.434 55.7318 26.812 55.8158 27.092C60.2538 26.322 62.0598 24.572 62.7038 20.806L61.6818 20.624ZM58.7138 14.38C59.0218 14.954 59.3718 15.738 59.4978 16.256L60.6598 15.99C60.5198 15.5 60.1698 14.744 59.8198 14.184L58.7138 14.38ZM56.1658 23.998L57.2438 24.124C57.9578 23.172 58.9518 21.59 59.5398 20.246L58.5458 20.036C57.9998 21.352 56.9918 22.976 56.1658 23.998ZM56.1658 23.998C58.4618 24.796 61.3878 26.126 62.8158 27.078L63.5718 26.322C61.9898 25.342 59.0778 24.082 56.8658 23.354L56.1658 23.998ZM70.7958 21.618V27.12H71.8598V21.618H70.7958ZM65.4898 15.29V17.32H66.4698V16.186H76.2978V17.32H77.3058V15.29H65.4898ZM65.2518 17.796V18.65H77.5158V17.796H65.2518ZM65.0978 22.78V23.69H77.6558V22.78H65.0978ZM74.2958 16.816C73.3018 19.868 70.6698 20.904 65.2378 21.128C65.3918 21.366 65.5318 21.716 65.6158 22.024C71.2998 21.674 74.1698 20.526 75.3178 17.068L74.2958 16.816ZM67.0158 20.022C70.7958 20.61 74.2818 21.408 76.3118 22.164L77.3478 21.464C75.1078 20.722 71.4538 19.896 67.8838 19.378L67.0158 20.022ZM70.4038 14.478C70.6838 14.912 71.0338 15.514 71.2018 15.892L72.2938 15.57C72.1118 15.206 71.7478 14.632 71.4398 14.212L70.4038 14.478ZM67.0158 20.022H68.1778C69.1018 19.224 70.4598 17.852 71.2998 16.648L70.2778 16.326C69.4938 17.544 68.0938 19.07 67.0158 20.022ZM68.6118 23.984C67.8698 24.796 66.5398 25.524 65.2798 25.986C65.5318 26.154 65.9378 26.504 66.1338 26.7C67.3658 26.154 68.7938 25.272 69.6618 24.334L68.6118 23.984ZM72.9518 24.502C74.2398 25.118 75.8358 26.084 76.6198 26.77L77.3898 26C76.5638 25.328 74.9398 24.404 73.6658 23.83L72.9518 24.502ZM87.5958 14.954V15.878H90.1858V14.954H87.5958ZM84.3478 15.64V16.536H87.0778V15.64H84.3478ZM87.7218 17.642V18.538H90.1438V17.642H87.7218ZM87.6378 20.274V21.17H90.0178V20.274H87.6378ZM80.7218 17.6V18.496H83.1018V17.6H80.7218ZM80.7918 20.218V21.114H83.1438V20.218H80.7918ZM89.6118 14.954C89.6258 17.544 89.4998 21.184 89.3598 23.242H90.3398C90.4798 21.212 90.5638 17.6 90.5918 14.954H89.6118ZM82.7798 14.324C82.0938 14.674 81.0438 15.094 80.1618 15.402C80.2738 15.626 80.3998 15.948 80.4418 16.158C81.3378 15.892 82.4298 15.542 83.2838 15.178L82.7798 14.324ZM83.8438 14.338V18.888H86.6018V18.034H84.7538V14.338H83.8438ZM79.0138 22.85V23.83H91.7258V22.85H79.0138ZM86.7138 24.726C88.1838 25.44 89.7378 26.378 90.6898 27.064L91.3898 26.266C90.4098 25.594 88.7858 24.698 87.2878 23.998L86.7138 24.726ZM83.1298 24.054C82.2338 24.81 80.5398 25.762 79.1958 26.308C79.4058 26.532 79.6718 26.882 79.8118 27.106C81.1838 26.504 82.8778 25.566 84.0258 24.684L83.1298 24.054ZM80.1618 15.402L80.4418 23.186H81.3938L81.1418 15.682L80.1618 15.402ZM84.2918 19.504C84.1658 20.358 83.9558 21.212 83.5218 21.814C83.7178 21.912 84.0958 22.136 84.2358 22.262C84.6698 21.604 84.9638 20.624 85.1178 19.644L84.2918 19.504ZM86.0838 18.048V21.772C86.0838 21.898 86.0418 21.94 85.9018 21.94C85.7618 21.954 85.3418 21.954 84.8378 21.94C84.9498 22.15 85.0618 22.43 85.1038 22.654C85.7898 22.654 86.2798 22.654 86.5878 22.528C86.8958 22.402 86.9798 22.206 86.9798 21.772V18.048H86.0838ZM100.154 19.658V20.526H104.732V19.658H100.154ZM99.6498 14.898V27.106H100.616V15.836H104.634V14.898H99.6498ZM104.13 14.898V17.586C104.13 17.74 104.074 17.796 103.85 17.81C103.626 17.824 102.898 17.824 102.03 17.796C102.17 18.062 102.31 18.44 102.352 18.72C103.43 18.72 104.13 18.706 104.564 18.552C104.998 18.398 105.11 18.118 105.11 17.6V14.898H104.13ZM101.512 20.134L100.686 20.358C101.512 23.256 103.066 25.818 105.236 27.036C105.404 26.77 105.726 26.378 105.964 26.182C103.85 25.146 102.268 22.766 101.512 20.134ZM104.41 19.658V19.882C103.962 22.458 102.562 25.076 100.378 26.434C100.616 26.616 100.924 26.91 101.078 27.148C103.416 25.636 104.872 22.878 105.432 19.84L104.788 19.602L104.606 19.658H104.41ZM93.4478 15.682V16.592H98.7678V15.682H93.4478ZM93.0138 23.354V24.264H99.1318V23.354H93.0138ZM93.0278 17.992V18.916H99.1038V17.992H93.0278ZM93.3218 20.904V21.814H98.8658V20.904H93.3218ZM95.6458 14.268V18.314H96.6258V14.268H95.6458ZM95.6458 21.268V27.078H96.6258V21.268H95.6458ZM97.4798 18.916C97.2418 19.588 96.7518 20.554 96.3458 21.156L97.1298 21.394C97.5358 20.82 97.9978 19.938 98.4038 19.154L97.4798 18.916ZM93.9658 19.196C94.2598 19.742 94.5538 20.47 94.6378 20.932L95.4638 20.652C95.3658 20.204 95.0578 19.49 94.7498 18.958L93.9658 19.196ZM110.682 14.954V15.766H119.67V14.954H110.682ZM111.956 17.292H118.27V18.636H111.956V17.292ZM111.018 16.592V19.322H119.25V16.592H111.018ZM113.44 15.22V18.902H114.308V15.22H113.44ZM115.862 15.22V18.902H116.73V15.22H115.862ZM112.292 22.122H118.06V22.92H112.292V22.122ZM112.292 23.578H118.06V24.404H112.292V23.578ZM112.292 20.666H118.06V21.464H112.292V20.666ZM111.312 19.994V25.076H119.082V19.994H111.312ZM115.862 25.776C117.066 26.196 118.312 26.742 119.026 27.162L119.936 26.546C119.124 26.126 117.766 25.58 116.548 25.174L115.862 25.776ZM113.566 25.16C112.824 25.636 111.466 26.154 110.248 26.434C110.444 26.616 110.696 26.938 110.836 27.148C112.082 26.84 113.468 26.308 114.322 25.692L113.566 25.16ZM109.618 14.324C108.946 16.48 107.84 18.636 106.608 20.036C106.79 20.302 107.07 20.862 107.168 21.114C108.554 19.476 109.8 17.012 110.598 14.59L109.618 14.324ZM108.498 17.754V27.12H109.492V16.816L109.464 16.788L108.498 17.754ZM125.648 16.452V17.432H133.362V16.452H125.648ZM125.942 19.532V20.498H132.116V19.532H125.942ZM128.952 14.24V20.078H129.988V14.24H128.952ZM127.3 20.246L126.348 20.526C127.566 23.816 129.834 26.14 133.194 27.134C133.348 26.868 133.642 26.448 133.88 26.238C130.604 25.37 128.35 23.186 127.3 20.246ZM132.032 19.532V19.714C131.01 23.172 128.056 25.342 124.85 26.168C125.046 26.392 125.312 26.84 125.41 27.12C128.84 26.084 131.892 23.802 133.082 19.784L132.424 19.49L132.228 19.532H132.032ZM120.874 21.66L121.182 22.668C122.428 22.304 124.052 21.828 125.578 21.366L125.452 20.414C123.786 20.89 122.05 21.366 120.874 21.66ZM121.056 17.068V18.062H125.452V17.068H121.056ZM122.862 14.254V25.86C122.862 26.056 122.778 26.126 122.596 26.126C122.414 26.14 121.798 26.14 121.14 26.126C121.28 26.406 121.434 26.826 121.462 27.092C122.428 27.092 123.016 27.064 123.38 26.896C123.758 26.742 123.898 26.448 123.898 25.86V14.254H122.862ZM134.958 16.074V17.11H140.026V16.074H134.958ZM140.124 15.094V16.158H147.796V15.094H140.124ZM137.058 16.382V23.606H138.108V16.382H137.058ZM134.818 23.676L135.042 24.754C136.47 24.418 138.444 23.984 140.306 23.55L140.208 22.542C138.234 22.976 136.162 23.424 134.818 23.676ZM142.308 15.458C142.014 17.166 141.482 19.476 141.062 20.876H142.196C142.56 19.518 143.064 17.236 143.414 15.458H142.308ZM146.368 19.868V20.036C146.116 23.76 145.864 25.356 145.388 25.748C145.22 25.902 145.01 25.916 144.688 25.916C144.268 25.916 143.176 25.902 142.056 25.804C142.28 26.112 142.448 26.56 142.476 26.882C143.512 26.938 144.506 26.966 145.024 26.924C145.612 26.882 145.976 26.798 146.312 26.42C146.872 25.86 147.138 24.306 147.418 20.372C147.432 20.218 147.446 19.868 147.446 19.868H146.368ZM141.804 19.868L141.524 20.876H146.76V19.868H141.804Z" fill="white"/>
<path fill-rule="evenodd" clip-rule="evenodd" d="M18.1392 21C20.3483 21 22.1392 19.2091 22.1392 17C22.1392 19.2091 23.93 21 26.1392 21C23.93 21 22.1392 22.7909 22.1392 25C22.1392 22.7909 20.3483 21 18.1392 21Z" fill="#F9C270"/>
<path fill-rule="evenodd" clip-rule="evenodd" d="M173.697 21C175.906 21 177.697 19.2091 177.697 17C177.697 19.2091 179.487 21 181.697 21C179.487 21 177.697 22.7909 177.697 25C177.697 22.7909 175.906 21 173.697 21Z" fill="#F9C270"/>
</svg>
