<svg width="198" height="42" viewBox="0 0 198 42" fill="none" xmlns="http://www.w3.org/2000/svg">
<rect x="0.902588" width="196.194" height="42" rx="21" fill="#4C60A5"/>
<rect x="4.33447" y="2.75" width="188.924" height="36.5" rx="18.25" stroke="white" stroke-width="1.5"/>
<path d="M57.957 21.688L58.223 22.71C59.357 22.346 60.785 21.884 62.143 21.436L62.003 20.456C60.505 20.946 58.979 21.422 57.957 21.688ZM58.153 17.068V18.048H61.975V17.068H58.153ZM59.735 14.254V25.832C59.735 26.014 59.679 26.07 59.511 26.07C59.357 26.07 58.867 26.07 58.321 26.056C58.461 26.336 58.587 26.784 58.615 27.036C59.427 27.036 59.931 27.008 60.253 26.84C60.589 26.672 60.701 26.392 60.701 25.832V14.254H59.735ZM66.259 15.248V25.944H67.253V15.248H66.259ZM62.577 17.208V18.16H70.837V17.208H62.577ZM62.927 20.022V27.162H63.935V20.372L62.927 20.022ZM65.153 19.182C64.635 19.49 63.725 19.826 62.927 20.022C63.039 20.232 63.179 20.554 63.235 20.75C64.103 20.568 65.167 20.26 65.951 19.868L65.153 19.182ZM67.701 19.658V20.582H69.577V27.106H70.557V19.658H67.701ZM63.389 22.5V23.396H65.671V22.5H63.389ZM67.799 22.5V23.382H70.137V22.5H67.799ZM63.389 25.496V26.434H70.193V25.496H63.389ZM63.235 14.786V15.724H70.193V14.786H63.235ZM77.921 22.234V25.048H78.901V22.234H77.921ZM72.181 25.972V26.728H84.767V25.972H72.181ZM72.209 16.48V17.138H84.725V16.48H72.209ZM72.181 20.68V21.422H84.767V20.68H72.181ZM73.259 19.294V19.952H83.759V19.294H73.259ZM73.693 15.108V15.766H82.149V17.908H73.609V18.566H83.199V15.108H73.693ZM77.879 14.24V20.974H78.943V14.24H77.879ZM74.813 23.956H82.163V24.698H74.813V23.956ZM74.813 22.654H82.163V23.368H74.813V22.654ZM73.777 22.024V25.314H83.227V22.024H73.777ZM87.119 18.692V27.092H88.127V19.574H97.437V18.692H87.119ZM96.877 18.692V25.958C96.877 26.168 96.793 26.224 96.569 26.238C96.345 26.252 95.533 26.266 94.665 26.238C94.791 26.462 94.931 26.798 94.973 27.05C96.177 27.05 96.891 27.036 97.297 26.91C97.717 26.756 97.857 26.504 97.857 25.958V18.692H96.877ZM90.395 22.122V22.92H94.119V24.544H90.395V25.328H95.015V22.122H90.395ZM89.849 22.122V25.986H90.759V22.122H89.849ZM86.321 15.752V16.676H98.627V15.752H86.321ZM89.303 16.998C89.611 17.516 89.989 18.216 90.171 18.65L91.095 18.258C90.913 17.866 90.507 17.194 90.199 16.69L89.303 16.998ZM94.679 16.76C94.427 17.404 93.909 18.328 93.503 18.902L94.315 19.14C94.749 18.608 95.295 17.754 95.743 17.012L94.679 16.76ZM91.655 14.436C91.879 15.01 92.159 15.794 92.285 16.284L93.307 15.976C93.167 15.5 92.887 14.758 92.621 14.184L91.655 14.436ZM90.605 19.126C90.493 20.526 90.017 21.17 88.155 21.506C88.351 21.674 88.575 22.024 88.659 22.234C90.801 21.758 91.389 20.876 91.543 19.126H90.605ZM93.083 19.154V20.456C93.083 21.31 93.251 21.674 94.119 21.674C94.329 21.674 95.323 21.674 95.603 21.674C95.897 21.674 96.247 21.66 96.415 21.604C96.387 21.38 96.359 21.086 96.345 20.848C96.149 20.89 95.785 20.904 95.575 20.904C95.365 20.904 94.511 20.904 94.315 20.904C94.063 20.904 94.035 20.792 94.035 20.47V19.154H93.083ZM100.349 22.892V23.774H112.613V22.892H100.349ZM100.405 16.746V17.614H112.557V16.746H100.405ZM100.965 19.168V20.022H112.053V19.168H100.965ZM101.679 21.044V21.856H111.367V21.044H101.679ZM105.921 19.546V27.134H106.957V19.546H105.921ZM104.647 14.24V17.166H105.627V14.24H104.647ZM107.293 14.24V17.124H108.301V14.24H107.293ZM110.541 14.408C110.303 15.052 109.841 15.976 109.463 16.564L110.317 16.844C110.709 16.298 111.199 15.472 111.619 14.702L110.541 14.408ZM108.735 17.572C108.539 17.978 108.161 18.608 107.881 19.028L108.749 19.294C109.071 18.916 109.463 18.398 109.813 17.866L108.735 17.572ZM101.539 14.702C102.001 15.36 102.505 16.256 102.701 16.816L103.639 16.466C103.443 15.892 102.925 15.01 102.435 14.38L101.539 14.702ZM103.289 17.796C103.611 18.258 103.933 18.888 104.045 19.28L105.053 19.014C104.913 18.608 104.591 18.006 104.269 17.558L103.289 17.796ZM104.451 24.488C103.527 25.09 101.735 25.65 100.279 25.888C100.489 26.084 100.783 26.42 100.923 26.672C102.379 26.35 104.227 25.622 105.235 24.866L104.451 24.488ZM107.867 24.992C109.211 25.468 111.003 26.196 111.927 26.644L112.585 25.986C111.633 25.538 109.827 24.866 108.511 24.418L107.867 24.992ZM120.467 19.042V19.658H125.941V19.042H120.467ZM120.467 20.442V21.058H125.983V20.442H120.467ZM120.173 21.87V22.584H126.557V21.87H120.173ZM118.451 16.326C117.835 17.628 116.813 18.916 115.777 19.756C115.987 19.91 116.337 20.274 116.477 20.428C117.527 19.49 118.605 18.048 119.333 16.592L118.451 16.326ZM120.691 16.298C120.173 17.516 119.333 18.734 118.423 19.56C118.647 19.7 119.011 19.994 119.165 20.148C120.047 19.266 120.971 17.894 121.573 16.55L120.691 16.298ZM123.001 17.908V22.15H123.897V17.908H123.001ZM119.207 23.83V25.79C119.207 26.77 119.515 27.022 120.775 27.022C121.041 27.022 122.777 27.022 123.043 27.022C124.023 27.022 124.317 26.686 124.415 25.3C124.163 25.23 123.757 25.09 123.547 24.936C123.505 26.014 123.421 26.154 122.945 26.154C122.581 26.154 121.153 26.154 120.873 26.154C120.285 26.154 120.173 26.098 120.173 25.79V23.83H119.207ZM120.425 23.41C121.265 23.788 122.245 24.418 122.749 24.866L123.393 24.208C122.875 23.76 121.867 23.186 121.055 22.808L120.425 23.41ZM123.967 24.026C124.779 24.838 125.619 25.986 125.955 26.756L126.795 26.308C126.445 25.538 125.563 24.432 124.751 23.634L123.967 24.026ZM117.527 23.788C117.233 24.684 116.673 25.692 115.903 26.28L116.715 26.798C117.541 26.14 118.045 25.062 118.381 24.096L117.527 23.788ZM120.747 17.6L120.243 18.286H126.333V17.6H120.747ZM119.935 18.412V23.004H120.831V17.656L119.935 18.412ZM115.553 15.332V16.228H126.795V15.332H115.553ZM114.979 15.332V19.56C114.979 21.618 114.895 24.488 113.873 26.532C114.097 26.63 114.517 26.952 114.685 27.134C115.791 24.964 115.959 21.744 115.959 19.56V15.332H114.979ZM117.527 18.622V23.004H118.437V17.74L118.423 17.726L117.527 18.622ZM119.963 14.282C120.355 14.8 120.747 15.528 120.915 16.018L121.867 15.654C121.685 15.178 121.265 14.492 120.859 13.974L119.963 14.282ZM122.427 16.578C122.763 16.942 123.113 17.46 123.267 17.824L124.065 17.432C123.883 17.096 123.519 16.606 123.169 16.242L122.427 16.578ZM130.197 15.234V16.242H139.255V15.234H130.197ZM130.197 18.496V19.49H139.241V18.496H130.197ZM130.127 21.842V22.836H139.269V21.842H130.127ZM129.609 15.234V20.302C129.609 22.276 129.455 24.768 127.915 26.504C128.139 26.644 128.559 26.994 128.727 27.204C130.393 25.342 130.645 22.444 130.645 20.316V15.234H129.609ZM138.835 15.234V25.692C138.835 25.958 138.737 26.042 138.471 26.056C138.205 26.056 137.253 26.07 136.259 26.028C136.413 26.308 136.581 26.77 136.623 27.05C137.953 27.064 138.765 27.05 139.241 26.882C139.703 26.7 139.871 26.378 139.871 25.692V15.234H138.835ZM134.005 15.612V26.994H135.069V15.612H134.005Z" fill="white"/>
<path fill-rule="evenodd" clip-rule="evenodd" d="M17.519 21C19.7282 21 21.519 19.2091 21.519 17C21.519 19.2091 23.3099 21 25.519 21C23.3099 21 21.519 22.7909 21.519 25C21.519 22.7909 19.7282 21 17.519 21Z" fill="#F9C270"/>
<path fill-rule="evenodd" clip-rule="evenodd" d="M173.076 21C175.285 21 177.076 19.2091 177.076 17C177.076 19.2091 178.867 21 181.076 21C178.867 21 177.076 22.7909 177.076 25C177.076 22.7909 175.285 21 173.076 21Z" fill="#F9C270"/>
</svg>
