<svg width="179" height="50" viewBox="0 0 179 50" fill="none" xmlns="http://www.w3.org/2000/svg">
<path d="M92.5001 25C92.5001 38.6202 81.4587 49.6615 67.8386 49.6615C54.2184 49.6615 43.177 38.6202 43.177 25C43.177 11.3798 54.2184 0.338484 67.8386 0.338484C81.4587 0.338484 92.5001 11.3798 92.5001 25Z" stroke="#4C60A5" stroke-width="0.676967"/>
<path d="M64.9321 31.8948L73.9575 25.0067L64.9321 18.105" stroke="#4C60A5" stroke-width="1.01545" stroke-miterlimit="10"/>
<line x1="74.1481" y1="25.0107" x2="0.638679" y2="25.0106" stroke="#4C60A5" stroke-width="1.01545"/>
<path d="M108.456 19.9301V21.6023H122.818V19.9301H108.456ZM107.681 30.6316V32.3037H123.558V30.6316H107.681ZM110.797 22.7639C111.43 25.0345 112.135 28.0619 112.381 30.0156L114.159 29.558C113.859 27.5866 113.155 24.6825 112.451 22.3591L110.797 22.7639ZM118.788 22.3943C118.225 25.0521 117.133 28.7483 116.165 30.9485L117.802 31.3357C118.753 29.1531 119.879 25.6505 120.653 22.7287L118.788 22.3943ZM114.176 16.9555C114.511 17.8708 114.88 19.0853 115.039 19.8597L116.764 19.3493C116.57 18.5925 116.183 17.4308 115.813 16.5331L114.176 16.9555ZM126.761 21.0214V22.5175H132.2V21.0214H126.761ZM126.726 17.5892V19.0853H131.584V24.5944H126.726V26.0905H133.256V17.5892H126.726ZM126.075 32.5502C126.515 32.2157 127.219 31.9517 132.165 30.2796C132.024 29.9276 131.813 29.3292 131.689 28.8715L126.603 30.438L125.916 31.0541L126.075 32.5502ZM129.841 27.481C130.721 28.9771 131.76 30.9661 132.2 32.1805L133.731 31.3533C133.256 30.1564 132.165 28.2203 131.267 26.7946L129.841 27.481ZM126.075 32.5502C126.075 31.8989 127.87 31.1773 127.87 31.1773V17.5892H126.18V29.6812C126.18 30.35 125.74 30.6844 125.388 30.8605C125.67 31.2653 125.969 32.0749 126.075 32.5502ZM138.976 17.7124V27.8507C138.976 28.0795 138.906 28.1323 138.677 28.1499C138.448 28.1675 137.691 28.1675 136.917 28.1323C137.128 28.5723 137.339 29.2587 137.392 29.7164C138.607 29.7164 139.416 29.6988 139.944 29.4348C140.472 29.1531 140.613 28.6955 140.613 27.8683V17.7124H138.976ZM134.594 17.7124V33.0254H136.248V19.2437H139.821V17.7124H134.594ZM142.444 25.8793L142.884 27.4986C144.538 27.0234 146.65 26.4074 148.657 25.7913L148.463 24.2952C146.281 24.8937 143.993 25.5273 142.444 25.8793ZM142.708 20.1238V21.6727H148.463V20.1238H142.708ZM145.013 16.6739V31.1949C145.013 31.4413 144.908 31.5293 144.679 31.5293C144.45 31.5293 143.729 31.5293 142.972 31.5117C143.183 31.9341 143.394 32.603 143.447 33.0078C144.644 33.0254 145.418 32.9726 145.929 32.7262C146.439 32.4798 146.615 32.0397 146.615 31.1949V16.6739H145.013ZM148.991 20.687V32.9726H150.575V22.2711H156.982V32.867H158.637V20.687H148.991ZM149.977 25.3161V26.8826H157.457V25.3161H149.977ZM150.012 30.1212V31.7229H157.493V30.1212H150.012ZM152.934 16.7091V31.0893H154.518V16.7091H152.934ZM160.326 27.9211V29.294H176.572V27.9211H160.326ZM171.222 26.8826C171.838 27.305 172.612 27.9387 172.982 28.3435L173.809 27.5162C173.404 27.1114 172.63 26.5306 172.014 26.1433L171.222 26.8826ZM166.399 22.3063V23.4328H176.291V22.3063H166.399ZM172.577 21.0742V24.8761C172.577 25.0521 172.524 25.1049 172.313 25.1225C172.102 25.1225 171.433 25.1225 170.711 25.0873C170.905 25.4745 171.098 25.9497 171.169 26.337C172.242 26.337 172.982 26.3546 173.51 26.1609C174.02 25.9497 174.161 25.6329 174.161 24.9289V21.0742H172.577ZM160.414 22.0071V23.3448H165.184V22.0071H160.414ZM164.252 16.7267V26.7418H165.765V16.7267H164.252ZM161.189 17.114V20.8278H165.114V19.5253H162.597V17.114H161.189ZM167.613 23.996C168.3 24.4536 169.092 25.1577 169.461 25.6505L170.535 24.7705C170.148 24.2776 169.321 23.6264 168.634 23.204L167.613 23.996ZM169.197 18.5749C170.042 19.2085 170.993 20.1238 171.415 20.7574L172.542 20.3526C172.049 19.6837 171.081 18.7685 170.253 18.1876L169.197 18.5749ZM174.355 17.5716V17.7828C173.052 19.9653 169.743 21.0214 166.346 21.391C166.575 21.6551 166.856 22.0775 166.997 22.3767C170.729 21.8663 174.214 20.7398 175.78 17.9764L174.918 17.5188L174.636 17.5716H174.355ZM171.151 16.6211C170.218 17.378 168.581 18.082 166.452 18.5749C166.716 18.7861 167.12 19.2261 167.297 19.5253C169.602 18.8565 171.31 18.0292 172.559 16.9203L171.151 16.6211ZM170.57 17.5716L169.303 18.5397H174.777V17.5716H170.57ZM161.559 22.5527V23.38C161.559 24.0664 161.365 25.3865 160.291 26.2314C160.678 26.3898 161.295 26.7242 161.576 26.953C162.791 25.9673 163.037 24.2952 163.037 23.4328V22.5527H161.559ZM167.525 26.2138V27.3226C167.525 28.6779 166.663 30.7196 160.203 31.7405C160.538 32.1101 160.942 32.7086 161.136 33.0958C168.212 31.9341 169.18 29.294 169.18 27.3754V26.2138H167.525ZM168.898 30.1388C171.151 30.9661 174.302 32.2333 175.851 33.0078L176.625 31.7053C174.988 30.9485 171.802 29.7692 169.637 29.0123L168.898 30.1388ZM166.874 19.7893L167.032 20.7046C167.895 20.6166 168.793 20.5462 169.778 20.4582L169.761 19.6133C168.652 19.6837 167.701 19.7541 166.874 19.7893Z" fill="#4C60A5"/>
</svg>
