<svg width="177" height="50" viewBox="0 0 177 50" fill="none" xmlns="http://www.w3.org/2000/svg">
<g clip-path="url(#clip0_51_3157)">
<ellipse cx="65.8386" cy="25" rx="25" ry="25" fill="#4C60A5"/>
<path d="M62.9321 31.8948L71.9575 25.0067L62.9321 18.105" stroke="white" stroke-width="1.01545" stroke-miterlimit="10"/>
<path d="M106.456 19.9301V21.6023H120.818V19.9301H106.456ZM105.681 30.6316V32.3037H121.558V30.6316H105.681ZM108.797 22.7639C109.43 25.0345 110.135 28.0619 110.381 30.0156L112.159 29.558C111.859 27.5866 111.155 24.6825 110.451 22.3591L108.797 22.7639ZM116.788 22.3943C116.225 25.0521 115.133 28.7483 114.165 30.9485L115.802 31.3357C116.753 29.1531 117.879 25.6505 118.653 22.7287L116.788 22.3943ZM112.176 16.9555C112.511 17.8708 112.88 19.0853 113.039 19.8597L114.764 19.3493C114.57 18.5925 114.183 17.4308 113.813 16.5331L112.176 16.9555ZM124.761 21.0214V22.5175H130.2V21.0214H124.761ZM124.726 17.5892V19.0853H129.584V24.5944H124.726V26.0905H131.256V17.5892H124.726ZM124.075 32.5502C124.515 32.2157 125.219 31.9517 130.165 30.2796C130.024 29.9276 129.813 29.3292 129.689 28.8715L124.603 30.438L123.916 31.0541L124.075 32.5502ZM127.841 27.481C128.721 28.9771 129.76 30.9661 130.2 32.1805L131.731 31.3533C131.256 30.1564 130.165 28.2203 129.267 26.7946L127.841 27.481ZM124.075 32.5502C124.075 31.8989 125.87 31.1773 125.87 31.1773V17.5892H124.18V29.6812C124.18 30.35 123.74 30.6844 123.388 30.8605C123.67 31.2653 123.969 32.0749 124.075 32.5502ZM136.976 17.7124V27.8507C136.976 28.0795 136.906 28.1323 136.677 28.1499C136.448 28.1675 135.691 28.1675 134.917 28.1323C135.128 28.5723 135.339 29.2587 135.392 29.7164C136.607 29.7164 137.416 29.6988 137.944 29.4348C138.472 29.1531 138.613 28.6955 138.613 27.8683V17.7124H136.976ZM132.594 17.7124V33.0254H134.248V19.2437H137.821V17.7124H132.594ZM140.444 25.8793L140.884 27.4986C142.538 27.0234 144.65 26.4074 146.657 25.7913L146.463 24.2952C144.281 24.8937 141.993 25.5273 140.444 25.8793ZM140.708 20.1238V21.6727H146.463V20.1238H140.708ZM143.013 16.6739V31.1949C143.013 31.4413 142.908 31.5293 142.679 31.5293C142.45 31.5293 141.729 31.5293 140.972 31.5117C141.183 31.9341 141.394 32.603 141.447 33.0078C142.644 33.0254 143.418 32.9726 143.929 32.7262C144.439 32.4798 144.615 32.0397 144.615 31.1949V16.6739H143.013ZM146.991 20.687V32.9726H148.575V22.2711H154.982V32.867H156.637V20.687H146.991ZM147.977 25.3161V26.8826H155.457V25.3161H147.977ZM148.012 30.1212V31.7229H155.493V30.1212H148.012ZM150.934 16.7091V31.0893H152.518V16.7091H150.934ZM158.326 27.9211V29.294H174.572V27.9211H158.326ZM169.222 26.8826C169.838 27.305 170.612 27.9387 170.982 28.3435L171.809 27.5162C171.404 27.1114 170.63 26.5306 170.014 26.1433L169.222 26.8826ZM164.399 22.3063V23.4328H174.291V22.3063H164.399ZM170.577 21.0742V24.8761C170.577 25.0521 170.524 25.1049 170.313 25.1225C170.102 25.1225 169.433 25.1225 168.711 25.0873C168.905 25.4745 169.098 25.9497 169.169 26.337C170.242 26.337 170.982 26.3546 171.51 26.1609C172.02 25.9497 172.161 25.6329 172.161 24.9289V21.0742H170.577ZM158.414 22.0071V23.3448H163.184V22.0071H158.414ZM162.252 16.7267V26.7418H163.765V16.7267H162.252ZM159.189 17.114V20.8278H163.114V19.5253H160.597V17.114H159.189ZM165.613 23.996C166.3 24.4536 167.092 25.1577 167.461 25.6505L168.535 24.7705C168.148 24.2776 167.321 23.6264 166.634 23.204L165.613 23.996ZM167.197 18.5749C168.042 19.2085 168.993 20.1238 169.415 20.7574L170.542 20.3526C170.049 19.6837 169.081 18.7685 168.253 18.1876L167.197 18.5749ZM172.355 17.5716V17.7828C171.052 19.9653 167.743 21.0214 164.346 21.391C164.575 21.6551 164.856 22.0775 164.997 22.3767C168.729 21.8663 172.214 20.7398 173.78 17.9764L172.918 17.5188L172.636 17.5716H172.355ZM169.151 16.6211C168.218 17.378 166.581 18.082 164.452 18.5749C164.716 18.7861 165.12 19.2261 165.297 19.5253C167.602 18.8565 169.31 18.0292 170.559 16.9203L169.151 16.6211ZM168.57 17.5716L167.303 18.5397H172.777V17.5716H168.57ZM159.559 22.5527V23.38C159.559 24.0664 159.365 25.3865 158.291 26.2314C158.678 26.3898 159.295 26.7242 159.576 26.953C160.791 25.9673 161.037 24.2952 161.037 23.4328V22.5527H159.559ZM165.525 26.2138V27.3226C165.525 28.6779 164.663 30.7196 158.203 31.7405C158.538 32.1101 158.942 32.7086 159.136 33.0958C166.212 31.9341 167.18 29.294 167.18 27.3754V26.2138H165.525ZM166.898 30.1388C169.151 30.9661 172.302 32.2333 173.851 33.0078L174.625 31.7053C172.988 30.9485 169.802 29.7692 167.637 29.0123L166.898 30.1388ZM164.874 19.7893L165.032 20.7046C165.895 20.6166 166.793 20.5462 167.778 20.4582L167.761 19.6133C166.652 19.6837 165.701 19.7541 164.874 19.7893Z" fill="#4C60A5"/>
</g>
<defs>
<clipPath id="clip0_51_3157">
<rect width="176.967" height="50" fill="white"/>
</clipPath>
</defs>
</svg>
