<svg width="76" height="40" viewBox="0 0 76 40" fill="none" xmlns="http://www.w3.org/2000/svg">
<g filter="url(#filter0_d_47_2715)">
<path d="M69.648 25.148C69.648 25.8471 69.369 26.5176 68.8724 27.012C68.3758 27.5063 67.7023 27.7841 67 27.7841H12.1865C11.6161 27.7841 11.069 28.01 10.6648 28.4123L6.91962 32.1408C6.57959 32.4793 6 32.2384 6 31.7586L6 6.6361C6 5.93696 6.27898 5.26646 6.77557 4.7721C7.27216 4.27773 7.94568 4 8.64796 4L67 4C67.7023 4 68.3758 4.27773 68.8724 4.7721C69.369 5.26646 69.648 5.93696 69.648 6.6361V25.148Z" fill="white"/>
<path d="M69.648 25.148C69.648 25.8471 69.369 26.5176 68.8724 27.012C68.3758 27.5063 67.7023 27.7841 67 27.7841H12.1865C11.6161 27.7841 11.069 28.01 10.6648 28.4123L6.91962 32.1408C6.57959 32.4793 6 32.2384 6 31.7586L6 6.6361C6 5.93696 6.27898 5.26646 6.77557 4.7721C7.27216 4.27773 7.94568 4 8.64796 4L67 4C67.7023 4 68.3758 4.27773 68.8724 4.7721C69.369 5.26646 69.648 5.93696 69.648 6.6361V25.148Z" stroke="#F9C270" stroke-linecap="round" stroke-linejoin="round"/>
</g>
<path d="M18.819 21.286V22.756H25.847V21.286H18.819ZM20.289 9.96C19.323 11.668 17.615 13.222 15.809 14.146C16.173 14.426 16.789 15.07 17.055 15.392C18.861 14.286 20.723 12.494 21.885 10.52L20.289 9.96ZM25.385 11.458V11.71C23.761 14.384 19.505 16.274 15.529 16.988C15.837 17.366 16.201 18.052 16.355 18.5C20.667 17.562 25.119 15.546 27.219 12.144L26.015 11.374L25.735 11.458H25.385ZM19.575 12.256L18.161 12.914C20.317 15.714 23.789 17.618 27.877 18.416C28.115 17.954 28.577 17.226 28.969 16.848C24.937 16.204 21.367 14.51 19.575 12.256ZM17.965 18.01V23.288H19.659V19.522H24.769V23.232H26.561V18.01H17.965ZM20.247 11.458L19.239 12.9H25.763V11.458H20.247ZM39.4277 9.17676V22H36.8965V12.0947L33.8555 13.0615V11.0664L39.1553 9.17676H39.4277ZM52.127 21.188V22.714H58.399V21.188H52.127ZM51.427 11.486V12.97H56.383V11.486H51.427ZM51.791 10.03C50.979 11.584 49.425 13.292 47.115 14.51C47.493 14.804 48.053 15.42 48.291 15.84C50.811 14.328 52.491 12.452 53.681 10.408L51.791 10.03ZM55.851 11.486V11.766C54.563 15.294 50.951 18.01 47.087 19.13C47.437 19.48 47.857 20.166 48.067 20.628C52.239 19.228 55.977 16.372 57.615 12.018L56.453 11.402L56.173 11.486H55.851ZM49.593 14.566C50.559 15.294 51.805 16.372 52.337 17.1L53.695 15.882C53.079 15.154 51.805 14.16 50.839 13.474L49.593 14.566ZM57.615 16.918V23.274H59.365V16.918H57.615ZM52.841 16.918H52.435L51.161 18.164V23.246H52.841V18.444H58.455V16.918H52.841Z" fill="#F9C270"/>
<defs>
<filter id="filter0_d_47_2715" x="0.5" y="0.5" width="74.6479" height="39.2998" filterUnits="userSpaceOnUse" color-interpolation-filters="sRGB">
<feFlood flood-opacity="0" result="BackgroundImageFix"/>
<feColorMatrix in="SourceAlpha" type="matrix" values="0 0 0 0 0 0 0 0 0 0 0 0 0 0 0 0 0 0 127 0" result="hardAlpha"/>
<feOffset dy="2"/>
<feGaussianBlur stdDeviation="2.5"/>
<feComposite in2="hardAlpha" operator="out"/>
<feColorMatrix type="matrix" values="0 0 0 0 0 0 0 0 0 0 0 0 0 0 0 0 0 0 0.15 0"/>
<feBlend mode="normal" in2="BackgroundImageFix" result="effect1_dropShadow_47_2715"/>
<feBlend mode="normal" in="SourceGraphic" in2="effect1_dropShadow_47_2715" result="shape"/>
</filter>
</defs>
</svg>
