<svg width="72" height="24" viewBox="0 0 72 24" fill="none" xmlns="http://www.w3.org/2000/svg">
<rect x="0.5" y="0.5" width="71" height="23" rx="2.5" fill="white" stroke="#C85551"/>
<path d="M15.624 10.628V13.808H17.028V10.628H15.624ZM14.328 7.736L13.692 9.02H18.036V7.736H14.328ZM17.628 7.736V8.024C17.292 8.696 16.464 9.728 15.756 10.34C15.984 10.544 16.368 10.928 16.572 11.192C17.472 10.484 18.48 9.332 19.176 8.348L18.252 7.664L17.976 7.736H17.628ZM11.988 10.148V15.692C11.988 17.432 12.672 17.852 14.916 17.852C15.432 17.852 18.48 17.852 19.044 17.852C21.06 17.852 21.564 17.288 21.828 15.296C21.42 15.224 20.82 15.008 20.472 14.792C20.316 16.28 20.124 16.556 18.972 16.556C18.252 16.556 15.516 16.556 14.892 16.556C13.584 16.556 13.38 16.424 13.38 15.692V10.148H11.988ZM14.196 6.716C13.38 8.216 11.928 9.608 10.512 10.46C10.752 10.784 11.148 11.504 11.268 11.828C12.864 10.748 14.508 9.008 15.504 7.22L14.196 6.716ZM13.128 10.148V11.48H19.212V14.684H20.628V10.148H13.128ZM13.128 12.908V14.276H19.872V12.908H13.128ZM24.024 12.32V13.616H30.144V12.32H24.024ZM26.52 11.252V18.044H27.924V11.252H26.52ZM26.532 12.836C25.932 14.048 24.708 15.416 23.592 16.1C23.892 16.424 24.264 17 24.456 17.384C25.632 16.472 26.928 14.888 27.636 13.508L26.532 12.836ZM29.532 6.92C28.056 7.316 25.776 7.628 23.76 7.808C23.916 8.12 24.096 8.648 24.132 8.984C26.184 8.852 28.596 8.576 30.384 8.132L29.532 6.92ZM24 9.728C24.444 10.292 24.864 11.084 25.02 11.612L26.136 11.072C25.956 10.544 25.524 9.8 25.068 9.248L24 9.728ZM26.16 9.284C26.496 9.848 26.808 10.604 26.916 11.12L28.092 10.7C27.96 10.208 27.624 9.476 27.276 8.936L26.16 9.284ZM29.016 8.948C28.812 9.644 28.428 10.604 28.092 11.24L29.196 11.564C29.556 11 30.024 10.112 30.42 9.296L29.016 8.948ZM33.216 7.004C32.592 7.928 31.344 8.864 30.3 9.404C30.684 9.692 31.116 10.148 31.368 10.484C32.556 9.776 33.804 8.744 34.668 7.58L33.216 7.004ZM33.468 10.304C32.784 11.252 31.464 12.2 30.384 12.752C30.768 13.028 31.212 13.496 31.452 13.82C32.664 13.112 33.972 12.056 34.872 10.892L33.468 10.304ZM33.732 13.628C32.916 15.044 31.32 16.184 29.712 16.832C30.096 17.168 30.516 17.684 30.744 18.08C32.532 17.204 34.14 15.908 35.184 14.192L33.732 13.628ZM27.276 14.156C28.068 14.792 28.908 15.74 29.292 16.376L30.24 15.428C29.844 14.804 28.992 13.94 28.164 13.328L27.276 14.156ZM43.248 11.156V16.052C43.248 17.516 43.656 17.936 44.964 17.936C45.228 17.936 46.26 17.936 46.548 17.936C47.76 17.936 48.132 17.312 48.276 15.272C47.892 15.188 47.292 14.948 46.992 14.708C46.932 16.304 46.848 16.592 46.416 16.592C46.188 16.592 45.372 16.592 45.18 16.592C44.736 16.592 44.676 16.52 44.676 16.04V11.156H43.248ZM37.272 9.644V18.056H38.376V10.832H41.616V17.888H42.768V9.644H37.272ZM38.724 14.3V15.38H41.28V14.3H38.724ZM37.752 16.16V17.264H41.808V16.16H37.752ZM37.104 7.268V8.468H42.852V7.268H37.104ZM38.616 7.664V10.58H39.72V7.664H38.616ZM40.224 7.652V10.58H41.352V7.652H40.224ZM38.964 10.568V11.708C38.964 12.236 38.892 12.848 38.328 13.352C38.508 13.448 38.832 13.736 38.964 13.88C39.624 13.292 39.756 12.416 39.756 11.72V10.568H38.964ZM40.308 10.556V12.404C40.308 13.22 40.476 13.436 41.112 13.436C41.22 13.436 41.472 13.436 41.592 13.436C42.024 13.436 42.264 13.28 42.372 12.86C42.108 12.8 41.784 12.668 41.64 12.536C41.616 12.572 41.58 12.584 41.46 12.584C41.412 12.584 41.268 12.584 41.22 12.584C41.124 12.584 41.1 12.572 41.1 12.392V10.556H40.308ZM43.212 7.364V8.732H46.416V11.156H43.428V12.524H47.796V7.364H43.212ZM55.224 10.628V13.808H56.628V10.628H55.224ZM53.928 7.736L53.292 9.02H57.636V7.736H53.928ZM57.228 7.736V8.024C56.892 8.696 56.064 9.728 55.356 10.34C55.584 10.544 55.968 10.928 56.172 11.192C57.072 10.484 58.08 9.332 58.776 8.348L57.852 7.664L57.576 7.736H57.228ZM51.588 10.148V15.692C51.588 17.432 52.272 17.852 54.516 17.852C55.032 17.852 58.08 17.852 58.644 17.852C60.66 17.852 61.164 17.288 61.428 15.296C61.02 15.224 60.42 15.008 60.072 14.792C59.916 16.28 59.724 16.556 58.572 16.556C57.852 16.556 55.116 16.556 54.492 16.556C53.184 16.556 52.98 16.424 52.98 15.692V10.148H51.588ZM53.796 6.716C52.98 8.216 51.528 9.608 50.112 10.46C50.352 10.784 50.748 11.504 50.868 11.828C52.464 10.748 54.108 9.008 55.104 7.22L53.796 6.716ZM52.728 10.148V11.48H58.812V14.684H60.228V10.148H52.728ZM52.728 12.908V14.276H59.472V12.908H52.728Z" fill="#C85551"/>
</svg>
