<svg width="72" height="24" viewBox="0 0 72 24" fill="none" xmlns="http://www.w3.org/2000/svg">
<rect x="0.5" y="0.5" width="71" height="23" rx="2.5" fill="white" stroke="#C85551"/>
<path d="M17.868 9.032V10.292H21.828V9.032H17.868ZM18.132 6.8C17.796 8.876 17.232 11.012 16.452 12.356C16.716 12.56 17.184 13.028 17.376 13.268C18.228 11.708 18.912 9.308 19.32 7.028L18.132 6.8ZM19.836 9.848C19.536 13.544 18.588 15.848 15.876 17.06C16.104 17.312 16.452 17.852 16.572 18.128C19.524 16.628 20.64 14.084 21.06 9.944L19.836 9.848ZM18.552 10.196L17.544 10.34C18.036 13.82 18.912 16.64 21.072 18.056C21.264 17.696 21.684 17.18 21.972 16.94C19.92 15.8 18.984 13.196 18.552 10.196ZM13.356 6.812V13.22H14.436V6.812H13.356ZM12.492 8.432H15.372V10.208H12.492V8.432ZM11.412 7.532V11.12H16.5V7.532H11.412ZM12.396 12.272H15.42V12.8H12.396V12.272ZM11.208 11.468V13.616H16.668V11.468H11.208ZM10.572 8.78V9.8H11.772V9.728H15.792V9.8H17.136V8.78H15.792V8.852H11.772V8.78H10.572ZM11.316 16.04L12.468 16.304C13.02 15.572 13.764 14.432 14.244 13.4L13.104 13.148C12.684 14.108 11.928 15.284 11.316 16.04ZM11.316 16.04C12.876 16.412 14.76 17.144 15.804 17.732L16.704 16.928C15.6 16.364 13.752 15.656 12.228 15.296L11.316 16.04ZM14.94 13.796V14.348C14.94 15.236 14.508 16.52 10.452 17.144C10.656 17.372 10.92 17.804 11.016 18.068C15.48 17.324 16.068 15.656 16.068 14.396V13.796H14.94ZM10.704 14.144V15.104H17.064V14.144H10.704ZM26.856 9.008H31.848V9.416H26.856V9.008ZM26.856 7.916H31.848V8.312H26.856V7.916ZM25.464 7.184V10.148H33.3V7.184H25.464ZM26.604 13.796H32.172V14.228H26.604V13.796ZM26.604 12.668H32.172V13.088H26.604V12.668ZM25.248 11.9V14.984H33.588V11.9H25.248ZM28.68 12.152V17.3H30.084V12.152H28.68ZM23.94 10.52V11.54H34.872V10.52H23.94ZM25.008 15.38V16.304H33.816V15.38H25.008ZM23.916 16.736V17.792H34.896V16.736H23.916ZM37.248 8.264V9.608H47.952V8.264H37.248ZM40.296 12.584V13.784H45.672V12.584H40.296ZM45.204 10.556V16.496C45.204 16.664 45.132 16.724 44.94 16.724C44.736 16.724 44.028 16.736 43.404 16.7C43.596 17.072 43.788 17.684 43.848 18.08C44.82 18.08 45.504 18.068 45.984 17.852C46.476 17.624 46.608 17.228 46.608 16.52V10.556H45.204ZM40.968 6.8C40.38 9.068 39.048 11.6 36.972 12.968C37.26 13.244 37.716 13.76 37.932 14.084C40.2 12.488 41.628 9.788 42.456 7.136L40.968 6.8ZM40.26 14.564V15.764H45.672V14.564H40.26ZM40.212 10.556V11.828H45.528V10.556H40.212ZM39.42 10.556V13.748C39.42 14.876 39.336 16.16 38.292 17.06C38.58 17.264 39.144 17.876 39.336 18.176C40.632 17.084 40.872 15.212 40.872 13.772V10.556H39.42ZM50.712 7.28V18.044H51.972V8.564H53.592V7.28H50.712ZM53.34 7.28V7.688C53.172 8.432 52.8 10.004 52.452 11.06C53.148 11.9 53.292 12.692 53.292 13.268C53.292 13.616 53.22 13.88 53.088 13.988C52.992 14.048 52.872 14.072 52.764 14.084C52.608 14.096 52.44 14.084 52.236 14.072C52.428 14.42 52.548 14.96 52.548 15.308C52.824 15.308 53.112 15.308 53.328 15.272C53.592 15.236 53.832 15.152 54.012 15.008C54.396 14.72 54.552 14.204 54.552 13.424C54.552 12.716 54.408 11.864 53.676 10.916C54.024 9.98 54.408 8.78 54.72 7.76L53.784 7.232L53.58 7.28H53.34ZM55.74 7.292V8.528H59.136V11.588H55.74V12.824H60.528V7.292H55.74ZM55.848 9.464V10.628H59.916V9.464H55.848ZM58.248 12.092L57.084 12.308C57.636 14.924 58.608 16.976 60.528 18.032C60.744 17.648 61.176 17.072 61.5 16.796C59.724 15.992 58.716 14.216 58.248 12.092ZM60.3 12.944C59.82 13.46 58.98 14.144 58.404 14.516L59.16 15.404C59.76 15.056 60.564 14.48 61.236 13.964L60.3 12.944ZM55.128 18.116C55.404 17.924 55.86 17.756 58.224 17.156C58.176 16.844 58.152 16.256 58.164 15.848L55.584 16.412L54.996 16.868L55.128 18.116ZM55.128 18.116C55.128 17.6 56.472 16.808 56.472 16.808V7.292H55.068V15.944C55.068 16.496 54.756 16.832 54.516 16.988C54.72 17.228 55.02 17.792 55.128 18.116Z" fill="#C85551"/>
</svg>
