<svg width="59" height="41" viewBox="0 0 59 41" fill="none" xmlns="http://www.w3.org/2000/svg">
<g filter="url(#filter0_d_47_2712)">
<path d="M52.648 25.148C52.648 25.8471 52.369 26.5176 51.8724 27.012C51.3758 27.5063 50.7023 27.7841 50 27.7841H12.1865C11.6161 27.7841 11.069 28.01 10.6648 28.4123L6.91962 32.1408C6.57959 32.4793 6 32.2384 6 31.7586L6 6.6361C6 5.93696 6.27898 5.26646 6.77557 4.7721C7.27216 4.27773 7.94568 4 8.64796 4L50 4C50.7023 4 51.3758 4.27773 51.8724 4.7721C52.369 5.26646 52.648 5.93696 52.648 6.6361V25.148Z" fill="white"/>
<path d="M52.648 25.148C52.648 25.8471 52.369 26.5176 51.8724 27.012C51.3758 27.5063 50.7023 27.7841 50 27.7841H12.1865C11.6161 27.7841 11.069 28.01 10.6648 28.4123L6.91962 32.1408C6.57959 32.4793 6 32.2384 6 31.7586L6 6.6361C6 5.93696 6.27898 5.26646 6.77557 4.7721C7.27216 4.27773 7.94568 4 8.64796 4L50 4C50.7023 4 51.3758 4.27773 51.8724 4.7721C52.369 5.26646 52.648 5.93696 52.648 6.6361V25.148Z" stroke="#F9C270" stroke-width="1.5" stroke-linecap="round" stroke-linejoin="round"/>
</g>
<path d="M21.7021 9.07129H22.0713V11.0928H21.9219C21.2539 11.0928 20.6592 11.1924 20.1377 11.3916C19.6162 11.5908 19.1738 11.875 18.8105 12.2441C18.4531 12.6074 18.1777 13.0469 17.9844 13.5625C17.7969 14.0781 17.7031 14.6553 17.7031 15.2939V17.4209C17.7031 17.8779 17.7471 18.2822 17.835 18.6338C17.9287 18.9795 18.0605 19.2695 18.2305 19.5039C18.4062 19.7324 18.6113 19.9053 18.8457 20.0225C19.0801 20.1338 19.3438 20.1895 19.6367 20.1895C19.9121 20.1895 20.1611 20.1309 20.3838 20.0137C20.6123 19.8965 20.8057 19.7324 20.9639 19.5215C21.1279 19.3047 21.251 19.0527 21.333 18.7656C21.4209 18.4727 21.4648 18.1533 21.4648 17.8076C21.4648 17.4619 21.4209 17.1426 21.333 16.8496C21.251 16.5566 21.1279 16.3047 20.9639 16.0938C20.7998 15.877 20.6006 15.71 20.3662 15.5928C20.1318 15.4756 19.8682 15.417 19.5752 15.417C19.1768 15.417 18.8252 15.5107 18.5205 15.6982C18.2217 15.8799 17.9873 16.1143 17.8174 16.4014C17.6475 16.6885 17.5566 16.9902 17.5449 17.3066L16.7803 16.8145C16.7979 16.3633 16.8916 15.9355 17.0615 15.5312C17.2373 15.127 17.4775 14.7695 17.7822 14.459C18.0928 14.1426 18.4648 13.8965 18.8984 13.7207C19.332 13.5391 19.8213 13.4482 20.3662 13.4482C20.9639 13.4482 21.4883 13.5625 21.9395 13.791C22.3965 14.0195 22.7773 14.333 23.082 14.7314C23.3867 15.1299 23.6152 15.5898 23.7676 16.1113C23.9199 16.6328 23.9961 17.1895 23.9961 17.7812C23.9961 18.4023 23.8936 18.9795 23.6885 19.5127C23.4893 20.0459 23.1992 20.5117 22.8184 20.9102C22.4434 21.3086 21.9922 21.6191 21.4648 21.8418C20.9375 22.0645 20.3457 22.1758 19.6895 22.1758C19.0098 22.1758 18.3916 22.0527 17.835 21.8066C17.2842 21.5547 16.8096 21.2031 16.4111 20.752C16.0127 20.3008 15.7051 19.7646 15.4883 19.1436C15.2773 18.5225 15.1719 17.8428 15.1719 17.1045V16.1201C15.1719 15.0889 15.3213 14.1455 15.6201 13.29C15.9248 12.4287 16.3613 11.6846 16.9297 11.0576C17.498 10.4248 18.1836 9.93555 18.9863 9.58984C19.7891 9.24414 20.6943 9.07129 21.7021 9.07129ZM34.041 21.188V22.714H40.313V21.188H34.041ZM33.341 11.486V12.97H38.297V11.486H33.341ZM33.705 10.03C32.893 11.584 31.339 13.292 29.029 14.51C29.407 14.804 29.967 15.42 30.205 15.84C32.725 14.328 34.405 12.452 35.595 10.408L33.705 10.03ZM37.765 11.486V11.766C36.477 15.294 32.865 18.01 29.001 19.13C29.351 19.48 29.771 20.166 29.981 20.628C34.153 19.228 37.891 16.372 39.529 12.018L38.367 11.402L38.087 11.486H37.765ZM31.507 14.566C32.473 15.294 33.719 16.372 34.251 17.1L35.609 15.882C34.993 15.154 33.719 14.16 32.753 13.474L31.507 14.566ZM39.529 16.918V23.274H41.279V16.918H39.529ZM34.755 16.918H34.349L33.075 18.164V23.246H34.755V18.444H40.369V16.918H34.755Z" fill="#F9C270"/>
<defs>
<filter id="filter0_d_47_2712" x="0.25" y="0.25" width="58.1479" height="39.8003" filterUnits="userSpaceOnUse" color-interpolation-filters="sRGB">
<feFlood flood-opacity="0" result="BackgroundImageFix"/>
<feColorMatrix in="SourceAlpha" type="matrix" values="0 0 0 0 0 0 0 0 0 0 0 0 0 0 0 0 0 0 127 0" result="hardAlpha"/>
<feOffset dy="2"/>
<feGaussianBlur stdDeviation="2.5"/>
<feComposite in2="hardAlpha" operator="out"/>
<feColorMatrix type="matrix" values="0 0 0 0 0 0 0 0 0 0 0 0 0 0 0 0 0 0 0.15 0"/>
<feBlend mode="normal" in2="BackgroundImageFix" result="effect1_dropShadow_47_2712"/>
<feBlend mode="normal" in="SourceGraphic" in2="effect1_dropShadow_47_2712" result="shape"/>
</filter>
</defs>
</svg>
