<svg width="112" height="40" viewBox="0 0 112 40" fill="none" xmlns="http://www.w3.org/2000/svg">
<path d="M100.24 22.3678C100.632 22.0498 101.133 21.8594 101.676 21.8594C102.936 21.8594 103.961 22.8839 103.961 24.1445C103.961 25.4052 102.936 26.4297 101.676 26.4297C100.415 26.4297 99.3906 25.4052 99.3906 24.1445C99.3906 23.9255 99.4211 23.7123 99.4801 23.5104L95.7325 20.7968C95.1764 21.5337 94.2928 22.0117 93.2969 22.0117C91.6135 22.0117 90.25 20.6482 90.25 18.9648C90.25 17.2814 91.6135 15.918 93.2969 15.918C94.2928 15.918 95.1764 16.3959 95.7325 17.1329L99.4801 14.4193C99.4211 14.2174 99.3906 14.0061 99.3906 13.7852C99.3906 12.5245 100.415 11.5 101.676 11.5C102.936 11.5 103.961 12.5245 103.961 13.7852C103.961 15.0458 102.936 16.0703 101.676 16.0703C101.133 16.0703 100.632 15.8799 100.24 15.5619L96.2942 18.4164C96.3603 18.779 96.3603 19.1506 96.2942 19.5133L100.24 22.3678Z" fill="#F9C270"/>
<g filter="url(#filter0_d_14_457)">
<rect x="5" y="4" width="72" height="30" rx="15" fill="white"/>
</g>
<path d="M62.3928 12.3575C60.6543 10.9449 58.3724 10.1843 56.1993 10.1843C53.9175 10.1843 51.7443 10.9449 50.0058 12.3575C48.2672 13.6614 47.2893 15.5086 47.2893 17.5731C47.2893 19.4203 48.1586 21.2675 49.5711 22.5714C51.0923 23.8753 52.9395 24.6359 54.8954 24.7445V27.7869C54.8954 28.0043 55.1127 28.1129 55.2214 28.1129C55.33 28.1129 55.33 28.1129 55.4387 28.0043L60.9802 23.7666C62.0668 23.006 63.0447 22.0281 63.8053 21.0501C64.566 20.0722 65.0006 18.877 65.0006 17.5731C65.0006 15.5086 64.0227 13.6614 62.3928 12.3575Z" fill="#6EAF04"/>
<path d="M58.5892 15.4C58.5892 15.074 58.3719 14.8567 58.1546 14.8567C57.9373 14.8567 57.72 15.074 57.72 15.4C57.72 16.0519 57.72 16.5952 57.72 17.2472C57.72 17.3558 57.72 17.4645 57.72 17.5731C57.6113 17.4645 57.6113 17.3558 57.5026 17.3558C56.9594 16.5952 56.4161 15.9433 55.8728 15.1827C55.7641 14.9653 55.5468 14.8567 55.3295 14.9653C55.1122 14.9653 54.8949 15.1827 55.0035 15.4C55.0035 16.5952 55.0035 17.6818 55.0035 18.877C55.0035 19.0944 55.1122 19.203 55.2208 19.3117C55.5468 19.4203 55.8728 19.203 55.8728 18.7684C55.8728 18.2251 55.8728 17.6818 55.8728 17.0299V16.8125C55.9814 16.8125 55.9814 16.9212 56.0901 17.0299C56.6334 17.7905 57.1767 18.4424 57.72 19.203C57.8286 19.4203 58.0459 19.529 58.2633 19.4203C58.4806 19.3117 58.5892 19.0944 58.5892 18.877C58.5892 17.6818 58.5892 16.5952 58.5892 15.4Z" fill="white"/>
<path d="M60.3285 15.8346C60.4372 15.8346 60.5458 15.8346 60.6545 15.8346C60.9804 15.8346 61.3064 15.8346 61.6324 15.8346C61.741 15.8346 61.8497 15.8346 61.9584 15.726C62.1757 15.6173 62.2843 15.4 62.1757 15.1827C62.1757 14.9653 61.9584 14.8567 61.741 14.8567C61.1978 14.8567 60.5458 14.8567 60.0025 14.8567C59.5679 14.8567 59.4592 15.074 59.4592 15.4C59.4592 16.4866 59.4592 17.5731 59.4592 18.6597C59.4592 19.0944 59.6765 19.203 60.0025 19.203C60.5458 19.203 61.0891 19.203 61.6324 19.203C61.741 19.203 61.8497 19.203 61.8497 19.203C62.067 19.0944 62.1757 18.877 62.1757 18.6597C62.1757 18.5511 62.067 18.4424 61.9584 18.3337C61.8497 18.3337 61.741 18.3337 61.6324 18.3337C61.1978 18.3337 60.7631 18.3337 60.4372 18.3337V17.6818C60.5458 17.6818 60.5458 17.6818 60.6545 17.6818C61.0891 17.6818 61.4151 17.6818 61.8497 17.6818C62.1757 17.6818 62.393 17.4645 62.393 17.2472C62.393 17.0299 62.1757 16.8125 61.8497 16.8125C61.6324 16.8125 61.4151 16.8125 61.1978 16.8125C60.2198 16.7039 60.2198 16.7039 60.3285 15.8346C60.3285 15.8346 60.3285 15.9433 60.3285 15.8346Z" fill="white"/>
<path d="M52.3956 18.551C52.2869 18.551 52.1783 18.551 52.1783 18.551H50.9831V18.1164C50.9831 17.2472 50.9831 16.3779 50.9831 15.5086C50.9831 15.1826 50.7657 14.9653 50.5484 14.9653C50.3311 14.9653 50.0051 15.1826 50.0051 15.5086C50.0051 16.5952 50.0051 17.7904 50.0051 18.877C50.0051 19.0943 50.1138 19.4203 50.4398 19.4203H50.5484C50.8744 19.4203 52.0696 19.4203 52.3956 19.4203C52.6129 19.4203 52.8302 19.203 52.8302 18.9857C52.8302 18.7684 52.6129 18.551 52.3956 18.551Z" fill="white"/>
<path d="M54.2435 15.4C54.2435 15.074 54.1349 14.9653 53.8089 14.9653C53.4829 14.9653 53.3743 15.074 53.3743 15.4C53.3743 16.5952 53.3743 17.7904 53.3743 18.9857C53.3743 19.3117 53.4829 19.4203 53.8089 19.4203C54.1349 19.4203 54.2435 19.3117 54.2435 18.9857C54.2435 18.4424 54.2435 17.7904 54.2435 17.2472C54.2435 16.7039 54.2435 15.9433 54.2435 15.4Z" fill="white"/>
<path d="M26 28C30.9706 28 35 23.9706 35 19C35 14.0294 30.9706 10 26 10C21.0294 10 17 14.0294 17 19C17 23.9706 21.0294 28 26 28Z" fill="#00658F"/>
<path fill-rule="evenodd" clip-rule="evenodd" d="M28.2506 14.3578H26.7921C25.5086 14.3578 24.4585 15.4662 24.4585 16.7497V18.1499H23V20.0751H24.4002V23.8672H26.3254V20.0751H27.7255L28.2506 18.2082H26.3254V16.7497C26.3254 16.5164 26.5587 16.283 26.7921 16.283H28.2506V14.3578Z" fill="white"/>
<defs>
<filter id="filter0_d_14_457" x="0" y="0" width="82" height="40" filterUnits="userSpaceOnUse" color-interpolation-filters="sRGB">
<feFlood flood-opacity="0" result="BackgroundImageFix"/>
<feColorMatrix in="SourceAlpha" type="matrix" values="0 0 0 0 0 0 0 0 0 0 0 0 0 0 0 0 0 0 127 0" result="hardAlpha"/>
<feOffset dy="1"/>
<feGaussianBlur stdDeviation="2.5"/>
<feComposite in2="hardAlpha" operator="out"/>
<feColorMatrix type="matrix" values="0 0 0 0 0 0 0 0 0 0 0 0 0 0 0 0 0 0 0.25 0"/>
<feBlend mode="normal" in2="BackgroundImageFix" result="effect1_dropShadow_14_457"/>
<feBlend mode="normal" in="SourceGraphic" in2="effect1_dropShadow_14_457" result="shape"/>
</filter>
</defs>
</svg>
