<svg width="86" height="30" viewBox="0 0 86 30" fill="none" xmlns="http://www.w3.org/2000/svg">
<path d="M78.9054 10.815C78.8163 10.4591 78.6349 10.1329 78.3794 9.86955C78.1239 9.60618 77.8035 9.41489 77.4504 9.315C76.1604 9 71.0004 9 71.0004 9C71.0004 9 65.8404 9 64.5504 9.345C64.1974 9.44489 63.8769 9.63618 63.6214 9.89955C63.366 10.1629 63.1845 10.4891 63.0954 10.845C62.8593 12.1542 62.7439 13.4822 62.7504 14.8125C62.742 16.1528 62.8575 17.491 63.0954 18.81C63.1936 19.1549 63.3792 19.4686 63.634 19.7209C63.8889 19.9731 64.2045 20.1554 64.5504 20.25C65.8404 20.595 71.0004 20.595 71.0004 20.595C71.0004 20.595 76.1604 20.595 77.4504 20.25C77.8035 20.1501 78.1239 19.9588 78.3794 19.6954C78.6349 19.4321 78.8163 19.1059 78.9054 18.75C79.1397 17.4507 79.2552 16.1328 79.2504 14.8125C79.2588 13.4722 79.1434 12.134 78.9054 10.815Z" fill="#F9C270"/>
<path d="M69.3125 16.4054C69.3125 16.7889 69.7264 17.0296 70.0597 16.8401L72.8607 15.2471C73.1978 15.0554 73.1978 14.5696 72.8607 14.3779L70.0597 12.7849C69.7264 12.5953 69.3125 12.8361 69.3125 13.2195V16.4054Z" fill="white"/>
<path d="M0 9C0 6.79086 1.79086 5 4 5H55C57.2091 5 59 6.79086 59 9V20C59 22.2091 57.2091 24 55 24H4C1.79086 24 0 22.2091 0 20V9Z" fill="#F9C270"/>
<path d="M6.524 15.772V16.672H10.16V15.772H6.524ZM6.524 17.164V18.064H10.244V17.164H6.524ZM6.296 18.604V19.576H10.34V18.604H6.296ZM7.796 15.016V18.856H8.9V15.016H7.796ZM5.936 11.98H6.692V12.832H5.936V11.98ZM5.156 11.248V13.552H7.52V11.248H5.156ZM8.756 11.98H9.5V12.796H8.756V11.98ZM7.976 11.236V13.54H10.316V11.236H7.976ZM6.716 14.356H6.596L5.696 15.496V20.08H6.716V15.316H10.4V14.356H6.716ZM6.188 13.42C5.852 14.356 5.276 15.28 4.688 15.916C4.856 16.156 5.156 16.696 5.252 16.912C5.936 16.12 6.644 14.884 7.088 13.744L6.188 13.42ZM7.616 13.828C7.796 14.164 7.976 14.62 8.024 14.92L8.948 14.524C8.9 14.224 8.696 13.792 8.492 13.48L7.616 13.828ZM4.76 9.424V10.444H6.788V9.424H4.76ZM6.284 8.824V11.056H7.4V8.824H6.284ZM8.12 8.824V11.056H9.26V8.824H8.12ZM8.576 9.412V10.432H10.592V9.412H8.576ZM12.008 12.328H14.156V13.024H12.008V12.328ZM12.008 14.164H14.156V14.872H12.008V14.164ZM12.008 10.48H14.156V11.176H12.008V10.48ZM10.808 9.208V16.144H15.416V9.208H10.808ZM13.292 15.676V18.508C13.292 19.588 13.472 19.96 14.348 19.96C14.516 19.96 14.768 19.96 14.936 19.96C15.644 19.96 15.944 19.528 16.016 17.764C15.728 17.668 15.224 17.488 15.032 17.296C15.008 18.688 14.972 18.82 14.792 18.82C14.744 18.82 14.588 18.82 14.528 18.82C14.396 18.82 14.384 18.784 14.384 18.496V15.676H13.292ZM11.648 15.7C11.564 17.152 11.312 18.34 9.932 19.036C10.208 19.264 10.568 19.768 10.724 20.092C12.368 19.156 12.728 17.608 12.848 15.7H11.648ZM20.636 14.116V20.116H22.016V15.208H26.36V20.116H27.812V14.116H20.636ZM18.248 12.484V13.612H28.94V12.484H18.248ZM19.088 10.876V11.968H28.28V10.876H19.088ZM21.572 15.712V16.624H26.948V15.712H21.572ZM21.572 17.14V18.04H26.948V17.14H21.572ZM21.404 18.592V19.684H26.948V18.592H21.404ZM27.404 8.848C25.376 9.184 21.896 9.328 18.956 9.328C19.076 9.616 19.208 10.096 19.232 10.408C22.208 10.432 25.784 10.288 28.244 9.88L27.404 8.848ZM22.292 9.844C21.728 12.436 20.408 15.076 17.864 16.444C18.152 16.72 18.572 17.26 18.764 17.584C21.536 15.988 22.976 13.132 23.792 10.144L22.292 9.844ZM32.768 13.912V14.932H35.78V13.912H32.768ZM32.552 12.208V13.288H35.348V15.448H32.54V16.528H36.704V12.208H32.552ZM34.364 17.08C34.916 17.92 35.624 19.06 35.936 19.78L37.136 19.156C36.776 18.46 36.092 17.392 35.492 16.564L34.364 17.08ZM37.34 12.208V20.032H38.684V13.516H41.216V12.208H37.34ZM40.544 12.208V17.164C40.544 17.32 40.496 17.368 40.316 17.368C40.148 17.38 39.536 17.38 38.996 17.356C39.176 17.716 39.356 18.292 39.416 18.676C40.292 18.676 40.904 18.664 41.348 18.448C41.804 18.232 41.924 17.86 41.924 17.2V12.208H40.544ZM32.096 19.852C32.384 19.672 32.876 19.54 35.792 18.82C35.78 18.508 35.792 17.932 35.864 17.548L32.552 18.292L31.976 18.724L32.096 19.852ZM32.096 19.852C32.096 19.372 33.284 18.58 33.284 18.58V12.208H31.964V17.668C31.964 18.22 31.688 18.568 31.46 18.736C31.676 18.976 32 19.54 32.096 19.852ZM32.972 9.52V10.732H36.728V9.52H32.972ZM37.808 9.52V10.732H42.308V9.52H37.808ZM32.972 8.716C32.576 9.7 31.88 10.708 31.136 11.332C31.424 11.62 31.904 12.28 32.096 12.568C32.972 11.752 33.848 10.42 34.376 9.136L32.972 8.716ZM37.856 8.716C37.556 9.832 36.98 10.948 36.284 11.644C36.596 11.896 37.16 12.424 37.4 12.7C38.18 11.836 38.9 10.456 39.32 9.088L37.856 8.716ZM33.632 11.308C34.016 11.644 34.484 12.148 34.7 12.472L35.756 11.584C35.516 11.272 35.024 10.816 34.64 10.504L33.632 11.308ZM38.972 11.224C39.356 11.56 39.824 12.052 40.028 12.376L41.048 11.488C40.82 11.176 40.328 10.72 39.944 10.42L38.972 11.224ZM46.724 12.244V13.6H53.24V12.244H46.724ZM46.724 15.028V16.384H53.24V15.028H46.724ZM46.724 17.8V19.204H53.24V17.8H46.724ZM45.68 9.46V19.948H47.132V10.876H52.712V19.948H54.236V9.46H45.68Z" fill="white"/>
</svg>
