<svg width="131" height="37" viewBox="0 0 131 37" fill="none" xmlns="http://www.w3.org/2000/svg">
<circle cx="49.365" cy="18.365" r="18.115" stroke="#735795" stroke-width="0.5"/>
<path d="M47.23 23.43L53.86 18.37L47.23 13.3" stroke="#735795" stroke-width="0.75" stroke-miterlimit="10"/>
<line x1="54" y1="18.375" x2="-3.27835e-08" y2="18.375" stroke="#735795" stroke-width="0.75"/>
<path d="M79.209 14.433V15.668H89.817V14.433H79.209ZM78.637 22.337V23.572H90.363V22.337H78.637ZM80.938 16.526C81.406 18.203 81.926 20.439 82.108 21.882L83.421 21.544C83.2 20.088 82.68 17.943 82.16 16.227L80.938 16.526ZM86.84 16.253C86.424 18.216 85.618 20.946 84.903 22.571L86.112 22.857C86.814 21.245 87.646 18.658 88.218 16.5L86.84 16.253ZM83.434 12.236C83.681 12.912 83.954 13.809 84.071 14.381L85.345 14.004C85.202 13.445 84.916 12.587 84.643 11.924L83.434 12.236ZM92.729 15.239V16.344H96.746V15.239H92.729ZM92.703 12.704V13.809H96.291V17.878H92.703V18.983H97.526V12.704H92.703ZM92.222 23.754C92.547 23.507 93.067 23.312 96.72 22.077C96.616 21.817 96.46 21.375 96.369 21.037L92.612 22.194L92.105 22.649L92.222 23.754ZM95.004 20.01C95.654 21.115 96.421 22.584 96.746 23.481L97.877 22.87C97.526 21.986 96.72 20.556 96.057 19.503L95.004 20.01ZM92.222 23.754C92.222 23.273 93.548 22.74 93.548 22.74V12.704H92.3V21.635C92.3 22.129 91.975 22.376 91.715 22.506C91.923 22.805 92.144 23.403 92.222 23.754ZM101.751 12.795V20.283C101.751 20.452 101.699 20.491 101.53 20.504C101.361 20.517 100.802 20.517 100.23 20.491C100.386 20.816 100.542 21.323 100.581 21.661C101.478 21.661 102.076 21.648 102.466 21.453C102.856 21.245 102.96 20.907 102.96 20.296V12.795H101.751ZM98.514 12.795V24.105H99.736V13.926H102.375V12.795H98.514ZM111.28 17.059V18.047H115.414V17.059H111.28ZM110.695 12.613V24.079H111.826V13.705H115.388V12.613H110.695ZM114.764 12.613V15.083C114.764 15.226 114.712 15.265 114.504 15.278C114.309 15.291 113.62 15.291 112.879 15.265C113.035 15.564 113.191 16.006 113.243 16.331C114.231 16.331 114.894 16.318 115.349 16.149C115.791 15.98 115.908 15.655 115.908 15.096V12.613H114.764ZM112.71 17.657L111.761 17.904C112.515 20.556 113.88 22.87 115.856 24.014C116.051 23.702 116.415 23.26 116.688 23.026C114.777 22.09 113.386 19.984 112.71 17.657ZM115.05 17.059V17.306C114.66 19.685 113.451 22.038 111.514 23.286C111.787 23.494 112.151 23.845 112.333 24.118C114.426 22.701 115.713 20.153 116.22 17.28L115.466 17.007L115.258 17.059H115.05ZM104.936 13.289V14.329H109.954V13.289H104.936ZM104.546 20.517V21.557H110.279V20.517H104.546ZM104.559 15.447V16.5H110.266V15.447H104.559ZM104.845 18.203V19.256H110.019V18.203H104.845ZM106.912 12.054V15.837H108.056V12.054H106.912ZM106.912 18.632V24.053H108.056V18.632H106.912ZM108.628 16.448C108.42 17.072 108.004 17.956 107.653 18.515L108.55 18.775C108.901 18.242 109.304 17.449 109.681 16.721L108.628 16.448ZM105.378 16.747C105.638 17.241 105.885 17.891 105.95 18.307L106.912 17.995C106.821 17.592 106.561 16.955 106.288 16.474L105.378 16.747ZM121.836 22.454V23.585H127.907V22.454H121.836ZM121.29 13.328V14.42H125.996V13.328H121.29ZM121.771 11.976C121.017 13.393 119.548 15.031 117.403 16.188C117.676 16.409 118.092 16.851 118.274 17.15C120.562 15.785 122.122 14.03 123.162 12.249L121.771 11.976ZM125.593 13.328V13.536C124.306 16.89 120.822 19.425 117.351 20.426C117.611 20.686 117.923 21.193 118.066 21.531C121.758 20.309 125.333 17.683 126.88 13.705L126.048 13.263L125.827 13.328H125.593ZM119.639 15.876C120.614 16.578 121.81 17.631 122.33 18.346L123.331 17.462C122.746 16.747 121.524 15.759 120.549 15.083L119.639 15.876ZM127.322 18.411V24.118H128.596V18.411H127.322ZM122.369 18.411H122.096L121.134 19.347V24.092H122.369V19.529H127.946V18.411H122.369Z" fill="#735795"/>
</svg>
