<svg width="130" height="38" viewBox="0 0 130 38" fill="none" xmlns="http://www.w3.org/2000/svg">
<circle cx="48.365" cy="19.095" r="18.365" fill="#C85551"/>
<path d="M46.23 24.16L52.86 19.1L46.23 14.03" stroke="white" stroke-width="0.75" stroke-miterlimit="10"/>
<path d="M78.209 15.433V16.668H88.817V15.433H78.209ZM77.637 23.337V24.572H89.363V23.337H77.637ZM79.938 17.526C80.406 19.203 80.926 21.439 81.108 22.882L82.421 22.544C82.2 21.088 81.68 18.943 81.16 17.227L79.938 17.526ZM85.84 17.253C85.424 19.216 84.618 21.946 83.903 23.571L85.112 23.857C85.814 22.245 86.646 19.658 87.218 17.5L85.84 17.253ZM82.434 13.236C82.681 13.912 82.954 14.809 83.071 15.381L84.345 15.004C84.202 14.445 83.916 13.587 83.643 12.924L82.434 13.236ZM91.729 16.239V17.344H95.746V16.239H91.729ZM91.703 13.704V14.809H95.291V18.878H91.703V19.983H96.526V13.704H91.703ZM91.222 24.754C91.547 24.507 92.067 24.312 95.72 23.077C95.616 22.817 95.46 22.375 95.369 22.037L91.612 23.194L91.105 23.649L91.222 24.754ZM94.004 21.01C94.654 22.115 95.421 23.584 95.746 24.481L96.877 23.87C96.526 22.986 95.72 21.556 95.057 20.503L94.004 21.01ZM91.222 24.754C91.222 24.273 92.548 23.74 92.548 23.74V13.704H91.3V22.635C91.3 23.129 90.975 23.376 90.715 23.506C90.923 23.805 91.144 24.403 91.222 24.754ZM100.751 13.795V21.283C100.751 21.452 100.699 21.491 100.53 21.504C100.361 21.517 99.802 21.517 99.23 21.491C99.386 21.816 99.542 22.323 99.581 22.661C100.478 22.661 101.076 22.648 101.466 22.453C101.856 22.245 101.96 21.907 101.96 21.296V13.795H100.751ZM97.514 13.795V25.105H98.736V14.926H101.375V13.795H97.514ZM110.28 18.059V19.047H114.414V18.059H110.28ZM109.695 13.613V25.079H110.826V14.705H114.388V13.613H109.695ZM113.764 13.613V16.083C113.764 16.226 113.712 16.265 113.504 16.278C113.309 16.291 112.62 16.291 111.879 16.265C112.035 16.564 112.191 17.006 112.243 17.331C113.231 17.331 113.894 17.318 114.349 17.149C114.791 16.98 114.908 16.655 114.908 16.096V13.613H113.764ZM111.71 18.657L110.761 18.904C111.515 21.556 112.88 23.87 114.856 25.014C115.051 24.702 115.415 24.26 115.688 24.026C113.777 23.09 112.386 20.984 111.71 18.657ZM114.05 18.059V18.306C113.66 20.685 112.451 23.038 110.514 24.286C110.787 24.494 111.151 24.845 111.333 25.118C113.426 23.701 114.713 21.153 115.22 18.28L114.466 18.007L114.258 18.059H114.05ZM103.936 14.289V15.329H108.954V14.289H103.936ZM103.546 21.517V22.557H109.279V21.517H103.546ZM103.559 16.447V17.5H109.266V16.447H103.559ZM103.845 19.203V20.256H109.019V19.203H103.845ZM105.912 13.054V16.837H107.056V13.054H105.912ZM105.912 19.632V25.053H107.056V19.632H105.912ZM107.628 17.448C107.42 18.072 107.004 18.956 106.653 19.515L107.55 19.775C107.901 19.242 108.304 18.449 108.681 17.721L107.628 17.448ZM104.378 17.747C104.638 18.241 104.885 18.891 104.95 19.307L105.912 18.995C105.821 18.592 105.561 17.955 105.288 17.474L104.378 17.747ZM120.836 23.454V24.585H126.907V23.454H120.836ZM120.29 14.328V15.42H124.996V14.328H120.29ZM120.771 12.976C120.017 14.393 118.548 16.031 116.403 17.188C116.676 17.409 117.092 17.851 117.274 18.15C119.562 16.785 121.122 15.03 122.162 13.249L120.771 12.976ZM124.593 14.328V14.536C123.306 17.89 119.822 20.425 116.351 21.426C116.611 21.686 116.923 22.193 117.066 22.531C120.758 21.309 124.333 18.683 125.88 14.705L125.048 14.263L124.827 14.328H124.593ZM118.639 16.876C119.614 17.578 120.81 18.631 121.33 19.346L122.331 18.462C121.746 17.747 120.524 16.759 119.549 16.083L118.639 16.876ZM126.322 19.411V25.118H127.596V19.411H126.322ZM121.369 19.411H121.096L120.134 20.347V25.092H121.369V20.529H126.946V19.411H121.369Z" fill="#C85551"/>
</svg>
