<svg width="40" height="40" viewBox="0 0 40 40" fill="none" xmlns="http://www.w3.org/2000/svg">
<circle cx="20" cy="20" r="19.5" stroke="#C85551"/>
<path d="M19.9033 18.8369V21.4688C19.9033 22.6146 19.7959 23.6136 19.5811 24.4658C19.3662 25.3109 19.0511 26.0127 18.6357 26.5713C18.2275 27.1227 17.7262 27.5345 17.1318 27.8066C16.5446 28.0788 15.8714 28.2148 15.1123 28.2148C14.5107 28.2148 13.9593 28.1289 13.458 27.957C12.9567 27.7852 12.5091 27.5238 12.1152 27.1729C11.7285 26.8148 11.3991 26.3672 11.127 25.8301C10.8548 25.293 10.6471 24.6628 10.5039 23.9395C10.3607 23.209 10.2891 22.3854 10.2891 21.4688V18.8369C10.2891 17.6839 10.3965 16.6885 10.6113 15.8506C10.8333 15.0127 11.1484 14.318 11.5566 13.7666C11.972 13.2152 12.4769 12.807 13.0713 12.542C13.6657 12.2699 14.3389 12.1338 15.0908 12.1338C15.6924 12.1338 16.2438 12.2233 16.7451 12.4023C17.2536 12.5742 17.7012 12.832 18.0879 13.1758C18.4818 13.5195 18.8112 13.96 19.0762 14.4971C19.3483 15.027 19.5524 15.6536 19.6885 16.377C19.8317 17.1003 19.9033 17.9202 19.9033 18.8369ZM18.625 21.6191V18.6758C18.625 17.9668 18.5749 17.3223 18.4746 16.7422C18.3815 16.1621 18.2419 15.6536 18.0557 15.2168C17.8695 14.7799 17.6331 14.4147 17.3467 14.1211C17.0674 13.8275 16.738 13.609 16.3584 13.4658C15.986 13.3154 15.5635 13.2402 15.0908 13.2402C14.5107 13.2402 13.9987 13.3584 13.5547 13.5947C13.1178 13.8239 12.7526 14.1676 12.459 14.626C12.1654 15.0771 11.9434 15.6429 11.793 16.3232C11.6497 17.0036 11.5781 17.7878 11.5781 18.6758V21.6191C11.5781 22.321 11.6247 22.9619 11.7178 23.542C11.8109 24.1149 11.9541 24.6234 12.1475 25.0674C12.3408 25.5114 12.5771 25.8874 12.8564 26.1953C13.1429 26.4961 13.4723 26.7253 13.8447 26.8828C14.2243 27.0332 14.6468 27.1084 15.1123 27.1084C15.7067 27.1084 16.2223 26.9902 16.6592 26.7539C17.096 26.5104 17.4613 26.1559 17.7549 25.6904C18.0485 25.2178 18.2669 24.6413 18.4102 23.9609C18.5534 23.2734 18.625 22.4928 18.625 21.6191ZM31.8117 26.8936V28H22.0255V27.001L27.1496 21.1895C27.7869 20.4661 28.2954 19.8324 28.675 19.2881C29.0545 18.7367 29.3267 18.2354 29.4914 17.7842C29.6632 17.3258 29.7492 16.8818 29.7492 16.4521C29.7492 15.8219 29.6239 15.2669 29.3732 14.7871C29.1297 14.3073 28.7645 13.9313 28.2775 13.6592C27.7905 13.387 27.189 13.251 26.4728 13.251C25.7567 13.251 25.1336 13.4049 24.6037 13.7129C24.0737 14.0208 23.6655 14.4505 23.3791 15.002C23.0998 15.5462 22.9601 16.1657 22.9601 16.8604H21.6818C21.6818 16.001 21.8716 15.2132 22.2511 14.4971C22.6379 13.7809 23.1893 13.2116 23.9054 12.7891C24.6216 12.3594 25.4774 12.1445 26.4728 12.1445C27.4181 12.1445 28.231 12.3128 28.9113 12.6494C29.5916 12.9788 30.1144 13.4551 30.4796 14.0781C30.852 14.7012 31.0382 15.4531 31.0382 16.334C31.0382 16.8066 30.9523 17.2829 30.7804 17.7627C30.6157 18.2425 30.3865 18.7223 30.0929 19.2021C29.8065 19.6748 29.477 20.1439 29.1046 20.6094C28.7394 21.0749 28.3563 21.5332 27.9552 21.9844L23.5939 26.8936H31.8117Z" fill="#C85551"/>
</svg>
