<svg width="40" height="40" viewBox="0 0 40 40" fill="none" xmlns="http://www.w3.org/2000/svg">
<circle cx="20" cy="20" r="19.5" stroke="#C85551"/>
<path d="M19.9033 18.8369V21.4688C19.9033 22.6146 19.7959 23.6136 19.5811 24.4658C19.3662 25.3109 19.0511 26.0127 18.6357 26.5713C18.2275 27.1227 17.7262 27.5345 17.1318 27.8066C16.5446 28.0788 15.8714 28.2148 15.1123 28.2148C14.5107 28.2148 13.9593 28.1289 13.458 27.957C12.9567 27.7852 12.5091 27.5238 12.1152 27.1729C11.7285 26.8148 11.3991 26.3672 11.127 25.8301C10.8548 25.293 10.6471 24.6628 10.5039 23.9395C10.3607 23.209 10.2891 22.3854 10.2891 21.4688V18.8369C10.2891 17.6839 10.3965 16.6885 10.6113 15.8506C10.8333 15.0127 11.1484 14.318 11.5566 13.7666C11.972 13.2152 12.4769 12.807 13.0713 12.542C13.6657 12.2699 14.3389 12.1338 15.0908 12.1338C15.6924 12.1338 16.2438 12.2233 16.7451 12.4023C17.2536 12.5742 17.7012 12.832 18.0879 13.1758C18.4818 13.5195 18.8112 13.96 19.0762 14.4971C19.3483 15.027 19.5524 15.6536 19.6885 16.377C19.8317 17.1003 19.9033 17.9202 19.9033 18.8369ZM18.625 21.6191V18.6758C18.625 17.9668 18.5749 17.3223 18.4746 16.7422C18.3815 16.1621 18.2419 15.6536 18.0557 15.2168C17.8695 14.7799 17.6331 14.4147 17.3467 14.1211C17.0674 13.8275 16.738 13.609 16.3584 13.4658C15.986 13.3154 15.5635 13.2402 15.0908 13.2402C14.5107 13.2402 13.9987 13.3584 13.5547 13.5947C13.1178 13.8239 12.7526 14.1676 12.459 14.626C12.1654 15.0771 11.9434 15.6429 11.793 16.3232C11.6497 17.0036 11.5781 17.7878 11.5781 18.6758V21.6191C11.5781 22.321 11.6247 22.9619 11.7178 23.542C11.8109 24.1149 11.9541 24.6234 12.1475 25.0674C12.3408 25.5114 12.5771 25.8874 12.8564 26.1953C13.1429 26.4961 13.4723 26.7253 13.8447 26.8828C14.2243 27.0332 14.6468 27.1084 15.1123 27.1084C15.7067 27.1084 16.2223 26.9902 16.6592 26.7539C17.096 26.5104 17.4613 26.1559 17.7549 25.6904C18.0485 25.2178 18.2669 24.6413 18.4102 23.9609C18.5534 23.2734 18.625 22.4928 18.625 21.6191ZM24.883 19.4707H26.1935C26.9956 19.4707 27.6652 19.3346 28.2023 19.0625C28.7466 18.7832 29.1548 18.4144 29.4269 17.9561C29.7062 17.4977 29.8459 16.9893 29.8459 16.4307C29.8459 15.8005 29.7277 15.249 29.4914 14.7764C29.255 14.2965 28.8934 13.9242 28.4064 13.6592C27.9266 13.387 27.3107 13.251 26.5588 13.251C25.8999 13.251 25.3127 13.3799 24.797 13.6377C24.2814 13.8955 23.8732 14.2643 23.5724 14.7441C23.2716 15.224 23.1213 15.7969 23.1213 16.4629H21.8429C21.8429 15.6107 22.047 14.8623 22.4552 14.2178C22.8634 13.5661 23.4256 13.0576 24.1418 12.6924C24.8579 12.3271 25.6636 12.1445 26.5588 12.1445C27.4826 12.1445 28.2847 12.3128 28.965 12.6494C29.6525 12.986 30.1824 13.4766 30.5548 14.1211C30.9344 14.7656 31.1242 15.5498 31.1242 16.4736C31.1242 16.9463 31.0203 17.4118 30.8127 17.8701C30.6121 18.3285 30.3114 18.7438 29.9103 19.1162C29.5093 19.4814 29.0115 19.7751 28.4171 19.9971C27.8227 20.2191 27.1317 20.3301 26.3439 20.3301H24.883V19.4707ZM24.883 20.5771V19.7285H26.3439C27.2391 19.7285 28.0054 19.8324 28.6427 20.04C29.2801 20.2406 29.8029 20.527 30.2111 20.8994C30.6265 21.2646 30.9308 21.6908 31.1242 22.1777C31.3175 22.6647 31.4142 23.1875 31.4142 23.7461C31.4142 24.4622 31.2961 25.096 31.0597 25.6475C30.8234 26.1989 30.4868 26.668 30.05 27.0547C29.6203 27.4342 29.1118 27.7243 28.5246 27.9248C27.9445 28.1182 27.3071 28.2148 26.6125 28.2148C25.9823 28.2148 25.3664 28.1217 24.7648 27.9355C24.1704 27.7493 23.6333 27.4736 23.1535 27.1084C22.6808 26.736 22.3048 26.2705 22.0255 25.7119C21.7463 25.1462 21.6066 24.4945 21.6066 23.7568H22.8849C22.8849 24.4157 23.0425 24.9993 23.3576 25.5078C23.6727 26.0091 24.1095 26.403 24.6681 26.6895C25.2339 26.9688 25.882 27.1084 26.6125 27.1084C27.3501 27.1084 27.9803 26.9831 28.5031 26.7324C29.033 26.4746 29.4377 26.0986 29.717 25.6045C29.9963 25.1104 30.1359 24.5052 30.1359 23.7891C30.1359 23.0371 29.9676 22.4248 29.631 21.9521C29.3016 21.4795 28.8397 21.1322 28.2453 20.9102C27.658 20.6882 26.9741 20.5771 26.1935 20.5771H24.883Z" fill="#C85551"/>
</svg>
