<svg width="174" height="57" viewBox="0 0 174 57" fill="none" xmlns="http://www.w3.org/2000/svg">
<path d="M8.96077 13.3195V14H2.94158V13.3855L6.09323 9.81102C6.48526 9.36613 6.798 8.97631 7.03146 8.64154C7.26491 8.30237 7.43229 7.99403 7.5336 7.71653C7.63932 7.43462 7.69218 7.16152 7.69218 6.89723C7.69218 6.50961 7.61509 6.16823 7.46093 5.87311C7.31116 5.57799 7.08652 5.34674 6.78699 5.17935C6.48746 5.01197 6.11746 4.92828 5.67697 4.92828C5.23649 4.92828 4.85327 5.02298 4.52732 5.21239C4.20136 5.4018 3.95029 5.66609 3.77409 6.00526C3.6023 6.34002 3.51641 6.72104 3.51641 7.14831H2.73015C2.73015 6.61973 2.84688 6.1352 3.08033 5.69472C3.31819 5.25424 3.65737 4.90405 4.09785 4.64417C4.53833 4.37988 5.0647 4.24773 5.67697 4.24773C6.25841 4.24773 6.75836 4.35125 7.17681 4.55827C7.59527 4.7609 7.91682 5.05382 8.14147 5.43703C8.37052 5.82025 8.48505 6.28276 8.48505 6.82455C8.48505 7.11527 8.43219 7.40819 8.32647 7.70331C8.22516 7.99844 8.08421 8.29356 7.90361 8.58868C7.72742 8.8794 7.52479 9.16792 7.29574 9.45423C7.0711 9.74054 6.83544 10.0224 6.58877 10.3L3.90624 13.3195H8.96077ZM16.2419 8.36404V9.98281C16.2419 10.6876 16.1759 11.302 16.0437 11.8262C15.9116 12.346 15.7178 12.7777 15.4623 13.1212C15.2112 13.4604 14.9029 13.7137 14.5373 13.8811C14.1761 14.0485 13.762 14.1321 13.2951 14.1321C12.9251 14.1321 12.5859 14.0793 12.2776 13.9736C11.9693 13.8679 11.694 13.7071 11.4517 13.4912C11.2138 13.271 11.0112 12.9957 10.8438 12.6653C10.6764 12.335 10.5487 11.9474 10.4606 11.5025C10.3725 11.0532 10.3285 10.5466 10.3285 9.98281V8.36404C10.3285 7.65486 10.3945 7.04259 10.5267 6.52723C10.6632 6.01186 10.857 5.5846 11.1081 5.24543C11.3636 4.90625 11.6741 4.65518 12.0397 4.4922C12.4053 4.32482 12.8194 4.24113 13.2819 4.24113C13.6519 4.24113 13.9911 4.29619 14.2994 4.40631C14.6121 4.51202 14.8874 4.6706 15.1253 4.88203C15.3676 5.09346 15.5702 5.36436 15.7332 5.69472C15.9006 6.02067 16.0261 6.40609 16.1098 6.85098C16.1979 7.29587 16.2419 7.80022 16.2419 8.36404ZM15.4557 10.0753V8.26493C15.4557 7.82885 15.4248 7.43242 15.3632 7.07563C15.3059 6.71884 15.22 6.40609 15.1055 6.1374C14.991 5.86871 14.8456 5.64406 14.6694 5.46346C14.4976 5.28287 14.295 5.14852 14.0615 5.06042C13.8325 4.96792 13.5726 4.92167 13.2819 4.92167C12.9251 4.92167 12.6102 4.99435 12.3371 5.13971C12.0684 5.28066 11.8437 5.4921 11.6631 5.774C11.4825 6.05151 11.346 6.39949 11.2535 6.81795C11.1654 7.2364 11.1213 7.71873 11.1213 8.26493V10.0753C11.1213 10.507 11.15 10.9012 11.2072 11.258C11.2645 11.6104 11.3526 11.9231 11.4715 12.1962C11.5904 12.4693 11.7358 12.7006 11.9076 12.89C12.0838 13.075 12.2864 13.2159 12.5155 13.3128C12.7489 13.4053 13.0088 13.4516 13.2951 13.4516C13.6607 13.4516 13.9779 13.3789 14.2465 13.2336C14.5152 13.0838 14.7399 12.8658 14.9205 12.5794C15.1011 12.2887 15.2354 11.9341 15.3235 11.5157C15.4116 11.0928 15.4557 10.6127 15.4557 10.0753ZM23.9724 13.3195V14H17.9532V13.3855L21.1048 9.81102C21.4969 9.36613 21.8096 8.97631 22.0431 8.64154C22.2765 8.30237 22.4439 7.99403 22.5452 7.71653C22.6509 7.43462 22.7038 7.16152 22.7038 6.89723C22.7038 6.50961 22.6267 6.16823 22.4725 5.87311C22.3228 5.57799 22.0981 5.34674 21.7986 5.17935C21.4991 5.01197 21.1291 4.92828 20.6886 4.92828C20.2481 4.92828 19.8649 5.02298 19.5389 5.21239C19.213 5.4018 18.9619 5.66609 18.7857 6.00526C18.6139 6.34002 18.528 6.72104 18.528 7.14831H17.7418C17.7418 6.61973 17.8585 6.1352 18.092 5.69472C18.3298 5.25424 18.669 4.90405 19.1095 4.64417C19.5499 4.37988 20.0763 4.24773 20.6886 4.24773C21.27 4.24773 21.77 4.35125 22.1884 4.55827C22.6069 4.7609 22.9284 5.05382 23.1531 5.43703C23.3821 5.82025 23.4967 6.28276 23.4967 6.82455C23.4967 7.11527 23.4438 7.40819 23.3381 7.70331C23.2368 7.99844 23.0958 8.29356 22.9152 8.58868C22.739 8.8794 22.5364 9.16792 22.3074 9.45423C22.0827 9.74054 21.8471 10.0224 21.6004 10.3L18.9179 13.3195H23.9724ZM31.4782 13.3195V14H25.459V13.3855L28.6107 9.81102C29.0027 9.36613 29.3154 8.97631 29.5489 8.64154C29.7823 8.30237 29.9497 7.99403 30.051 7.71653C30.1567 7.43462 30.2096 7.16152 30.2096 6.89723C30.2096 6.50961 30.1325 6.16823 29.9784 5.87311C29.8286 5.57799 29.6039 5.34674 29.3044 5.17935C29.0049 5.01197 28.6349 4.92828 28.1944 4.92828C27.7539 4.92828 27.3707 5.02298 27.0447 5.21239C26.7188 5.4018 26.4677 5.66609 26.2915 6.00526C26.1197 6.34002 26.0338 6.72104 26.0338 7.14831H25.2476C25.2476 6.61973 25.3643 6.1352 25.5978 5.69472C25.8356 5.25424 26.1748 4.90405 26.6153 4.64417C27.0558 4.37988 27.5821 4.24773 28.1944 4.24773C28.7758 4.24773 29.2758 4.35125 29.6942 4.55827C30.1127 4.7609 30.4342 5.05382 30.6589 5.43703C30.8879 5.82025 31.0025 6.28276 31.0025 6.82455C31.0025 7.11527 30.9496 7.40819 30.8439 7.70331C30.7426 7.99844 30.6016 8.29356 30.421 8.58868C30.2448 8.8794 30.0422 9.16792 29.8132 9.45423C29.5885 9.74054 29.3529 10.0224 29.1062 10.3L26.4237 13.3195H31.4782Z" fill="#4C60A5"/>
<path d="M4.65487 38.7902V40.3707H16.8441V38.7902H4.65487ZM3.91875 32.1002V41.3234H5.56419V33.6591H15.9998V41.2801H17.7102V32.1002H3.91875ZM8.27051 21.3399C7.27459 23.6565 5.49924 26.8391 4.07031 28.766L5.47759 29.3722C6.92818 27.467 8.74683 24.4792 10.0459 21.9678L8.27051 21.3399ZM13.4666 24.8473C15.6967 26.6659 18.1648 29.2856 19.2473 31.0826L20.633 30.0001C19.5072 28.2031 16.9524 25.6483 14.744 23.8947L13.4666 24.8473ZM1.36399 28.0516L1.47224 29.7187C5.60749 29.5454 12.146 29.264 18.2298 28.9392L18.3164 27.3804C12.146 27.6619 5.47759 27.9433 1.36399 28.0516ZM23.729 25.2803V35.586H25.3528V26.8824H39.4906V35.4777H41.1794V25.2803H23.729ZM24.595 32.6415V34.222H40.4649V32.6415H24.595ZM31.5665 21.4048V41.3017H33.2553V21.4048H31.5665ZM50.4458 30.3032V31.7322H64.0857V30.3032H50.4458ZM52.8923 33.2477V34.5684H62.332V33.2477H52.8923ZM53.9532 30.8445C52.9573 32.9879 51.1603 34.8715 49.1684 36.0623C49.4932 36.3004 50.0561 36.7984 50.2726 37.0798C52.2861 35.7375 54.2563 33.6158 55.3605 31.2125L53.9532 30.8445ZM62.0289 33.2477V33.4859C61.7257 37.7294 61.3793 39.3532 60.968 39.7645C60.7948 39.981 60.6216 40.0027 60.2968 40.0027C59.9937 40.0027 59.2792 39.981 58.4565 39.9161C58.673 40.2625 58.8246 40.847 58.8246 41.2584C59.6906 41.3017 60.5133 41.2801 60.9896 41.2584C61.5092 41.2151 61.8989 41.0852 62.2454 40.7171C62.8299 40.0893 63.1763 38.3789 63.5011 33.8972C63.5444 33.6591 63.566 33.2477 63.566 33.2477H62.0289ZM54.0614 26.1463H61.0329V27.8784H54.0614V26.1463ZM54.0614 23.2668H61.0329V24.9772H54.0614V23.2668ZM52.5892 22.0544V29.0908H62.5485V22.0544H52.5892ZM44.4269 26.103V27.6619H50.8572V26.103H44.4269ZM46.9601 21.578V34.8931H48.4973V21.578H46.9601ZM44.0156 35.7592L44.6435 37.383C46.4837 36.4953 48.8437 35.3261 51.052 34.2003L50.7056 32.7714C48.2374 33.9189 45.6827 35.0663 44.0156 35.7592ZM59.2576 33.4859C58.4782 36.1705 56.6595 39.115 54.6244 40.479C55.0357 40.7171 55.5337 41.0852 55.8151 41.41C57.7853 39.9161 59.5823 36.8417 60.4051 34.0921L59.2576 33.4859ZM55.8801 33.5508C54.8192 35.8241 52.5459 38.3139 50.4025 39.4831C50.7922 39.7212 51.2469 40.1326 51.5067 40.479C53.6068 39.1366 55.8801 36.5602 56.9843 34.2003L55.8801 33.5508Z" fill="#4C60A5"/>
<path d="M77.1792 29.2375L73.0581 28.2415L74.6401 13.886H90.2847V18.1633H78.9175L78.1753 24.804C78.5789 24.5566 79.1649 24.3092 79.9331 24.0618C80.7144 23.8014 81.5933 23.6711 82.5698 23.6711C83.924 23.6711 85.1349 23.8925 86.2026 24.3352C87.2703 24.7649 88.1753 25.3899 88.9175 26.2102C89.6727 27.0305 90.2391 28.0331 90.6167 29.218C91.0073 30.3899 91.2026 31.718 91.2026 33.2024C91.2026 34.5045 91.0073 35.7284 90.6167 36.8743C90.2391 38.0071 89.6597 39.0162 88.8784 39.9016C88.0972 40.774 87.1141 41.4641 85.9292 41.9719C84.7443 42.4667 83.3511 42.7141 81.7495 42.7141C80.5386 42.7141 79.3732 42.5383 78.2534 42.1868C77.1466 41.8222 76.1506 41.2948 75.2651 40.6047C74.3797 39.9016 73.6701 39.0422 73.1362 38.0266C72.6154 37.011 72.3289 35.8456 72.2769 34.5305H77.3745C77.4657 35.4029 77.7 36.1451 78.0776 36.7571C78.4552 37.3691 78.95 37.8378 79.562 38.1633C80.187 38.4889 80.9097 38.6516 81.73 38.6516C82.4722 38.6516 83.1102 38.5149 83.644 38.2415C84.1909 37.955 84.6401 37.5579 84.9917 37.05C85.3433 36.5422 85.6037 35.9433 85.7729 35.2532C85.9422 34.5631 86.0269 33.8079 86.0269 32.9875C86.0269 32.1933 85.9292 31.4706 85.7339 30.8196C85.5386 30.1555 85.2391 29.5826 84.8354 29.1008C84.4318 28.6191 83.924 28.248 83.312 27.9875C82.7131 27.7271 82.0099 27.5969 81.2026 27.5969C80.1219 27.5969 79.2886 27.7597 78.7026 28.0852C78.1297 28.4107 77.6219 28.7948 77.1792 29.2375ZM95.4019 39.804C95.4019 39.0227 95.6688 38.3652 96.2026 37.8313C96.7365 37.2974 97.4591 37.0305 98.3706 37.0305C99.2821 37.0305 100.005 37.2974 100.539 37.8313C101.072 38.3652 101.339 39.0227 101.339 39.804C101.339 40.5722 101.072 41.2232 100.539 41.7571C100.005 42.2779 99.2821 42.5383 98.3706 42.5383C97.4591 42.5383 96.7365 42.2779 96.2026 41.7571C95.6688 41.2232 95.4019 40.5722 95.4019 39.804ZM119.562 13.8079V42.3235H114.386V19.843L107.531 22.1086V17.929L118.976 13.8079H119.562ZM148.234 13.886V16.6985L137.062 42.3235H131.613L142.785 17.9485H128.332V13.886H148.234Z" fill="#4C60A5"/>
<path d="M156.473 37.3667L167.848 37.3667L167.848 38.3198L156.473 38.3198L156.473 37.3667ZM156.473 33.4683L157.301 33.4683L157.301 42.2104L156.473 42.2104L156.473 33.4683ZM156.473 24.7495L156.473 23.7886L164.176 23.7886C165.03 23.7886 165.741 23.9683 166.309 24.3276C166.876 24.687 167.301 25.1714 167.582 25.7808C167.863 26.3849 168.004 27.0542 168.004 27.7886C168.004 28.5438 167.863 29.2235 167.582 29.8276C167.301 30.4318 166.876 30.911 166.309 31.2651C165.741 31.6141 165.03 31.7886 164.176 31.7886L156.473 31.7886L156.473 30.8354L164.176 30.8354C164.837 30.8354 165.392 30.7052 165.84 30.4448C166.288 30.1844 166.624 29.825 166.848 29.3667C167.072 28.9084 167.184 28.3823 167.184 27.7886C167.184 27.2 167.072 26.6766 166.848 26.2183C166.624 25.7599 166.288 25.4006 165.84 25.1401C165.392 24.8797 164.837 24.7495 164.176 24.7495L156.473 24.7495ZM167.027 14.0151L167.848 14.0151L167.848 20.4136L167.027 20.4136L167.027 14.0151ZM156.473 20.1245L167.848 20.1245L167.848 21.0854L156.473 21.0854L156.473 20.1245ZM161.574 14.812L162.395 14.812L162.395 20.4136L161.574 20.4136L161.574 14.812ZM156.473 14.0542L157.301 14.0542L157.301 20.4136L156.473 20.4136L156.473 14.0542ZM167.277 12.2808C167.095 12.2808 166.941 12.2235 166.816 12.1089C166.686 11.9891 166.621 11.8276 166.621 11.6245C166.621 11.4162 166.684 11.2521 166.809 11.1323C166.934 11.0125 167.09 10.9526 167.277 10.9526C167.454 10.9526 167.605 11.0125 167.73 11.1323C167.855 11.2521 167.918 11.4162 167.918 11.6245C167.918 11.8276 167.855 11.9891 167.73 12.1089C167.605 12.2235 167.454 12.2808 167.277 12.2808Z" fill="#4C60A5"/>
</svg>
