<svg width="174" height="57" viewBox="0 0 174 57" fill="none" xmlns="http://www.w3.org/2000/svg">
<path d="M8.96077 13.3195V14H2.94158V13.3855L6.09323 9.81102C6.48526 9.36613 6.798 8.97631 7.03146 8.64154C7.26491 8.30237 7.43229 7.99403 7.5336 7.71653C7.63932 7.43462 7.69218 7.16152 7.69218 6.89723C7.69218 6.50961 7.61509 6.16823 7.46093 5.87311C7.31116 5.57799 7.08652 5.34674 6.78699 5.17935C6.48746 5.01197 6.11746 4.92828 5.67697 4.92828C5.23649 4.92828 4.85327 5.02298 4.52732 5.21239C4.20136 5.4018 3.95029 5.66609 3.77409 6.00526C3.6023 6.34002 3.51641 6.72104 3.51641 7.14831H2.73015C2.73015 6.61973 2.84688 6.1352 3.08033 5.69472C3.31819 5.25424 3.65737 4.90405 4.09785 4.64417C4.53833 4.37988 5.0647 4.24773 5.67697 4.24773C6.25841 4.24773 6.75836 4.35125 7.17681 4.55827C7.59527 4.7609 7.91682 5.05382 8.14147 5.43703C8.37052 5.82025 8.48505 6.28276 8.48505 6.82455C8.48505 7.11527 8.43219 7.40819 8.32647 7.70331C8.22516 7.99844 8.08421 8.29356 7.90361 8.58868C7.72742 8.8794 7.52479 9.16792 7.29574 9.45423C7.0711 9.74054 6.83544 10.0224 6.58877 10.3L3.90624 13.3195H8.96077ZM16.2419 8.36404V9.98281C16.2419 10.6876 16.1759 11.302 16.0437 11.8262C15.9116 12.346 15.7178 12.7777 15.4623 13.1212C15.2112 13.4604 14.9029 13.7137 14.5373 13.8811C14.1761 14.0485 13.762 14.1321 13.2951 14.1321C12.9251 14.1321 12.5859 14.0793 12.2776 13.9736C11.9693 13.8679 11.694 13.7071 11.4517 13.4912C11.2138 13.271 11.0112 12.9957 10.8438 12.6653C10.6764 12.335 10.5487 11.9474 10.4606 11.5025C10.3725 11.0532 10.3285 10.5466 10.3285 9.98281V8.36404C10.3285 7.65486 10.3945 7.04259 10.5267 6.52723C10.6632 6.01186 10.857 5.5846 11.1081 5.24543C11.3636 4.90625 11.6741 4.65518 12.0397 4.4922C12.4053 4.32482 12.8194 4.24113 13.2819 4.24113C13.6519 4.24113 13.9911 4.29619 14.2994 4.40631C14.6121 4.51202 14.8874 4.6706 15.1253 4.88203C15.3676 5.09346 15.5702 5.36436 15.7332 5.69472C15.9006 6.02067 16.0261 6.40609 16.1098 6.85098C16.1979 7.29587 16.2419 7.80022 16.2419 8.36404ZM15.4557 10.0753V8.26493C15.4557 7.82885 15.4248 7.43242 15.3632 7.07563C15.3059 6.71884 15.22 6.40609 15.1055 6.1374C14.991 5.86871 14.8456 5.64406 14.6694 5.46346C14.4976 5.28287 14.295 5.14852 14.0615 5.06042C13.8325 4.96792 13.5726 4.92167 13.2819 4.92167C12.9251 4.92167 12.6102 4.99435 12.3371 5.13971C12.0684 5.28066 11.8437 5.4921 11.6631 5.774C11.4825 6.05151 11.346 6.39949 11.2535 6.81795C11.1654 7.2364 11.1213 7.71873 11.1213 8.26493V10.0753C11.1213 10.507 11.15 10.9012 11.2072 11.258C11.2645 11.6104 11.3526 11.9231 11.4715 12.1962C11.5904 12.4693 11.7358 12.7006 11.9076 12.89C12.0838 13.075 12.2864 13.2159 12.5155 13.3128C12.7489 13.4053 13.0088 13.4516 13.2951 13.4516C13.6607 13.4516 13.9779 13.3789 14.2465 13.2336C14.5152 13.0838 14.7399 12.8658 14.9205 12.5794C15.1011 12.2887 15.2354 11.9341 15.3235 11.5157C15.4116 11.0928 15.4557 10.6127 15.4557 10.0753ZM23.9724 13.3195V14H17.9532V13.3855L21.1048 9.81102C21.4969 9.36613 21.8096 8.97631 22.0431 8.64154C22.2765 8.30237 22.4439 7.99403 22.5452 7.71653C22.6509 7.43462 22.7038 7.16152 22.7038 6.89723C22.7038 6.50961 22.6267 6.16823 22.4725 5.87311C22.3228 5.57799 22.0981 5.34674 21.7986 5.17935C21.4991 5.01197 21.1291 4.92828 20.6886 4.92828C20.2481 4.92828 19.8649 5.02298 19.5389 5.21239C19.213 5.4018 18.9619 5.66609 18.7857 6.00526C18.6139 6.34002 18.528 6.72104 18.528 7.14831H17.7418C17.7418 6.61973 17.8585 6.1352 18.092 5.69472C18.3298 5.25424 18.669 4.90405 19.1095 4.64417C19.5499 4.37988 20.0763 4.24773 20.6886 4.24773C21.27 4.24773 21.77 4.35125 22.1884 4.55827C22.6069 4.7609 22.9284 5.05382 23.1531 5.43703C23.3821 5.82025 23.4967 6.28276 23.4967 6.82455C23.4967 7.11527 23.4438 7.40819 23.3381 7.70331C23.2368 7.99844 23.0958 8.29356 22.9152 8.58868C22.739 8.8794 22.5364 9.16792 22.3074 9.45423C22.0827 9.74054 21.8471 10.0224 21.6004 10.3L18.9179 13.3195H23.9724ZM31.4782 13.3195V14H25.459V13.3855L28.6107 9.81102C29.0027 9.36613 29.3154 8.97631 29.5489 8.64154C29.7823 8.30237 29.9497 7.99403 30.051 7.71653C30.1567 7.43462 30.2096 7.16152 30.2096 6.89723C30.2096 6.50961 30.1325 6.16823 29.9784 5.87311C29.8286 5.57799 29.6039 5.34674 29.3044 5.17935C29.0049 5.01197 28.6349 4.92828 28.1944 4.92828C27.7539 4.92828 27.3707 5.02298 27.0447 5.21239C26.7188 5.4018 26.4677 5.66609 26.2915 6.00526C26.1197 6.34002 26.0338 6.72104 26.0338 7.14831H25.2476C25.2476 6.61973 25.3643 6.1352 25.5978 5.69472C25.8356 5.25424 26.1748 4.90405 26.6153 4.64417C27.0558 4.37988 27.5821 4.24773 28.1944 4.24773C28.7758 4.24773 29.2758 4.35125 29.6942 4.55827C30.1127 4.7609 30.4342 5.05382 30.6589 5.43703C30.8879 5.82025 31.0025 6.28276 31.0025 6.82455C31.0025 7.11527 30.9496 7.40819 30.8439 7.70331C30.7426 7.99844 30.6016 8.29356 30.421 8.58868C30.2448 8.8794 30.0422 9.16792 29.8132 9.45423C29.5885 9.74054 29.3529 10.0224 29.1062 10.3L26.4237 13.3195H31.4782Z" fill="#735795"/>
<path d="M1.40729 23.4833V24.8906H20.2216V23.4833H1.40729ZM9.87266 21.4048V24.1545H11.5397V21.4048H9.87266ZM2.35991 31.9487V41.345H3.9404V33.3343H18.4463V31.9487H2.35991ZM17.7751 31.9487V39.3532C17.7751 39.6563 17.6885 39.7645 17.3204 39.7645C16.9524 39.8078 15.74 39.8078 14.311 39.7645C14.5492 40.1975 14.7873 40.847 14.8523 41.3017C16.6493 41.3017 17.8184 41.2801 18.5112 41.0419C19.204 40.7604 19.3989 40.2841 19.3989 39.3965V31.9487H17.7751ZM6.69002 34.7416V40.414H8.14061V34.7416H6.69002ZM7.46944 34.7416V35.9107H13.4883V38.1407H7.46944V39.3099H14.9605V34.7416H7.46944ZM6.56012 27.2938H15.0255V29.3939H6.56012V27.2938ZM5.00128 26.103V30.5847H16.6709V26.103H5.00128ZM22.7764 24.8906V26.4278H32.3459V24.8906H22.7764ZM24.9631 38.7469L25.4611 40.1975C27.2148 39.7429 29.4881 39.1583 31.6531 38.5521L31.5016 37.253C29.055 37.8376 26.6085 38.4222 24.9631 38.7469ZM29.7262 34.1354C30.3757 36.0623 31.0253 38.5521 31.2201 40.1759L32.4975 39.6996C32.3026 38.0541 31.6315 35.586 30.917 33.6807L29.7262 34.1354ZM28.4272 28.5495C28.0158 31.6889 27.1282 36.2571 26.3271 38.8985L27.4962 39.2016C28.3406 36.6035 29.3149 32.1652 29.9211 28.8526L28.4272 28.5495ZM33.6017 30.0434V31.4507H41.9155V30.0434H33.6017ZM33.6017 34.3952V35.8241H41.9155V34.3952H33.6017ZM33.6017 38.8552V40.3491H42.4134V38.8552H33.6017ZM34.5976 21.4048C33.6883 24.5658 32.1727 27.6402 30.3541 29.6321C30.7005 29.9135 31.2851 30.5414 31.5232 30.8445C33.4068 28.6361 35.0739 25.237 36.1131 21.7945L34.5976 21.4048ZM38.7762 21.5997C38.3864 23.007 37.6287 25.0421 37.0225 26.2762L38.2998 26.6876C38.9277 25.5184 39.7071 23.6348 40.335 22.0544L38.7762 21.5997ZM34.5326 25.605H34.3161L33.0171 26.9907V41.345H34.5326V27.0773H42.1753V25.605H34.5326ZM37.4122 26.2546V39.7212H38.9277V26.2546H37.4122ZM25.6776 21.4048V22.8987C25.6776 27.6402 25.4827 34.2436 22.1052 39.8728C22.5382 40.0243 23.1877 40.3491 23.5125 40.6089C26.9549 34.7416 27.1498 27.8351 27.1498 22.8987V21.4048H25.6776ZM50.4458 30.3032V31.7322H64.0857V30.3032H50.4458ZM52.8923 33.2477V34.5684H62.332V33.2477H52.8923ZM53.9532 30.8445C52.9573 32.9879 51.1603 34.8715 49.1684 36.0623C49.4932 36.3004 50.0561 36.7984 50.2726 37.0798C52.2861 35.7375 54.2563 33.6158 55.3605 31.2125L53.9532 30.8445ZM62.0289 33.2477V33.4859C61.7257 37.7294 61.3793 39.3532 60.968 39.7645C60.7948 39.981 60.6216 40.0027 60.2968 40.0027C59.9937 40.0027 59.2792 39.981 58.4565 39.9161C58.673 40.2625 58.8246 40.847 58.8246 41.2584C59.6906 41.3017 60.5133 41.2801 60.9896 41.2584C61.5092 41.2151 61.8989 41.0852 62.2454 40.7171C62.8299 40.0893 63.1763 38.3789 63.5011 33.8972C63.5444 33.6591 63.566 33.2477 63.566 33.2477H62.0289ZM54.0614 26.1463H61.0329V27.8784H54.0614V26.1463ZM54.0614 23.2668H61.0329V24.9772H54.0614V23.2668ZM52.5892 22.0544V29.0908H62.5485V22.0544H52.5892ZM44.4269 26.103V27.6619H50.8572V26.103H44.4269ZM46.9601 21.578V34.8931H48.4973V21.578H46.9601ZM44.0156 35.7592L44.6435 37.383C46.4837 36.4953 48.8437 35.3261 51.052 34.2003L50.7056 32.7714C48.2374 33.9189 45.6827 35.0663 44.0156 35.7592ZM59.2576 33.4859C58.4782 36.1705 56.6595 39.115 54.6244 40.479C55.0357 40.7171 55.5337 41.0852 55.8151 41.41C57.7853 39.9161 59.5823 36.8417 60.4051 34.0921L59.2576 33.4859ZM55.8801 33.5508C54.8192 35.8241 52.5459 38.3139 50.4025 39.4831C50.7922 39.7212 51.2469 40.1326 51.5067 40.479C53.6068 39.1366 55.8801 36.5602 56.9843 34.2003L55.8801 33.5508Z" fill="#735795"/>
<path d="M77.1792 29.2375L73.0581 28.2415L74.6401 13.886H90.2847V18.1633H78.9175L78.1753 24.804C78.5789 24.5566 79.1649 24.3092 79.9331 24.0618C80.7144 23.8014 81.5933 23.6711 82.5698 23.6711C83.924 23.6711 85.1349 23.8925 86.2026 24.3352C87.2703 24.7649 88.1753 25.3899 88.9175 26.2102C89.6727 27.0305 90.2391 28.0331 90.6167 29.218C91.0073 30.3899 91.2026 31.718 91.2026 33.2024C91.2026 34.5045 91.0073 35.7284 90.6167 36.8743C90.2391 38.0071 89.6597 39.0162 88.8784 39.9016C88.0972 40.774 87.1141 41.4641 85.9292 41.9719C84.7443 42.4667 83.3511 42.7141 81.7495 42.7141C80.5386 42.7141 79.3732 42.5383 78.2534 42.1868C77.1466 41.8222 76.1506 41.2948 75.2651 40.6047C74.3797 39.9016 73.6701 39.0422 73.1362 38.0266C72.6154 37.011 72.3289 35.8456 72.2769 34.5305H77.3745C77.4657 35.4029 77.7 36.1451 78.0776 36.7571C78.4552 37.3691 78.95 37.8378 79.562 38.1633C80.187 38.4889 80.9097 38.6516 81.73 38.6516C82.4722 38.6516 83.1102 38.5149 83.644 38.2415C84.1909 37.955 84.6401 37.5579 84.9917 37.05C85.3433 36.5422 85.6037 35.9433 85.7729 35.2532C85.9422 34.5631 86.0269 33.8079 86.0269 32.9875C86.0269 32.1933 85.9292 31.4706 85.7339 30.8196C85.5386 30.1555 85.2391 29.5826 84.8354 29.1008C84.4318 28.6191 83.924 28.248 83.312 27.9875C82.7131 27.7271 82.0099 27.5969 81.2026 27.5969C80.1219 27.5969 79.2886 27.7597 78.7026 28.0852C78.1297 28.4107 77.6219 28.7948 77.1792 29.2375ZM95.4019 39.804C95.4019 39.0227 95.6688 38.3652 96.2026 37.8313C96.7365 37.2974 97.4591 37.0305 98.3706 37.0305C99.2821 37.0305 100.005 37.2974 100.539 37.8313C101.072 38.3652 101.339 39.0227 101.339 39.804C101.339 40.5722 101.072 41.2232 100.539 41.7571C100.005 42.2779 99.2821 42.5383 98.3706 42.5383C97.4591 42.5383 96.7365 42.2779 96.2026 41.7571C95.6688 41.2232 95.4019 40.5722 95.4019 39.804ZM125.539 38.261V42.3235H106.281V38.8469L115.519 28.8665C116.483 27.7727 117.244 26.8222 117.804 26.0149C118.364 25.2076 118.761 24.4784 118.996 23.8274C119.243 23.1633 119.367 22.5318 119.367 21.9329C119.367 21.0605 119.21 20.2987 118.898 19.6477C118.585 18.9836 118.13 18.4693 117.531 18.1047C116.945 17.7402 116.222 17.5579 115.363 17.5579C114.412 17.5579 113.598 17.7792 112.921 18.2219C112.257 18.6516 111.75 19.2506 111.398 20.0188C111.059 20.787 110.89 21.6659 110.89 22.6555H105.714C105.714 20.9758 106.105 19.4459 106.886 18.0657C107.667 16.6724 108.787 15.5592 110.246 14.7258C111.704 13.8925 113.436 13.4758 115.441 13.4758C117.394 13.4758 119.048 13.8014 120.402 14.4524C121.756 15.0904 122.785 16.0019 123.488 17.1868C124.191 18.3717 124.542 19.7844 124.542 21.425C124.542 22.3365 124.393 23.2349 124.093 24.1204C123.794 25.0058 123.371 25.8847 122.824 26.7571C122.29 27.6165 121.652 28.4889 120.91 29.3743C120.167 30.2597 119.341 31.1646 118.429 32.0891L112.882 38.261H125.539ZM134.777 25.8196H137.687C138.716 25.8196 139.562 25.6438 140.226 25.2922C140.903 24.9277 141.404 24.4329 141.73 23.8079C142.069 23.1698 142.238 22.4342 142.238 21.6008C142.238 20.7805 142.088 20.0709 141.789 19.4719C141.489 18.8599 141.033 18.3912 140.421 18.0657C139.822 17.7271 139.054 17.5579 138.117 17.5579C137.361 17.5579 136.665 17.7076 136.027 18.0071C135.402 18.3066 134.901 18.7362 134.523 19.2961C134.158 19.843 133.976 20.5006 133.976 21.2688H128.8C128.8 19.7323 129.204 18.3847 130.011 17.2258C130.832 16.054 131.938 15.136 133.332 14.4719C134.725 13.8079 136.281 13.4758 138 13.4758C139.875 13.4758 141.515 13.7883 142.921 14.4133C144.341 15.0253 145.441 15.9303 146.222 17.1282C147.016 18.3261 147.414 19.8105 147.414 21.5813C147.414 22.4277 147.212 23.274 146.808 24.1204C146.417 24.9537 145.838 25.7089 145.07 26.386C144.315 27.05 143.384 27.5904 142.277 28.0071C141.183 28.4107 139.927 28.6125 138.507 28.6125H134.777V25.8196ZM134.777 29.804V27.05H138.507C140.109 27.05 141.496 27.2389 142.667 27.6165C143.852 27.981 144.829 28.5019 145.597 29.179C146.365 29.843 146.932 30.6178 147.296 31.5032C147.674 32.3886 147.863 33.3391 147.863 34.3547C147.863 35.6829 147.615 36.8678 147.121 37.9094C146.626 38.9381 145.929 39.8105 145.031 40.5266C144.145 41.2428 143.104 41.7896 141.906 42.1672C140.708 42.5318 139.412 42.7141 138.019 42.7141C136.808 42.7141 135.63 42.5514 134.484 42.2258C133.351 41.8873 132.329 41.386 131.417 40.7219C130.506 40.0448 129.783 39.1985 129.25 38.1829C128.716 37.1542 128.449 35.9628 128.449 34.6086H133.625C133.625 35.3899 133.813 36.0865 134.191 36.6985C134.582 37.3105 135.115 37.7922 135.792 38.1438C136.483 38.4823 137.257 38.6516 138.117 38.6516C139.067 38.6516 139.881 38.4823 140.558 38.1438C141.248 37.7922 141.776 37.2974 142.14 36.6594C142.505 36.0084 142.687 35.2336 142.687 34.3352C142.687 33.2675 142.485 32.4016 142.082 31.7375C141.678 31.0735 141.098 30.5852 140.343 30.2727C139.601 29.9602 138.716 29.804 137.687 29.804H134.777Z" fill="#735795"/>
<path d="M156.473 40.8823L156.473 39.9136L166.488 35.7104L156.473 31.4995L156.473 30.5386L167.848 35.3433L167.848 36.0776L156.473 40.8823ZM156.473 41.1792L156.473 40.3276L162.879 40.2261L167.848 40.2261L167.848 41.1792L156.473 41.1792ZM156.473 31.0776L156.473 30.2261L167.848 30.2261L167.848 31.187L162.879 31.187L156.473 31.0776ZM161.551 18.937L162.77 18.937C163.566 18.937 164.288 19.0412 164.934 19.2495C165.574 19.4526 166.124 19.7495 166.582 20.1401C167.04 20.5256 167.392 20.9891 167.637 21.5308C167.882 22.0724 168.004 22.6818 168.004 23.3589C168.004 24.0203 167.882 24.6245 167.637 25.1714C167.392 25.7131 167.04 26.1792 166.582 26.5698C166.124 26.9604 165.574 27.2625 164.934 27.4761C164.288 27.6896 163.566 27.7964 162.77 27.7964L161.551 27.7964C160.754 27.7964 160.035 27.6922 159.395 27.4839C158.749 27.2703 158.197 26.9683 157.738 26.5776C157.28 26.187 156.928 25.7209 156.684 25.1792C156.439 24.6375 156.316 24.036 156.316 23.3745C156.316 22.6974 156.439 22.0881 156.684 21.5464C156.928 21.0047 157.28 20.5386 157.738 20.1479C158.197 19.7573 158.749 19.4578 159.395 19.2495C160.035 19.0412 160.754 18.937 161.551 18.937ZM162.77 19.8901L161.535 19.8901C160.863 19.8901 160.259 19.9683 159.723 20.1245C159.186 20.2756 158.728 20.5021 158.348 20.8042C157.967 21.1011 157.676 21.4657 157.473 21.8979C157.27 22.3302 157.168 22.8224 157.168 23.3745C157.168 23.911 157.27 24.3927 157.473 24.8198C157.676 25.2469 157.967 25.6115 158.348 25.9136C158.728 26.2104 159.186 26.4396 159.723 26.6011C160.259 26.7573 160.863 26.8354 161.535 26.8354L162.77 26.8354C163.447 26.8354 164.056 26.7573 164.598 26.6011C165.134 26.4396 165.595 26.2078 165.98 25.9058C166.361 25.6037 166.652 25.2391 166.855 24.812C167.059 24.3797 167.16 23.8953 167.16 23.3589C167.16 22.8016 167.059 22.3094 166.855 21.8823C166.652 21.4552 166.361 21.0933 165.98 20.7964C165.595 20.4995 165.134 20.2756 164.598 20.1245C164.056 19.9683 163.447 19.8901 162.77 19.8901ZM156.473 8.03857L167.848 8.03857L167.848 9.00732L158.129 15.5464L167.848 15.5464L167.848 16.5073L156.473 16.5073L156.473 15.5464L166.191 8.9917L156.473 8.9917L156.473 8.03857ZM167.277 5.43701C167.095 5.43701 166.941 5.37972 166.816 5.26514C166.686 5.14534 166.621 4.98389 166.621 4.78076C166.621 4.57243 166.684 4.40837 166.809 4.28857C166.934 4.16878 167.09 4.10889 167.277 4.10889C167.454 4.10889 167.605 4.16878 167.73 4.28857C167.855 4.40837 167.918 4.57243 167.918 4.78076C167.918 4.98389 167.855 5.14534 167.73 5.26514C167.605 5.37972 167.454 5.43701 167.277 5.43701Z" fill="#735795"/>
</svg>
