<svg width="174" height="57" viewBox="0 0 174 57" fill="none" xmlns="http://www.w3.org/2000/svg">
<path d="M8.96077 13.3195V14H2.94158V13.3855L6.09323 9.81102C6.48526 9.36613 6.798 8.97631 7.03146 8.64154C7.26491 8.30237 7.43229 7.99403 7.5336 7.71653C7.63932 7.43462 7.69218 7.16152 7.69218 6.89723C7.69218 6.50961 7.61509 6.16823 7.46093 5.87311C7.31116 5.57799 7.08652 5.34674 6.78699 5.17935C6.48746 5.01197 6.11746 4.92828 5.67697 4.92828C5.23649 4.92828 4.85327 5.02298 4.52732 5.21239C4.20136 5.4018 3.95029 5.66609 3.77409 6.00526C3.6023 6.34002 3.51641 6.72104 3.51641 7.14831H2.73015C2.73015 6.61973 2.84688 6.1352 3.08033 5.69472C3.31819 5.25424 3.65737 4.90405 4.09785 4.64417C4.53833 4.37988 5.0647 4.24773 5.67697 4.24773C6.25841 4.24773 6.75836 4.35125 7.17681 4.55827C7.59527 4.7609 7.91682 5.05382 8.14147 5.43703C8.37052 5.82025 8.48505 6.28276 8.48505 6.82455C8.48505 7.11527 8.43219 7.40819 8.32647 7.70331C8.22516 7.99844 8.08421 8.29356 7.90361 8.58868C7.72742 8.8794 7.52479 9.16792 7.29574 9.45423C7.0711 9.74054 6.83544 10.0224 6.58877 10.3L3.90624 13.3195H8.96077ZM16.2419 8.36404V9.98281C16.2419 10.6876 16.1759 11.302 16.0437 11.8262C15.9116 12.346 15.7178 12.7777 15.4623 13.1212C15.2112 13.4604 14.9029 13.7137 14.5373 13.8811C14.1761 14.0485 13.762 14.1321 13.2951 14.1321C12.9251 14.1321 12.5859 14.0793 12.2776 13.9736C11.9693 13.8679 11.694 13.7071 11.4517 13.4912C11.2138 13.271 11.0112 12.9957 10.8438 12.6653C10.6764 12.335 10.5487 11.9474 10.4606 11.5025C10.3725 11.0532 10.3285 10.5466 10.3285 9.98281V8.36404C10.3285 7.65486 10.3945 7.04259 10.5267 6.52723C10.6632 6.01186 10.857 5.5846 11.1081 5.24543C11.3636 4.90625 11.6741 4.65518 12.0397 4.4922C12.4053 4.32482 12.8194 4.24113 13.2819 4.24113C13.6519 4.24113 13.9911 4.29619 14.2994 4.40631C14.6121 4.51202 14.8874 4.6706 15.1253 4.88203C15.3676 5.09346 15.5702 5.36436 15.7332 5.69472C15.9006 6.02067 16.0261 6.40609 16.1098 6.85098C16.1979 7.29587 16.2419 7.80022 16.2419 8.36404ZM15.4557 10.0753V8.26493C15.4557 7.82885 15.4248 7.43242 15.3632 7.07563C15.3059 6.71884 15.22 6.40609 15.1055 6.1374C14.991 5.86871 14.8456 5.64406 14.6694 5.46346C14.4976 5.28287 14.295 5.14852 14.0615 5.06042C13.8325 4.96792 13.5726 4.92167 13.2819 4.92167C12.9251 4.92167 12.6102 4.99435 12.3371 5.13971C12.0684 5.28066 11.8437 5.4921 11.6631 5.774C11.4825 6.05151 11.346 6.39949 11.2535 6.81795C11.1654 7.2364 11.1213 7.71873 11.1213 8.26493V10.0753C11.1213 10.507 11.15 10.9012 11.2072 11.258C11.2645 11.6104 11.3526 11.9231 11.4715 12.1962C11.5904 12.4693 11.7358 12.7006 11.9076 12.89C12.0838 13.075 12.2864 13.2159 12.5155 13.3128C12.7489 13.4053 13.0088 13.4516 13.2951 13.4516C13.6607 13.4516 13.9779 13.3789 14.2465 13.2336C14.5152 13.0838 14.7399 12.8658 14.9205 12.5794C15.1011 12.2887 15.2354 11.9341 15.3235 11.5157C15.4116 11.0928 15.4557 10.6127 15.4557 10.0753ZM23.9724 13.3195V14H17.9532V13.3855L21.1048 9.81102C21.4969 9.36613 21.8096 8.97631 22.0431 8.64154C22.2765 8.30237 22.4439 7.99403 22.5452 7.71653C22.6509 7.43462 22.7038 7.16152 22.7038 6.89723C22.7038 6.50961 22.6267 6.16823 22.4725 5.87311C22.3228 5.57799 22.0981 5.34674 21.7986 5.17935C21.4991 5.01197 21.1291 4.92828 20.6886 4.92828C20.2481 4.92828 19.8649 5.02298 19.5389 5.21239C19.213 5.4018 18.9619 5.66609 18.7857 6.00526C18.6139 6.34002 18.528 6.72104 18.528 7.14831H17.7418C17.7418 6.61973 17.8585 6.1352 18.092 5.69472C18.3298 5.25424 18.669 4.90405 19.1095 4.64417C19.5499 4.37988 20.0763 4.24773 20.6886 4.24773C21.27 4.24773 21.77 4.35125 22.1884 4.55827C22.6069 4.7609 22.9284 5.05382 23.1531 5.43703C23.3821 5.82025 23.4967 6.28276 23.4967 6.82455C23.4967 7.11527 23.4438 7.40819 23.3381 7.70331C23.2368 7.99844 23.0958 8.29356 22.9152 8.58868C22.739 8.8794 22.5364 9.16792 22.3074 9.45423C22.0827 9.74054 21.8471 10.0224 21.6004 10.3L18.9179 13.3195H23.9724ZM31.4782 13.3195V14H25.459V13.3855L28.6107 9.81102C29.0027 9.36613 29.3154 8.97631 29.5489 8.64154C29.7823 8.30237 29.9497 7.99403 30.051 7.71653C30.1567 7.43462 30.2096 7.16152 30.2096 6.89723C30.2096 6.50961 30.1325 6.16823 29.9784 5.87311C29.8286 5.57799 29.6039 5.34674 29.3044 5.17935C29.0049 5.01197 28.6349 4.92828 28.1944 4.92828C27.7539 4.92828 27.3707 5.02298 27.0447 5.21239C26.7188 5.4018 26.4677 5.66609 26.2915 6.00526C26.1197 6.34002 26.0338 6.72104 26.0338 7.14831H25.2476C25.2476 6.61973 25.3643 6.1352 25.5978 5.69472C25.8356 5.25424 26.1748 4.90405 26.6153 4.64417C27.0558 4.37988 27.5821 4.24773 28.1944 4.24773C28.7758 4.24773 29.2758 4.35125 29.6942 4.55827C30.1127 4.7609 30.4342 5.05382 30.6589 5.43703C30.8879 5.82025 31.0025 6.28276 31.0025 6.82455C31.0025 7.11527 30.9496 7.40819 30.8439 7.70331C30.7426 7.99844 30.6016 8.29356 30.421 8.58868C30.2448 8.8794 30.0422 9.16792 29.8132 9.45423C29.5885 9.74054 29.3529 10.0224 29.1062 10.3L26.4237 13.3195H31.4782Z" fill="#C85551"/>
<path d="M4.65487 38.7902V40.3707H16.8441V38.7902H4.65487ZM3.91875 32.1002V41.3234H5.56419V33.6591H15.9998V41.2801H17.7102V32.1002H3.91875ZM8.27051 21.3399C7.27459 23.6565 5.49924 26.8391 4.07031 28.766L5.47759 29.3722C6.92818 27.467 8.74683 24.4792 10.0459 21.9678L8.27051 21.3399ZM13.4666 24.8473C15.6967 26.6659 18.1648 29.2856 19.2473 31.0826L20.633 30.0001C19.5072 28.2031 16.9524 25.6483 14.744 23.8947L13.4666 24.8473ZM1.36399 28.0516L1.47224 29.7187C5.60749 29.5454 12.146 29.264 18.2298 28.9392L18.3164 27.3804C12.146 27.6619 5.47759 27.9433 1.36399 28.0516ZM23.0362 26.9041V28.5279H29.4015V26.9041H23.0362ZM33.8831 21.8162V37.8593C33.8831 40.1975 34.4893 40.847 36.5028 40.847C36.9359 40.847 39.5339 40.847 39.9886 40.847C42.1103 40.847 42.5433 39.4398 42.7382 35.4777C42.2835 35.3694 41.5907 35.0447 41.1794 34.7199C41.0278 38.3139 40.8763 39.2449 39.8803 39.2449C39.3174 39.2449 37.1524 39.2449 36.676 39.2449C35.7451 39.2449 35.5502 39.0284 35.5502 37.9026V21.8162H33.8831ZM28.6004 21.8162V41.1501H30.2675V21.8162H28.6004ZM40.9412 25.1504C39.3174 26.6443 36.6327 28.4846 34.2295 29.8053C34.4677 30.1517 34.7924 30.7146 34.9224 31.0826C37.3689 29.7403 40.1401 28.0949 42.132 26.5577L40.9412 25.1504ZM22.365 36.9499L23.1228 38.5737C24.9847 37.7943 27.4313 36.7767 29.7046 35.7808L29.4015 34.3086C26.825 35.3261 24.1187 36.3654 22.365 36.9499ZM50.4458 30.3032V31.7322H64.0857V30.3032H50.4458ZM52.8923 33.2477V34.5684H62.332V33.2477H52.8923ZM53.9532 30.8445C52.9573 32.9879 51.1603 34.8715 49.1684 36.0623C49.4932 36.3004 50.0561 36.7984 50.2726 37.0798C52.2861 35.7375 54.2563 33.6158 55.3605 31.2125L53.9532 30.8445ZM62.0289 33.2477V33.4859C61.7257 37.7294 61.3793 39.3532 60.968 39.7645C60.7948 39.981 60.6216 40.0027 60.2968 40.0027C59.9937 40.0027 59.2792 39.981 58.4565 39.9161C58.673 40.2625 58.8246 40.847 58.8246 41.2584C59.6906 41.3017 60.5133 41.2801 60.9896 41.2584C61.5092 41.2151 61.8989 41.0852 62.2454 40.7171C62.8299 40.0893 63.1763 38.3789 63.5011 33.8972C63.5444 33.6591 63.566 33.2477 63.566 33.2477H62.0289ZM54.0614 26.1463H61.0329V27.8784H54.0614V26.1463ZM54.0614 23.2668H61.0329V24.9772H54.0614V23.2668ZM52.5892 22.0544V29.0908H62.5485V22.0544H52.5892ZM44.4269 26.103V27.6619H50.8572V26.103H44.4269ZM46.9601 21.578V34.8931H48.4973V21.578H46.9601ZM44.0156 35.7592L44.6435 37.383C46.4837 36.4953 48.8437 35.3261 51.052 34.2003L50.7056 32.7714C48.2374 33.9189 45.6827 35.0663 44.0156 35.7592ZM59.2576 33.4859C58.4782 36.1705 56.6595 39.115 54.6244 40.479C55.0357 40.7171 55.5337 41.0852 55.8151 41.41C57.7853 39.9161 59.5823 36.8417 60.4051 34.0921L59.2576 33.4859ZM55.8801 33.5508C54.8192 35.8241 52.5459 38.3139 50.4025 39.4831C50.7922 39.7212 51.2469 40.1326 51.5067 40.479C53.6068 39.1366 55.8801 36.5602 56.9843 34.2003L55.8801 33.5508Z" fill="#C85551"/>
<path d="M77.1791 29.2375L73.058 28.2415L74.64 13.886H90.2845V18.1633H78.9174L78.1752 24.804C78.5788 24.5566 79.1648 24.3092 79.933 24.0618C80.7142 23.8014 81.5931 23.6711 82.5697 23.6711C83.9239 23.6711 85.1348 23.8925 86.2025 24.3352C87.2702 24.7649 88.1752 25.3899 88.9174 26.2102C89.6726 27.0305 90.239 28.0331 90.6166 29.218C91.0072 30.3899 91.2025 31.718 91.2025 33.2024C91.2025 34.5045 91.0072 35.7284 90.6166 36.8743C90.239 38.0071 89.6595 39.0162 88.8783 39.9016C88.097 40.774 87.114 41.4641 85.9291 41.9719C84.7442 42.4667 83.351 42.7141 81.7494 42.7141C80.5385 42.7141 79.3731 42.5383 78.2533 42.1868C77.1465 41.8222 76.1504 41.2948 75.265 40.6047C74.3796 39.9016 73.67 39.0422 73.1361 38.0266C72.6153 37.011 72.3288 35.8456 72.2767 34.5305H77.3744C77.4655 35.4029 77.6999 36.1451 78.0775 36.7571C78.4551 37.3691 78.9499 37.8378 79.5619 38.1633C80.1869 38.4889 80.9095 38.6516 81.7299 38.6516C82.472 38.6516 83.1101 38.5149 83.6439 38.2415C84.1908 37.955 84.64 37.5579 84.9916 37.05C85.3431 36.5422 85.6036 35.9433 85.7728 35.2532C85.9421 34.5631 86.0267 33.8079 86.0267 32.9875C86.0267 32.1933 85.9291 31.4706 85.7338 30.8196C85.5385 30.1555 85.239 29.5826 84.8353 29.1008C84.4317 28.6191 83.9239 28.248 83.3119 27.9875C82.7129 27.7271 82.0098 27.5969 81.2025 27.5969C80.1218 27.5969 79.2885 27.7597 78.7025 28.0852C78.1296 28.4107 77.6218 28.7948 77.1791 29.2375ZM95.4017 39.804C95.4017 39.0227 95.6687 38.3652 96.2025 37.8313C96.7364 37.2974 97.459 37.0305 98.3705 37.0305C99.2819 37.0305 100.005 37.2974 100.538 37.8313C101.072 38.3652 101.339 39.0227 101.339 39.804C101.339 40.5722 101.072 41.2232 100.538 41.7571C100.005 42.2779 99.2819 42.5383 98.3705 42.5383C97.459 42.5383 96.7364 42.2779 96.2025 41.7571C95.6687 41.2232 95.4017 40.5722 95.4017 39.804ZM119.562 13.8079V42.3235H114.386V19.843L107.531 22.1086V17.929L118.976 13.8079H119.562ZM134.777 25.8196H137.687C138.716 25.8196 139.562 25.6438 140.226 25.2922C140.903 24.9277 141.404 24.4329 141.73 23.8079C142.068 23.1698 142.238 22.4342 142.238 21.6008C142.238 20.7805 142.088 20.0709 141.788 19.4719C141.489 18.8599 141.033 18.3912 140.421 18.0657C139.822 17.7271 139.054 17.5579 138.117 17.5579C137.361 17.5579 136.665 17.7076 136.027 18.0071C135.402 18.3066 134.9 18.7362 134.523 19.2961C134.158 19.843 133.976 20.5006 133.976 21.2688H128.8C128.8 19.7323 129.204 18.3847 130.011 17.2258C130.831 16.054 131.938 15.136 133.331 14.4719C134.725 13.8079 136.281 13.4758 137.999 13.4758C139.874 13.4758 141.515 13.7883 142.921 14.4133C144.341 15.0253 145.441 15.9303 146.222 17.1282C147.016 18.3261 147.413 19.8105 147.413 21.5813C147.413 22.4277 147.212 23.274 146.808 24.1204C146.417 24.9537 145.838 25.7089 145.07 26.386C144.314 27.05 143.384 27.5904 142.277 28.0071C141.183 28.4107 139.926 28.6125 138.507 28.6125H134.777V25.8196ZM134.777 29.804V27.05H138.507C140.109 27.05 141.495 27.2389 142.667 27.6165C143.852 27.981 144.829 28.5019 145.597 29.179C146.365 29.843 146.932 30.6178 147.296 31.5032C147.674 32.3886 147.863 33.3391 147.863 34.3547C147.863 35.6829 147.615 36.8678 147.12 37.9094C146.626 38.9381 145.929 39.8105 145.031 40.5266C144.145 41.2428 143.104 41.7896 141.906 42.1672C140.708 42.5318 139.412 42.7141 138.019 42.7141C136.808 42.7141 135.63 42.5514 134.484 42.2258C133.351 41.8873 132.329 41.386 131.417 40.7219C130.506 40.0448 129.783 39.1985 129.249 38.1829C128.716 37.1542 128.449 35.9628 128.449 34.6086H133.624C133.624 35.3899 133.813 36.0865 134.191 36.6985C134.581 37.3105 135.115 37.7922 135.792 38.1438C136.482 38.4823 137.257 38.6516 138.117 38.6516C139.067 38.6516 139.881 38.4823 140.558 38.1438C141.248 37.7922 141.775 37.2974 142.14 36.6594C142.505 36.0084 142.687 35.2336 142.687 34.3352C142.687 33.2675 142.485 32.4016 142.081 31.7375C141.678 31.0735 141.098 30.5852 140.343 30.2727C139.601 29.9602 138.716 29.804 137.687 29.804H134.777Z" fill="#C85551"/>
<path d="M156.473 40.2183L167.848 40.2183L167.848 41.1792L156.473 41.1792L156.473 40.2183ZM161.707 34.9214L162.535 34.9214L162.535 40.5386L161.707 40.5386L161.707 34.9214ZM156.473 34.1323L157.301 34.1323L157.301 40.5386L156.473 40.5386L156.473 34.1323ZM156.473 32.2026L156.473 28.5073C156.473 27.7209 156.6 27.0386 156.855 26.4604C157.111 25.8823 157.488 25.437 157.988 25.1245C158.483 24.8068 159.092 24.6479 159.816 24.6479C160.353 24.6479 160.84 24.7625 161.277 24.9917C161.715 25.2157 162.082 25.5256 162.379 25.9214C162.671 26.3172 162.871 26.7756 162.98 27.2964L163.105 27.6323L163.105 31.5776L162.285 31.5933L162.285 28.2886C162.285 27.6948 162.171 27.2 161.941 26.8042C161.712 26.4084 161.41 26.1115 161.035 25.9136C160.655 25.7104 160.249 25.6089 159.816 25.6089C159.301 25.6089 158.855 25.7209 158.48 25.9448C158.1 26.1636 157.809 26.4891 157.605 26.9214C157.402 27.3537 157.301 27.8823 157.301 28.5073L157.301 31.2417L167.848 31.2417L167.848 32.2026L156.473 32.2026ZM167.848 25.1792L162.762 28.1245L162.754 27.0933L167.746 24.1558L167.848 24.1558L167.848 25.1792ZM156.473 20.8354L167.848 20.8354L167.848 21.7964L156.473 21.7964L156.473 20.8354ZM167.277 18.0464C167.095 18.0464 166.941 17.9891 166.816 17.8745C166.686 17.7547 166.621 17.5933 166.621 17.3901C166.621 17.1818 166.684 17.0177 166.809 16.8979C166.934 16.7782 167.09 16.7183 167.277 16.7183C167.454 16.7183 167.605 16.7782 167.73 16.8979C167.855 17.0177 167.918 17.1818 167.918 17.3901C167.918 17.5933 167.855 17.7547 167.73 17.8745C167.605 17.9891 167.454 18.0464 167.277 18.0464Z" fill="#C85551"/>
</svg>
