<svg width="189" height="157" viewBox="0 0 189 157" fill="none" xmlns="http://www.w3.org/2000/svg">
<path d="M15.7626 104.025C16.9332 105.452 18.1519 106.847 19.4187 108.194C44.37 133.495 78.6057 148.582 114.349 141.544C125.567 139.407 136.276 135.158 145.907 129.022C155.704 122.608 162.391 114.383 168.244 104.314C174.693 93.7815 178.739 81.9565 180.094 69.6816C174.867 59.7088 166.416 51.8685 160.146 42.5209C155.143 35.0974 151.471 26.5997 146.243 19.4487C145.677 18.7005 145.1 17.9629 144.512 17.2361C143.246 15.6635 141.863 14.1895 140.374 12.8269C130.593 3.92829 116.85 1.21863 103.765 0.352821C87.0884 -0.769524 69.8984 0.609361 54.6006 7.4717C44.8156 11.9366 36.1371 18.5064 29.1844 26.7119C28.1261 27.9465 27.0997 29.2292 26.1216 30.5279C16.3856 43.3285 10.8915 58.8502 10.4068 74.9246C10.2456 84.8839 12.0661 94.7759 15.7626 104.025V104.025Z" fill="#C85551"/>
<path d="M107.71 144.863C73.9076 148.999 42.3337 134.249 18.7295 110.744C23.5344 120.321 30.2655 128.804 38.5013 135.66C39.1908 136.349 39.8963 137.006 40.6179 137.648C54.8734 150.282 74.2122 155.285 93.0379 156.647C117.572 158.379 143.646 153.874 162.76 138.065C181.073 122.929 190.79 95.7362 182.003 73.7222C180.062 86.9498 174.193 99.6162 166.929 110.776C153.78 130.978 131.379 141.977 107.71 144.863Z" fill="#C85551"/>
<path d="M17.9115 109.781C18.2162 110.118 18.5529 110.423 18.8736 110.744C42.3976 134.249 74.0357 148.999 107.71 144.863C131.314 141.977 153.716 130.978 166.865 110.776C174.129 99.5521 179.998 86.9498 181.938 73.7222C182.786 68.1031 182.84 62.3928 182.099 56.7587C180.062 42.0239 172.574 25.8141 158.158 19.5931C153.881 17.7631 149.236 16.9561 144.592 17.2361C145.19 17.963 145.768 18.7005 146.324 19.4488H147.542C164.428 20.0901 174.947 35.4823 178.731 50.4736C180.289 56.7606 180.777 63.2649 180.175 69.7138C178.819 81.9887 174.773 93.8136 168.324 104.346C162.471 114.415 155.785 122.705 145.987 129.054C136.356 135.19 125.647 139.439 114.429 141.576C78.686 148.615 44.4502 133.559 19.499 108.226C18.2322 106.879 17.0135 105.485 15.8429 104.058C5.17934 91.1345 -0.882099 74.604 4.0889 57.8811C5.78244 52.0984 8.60974 46.7104 12.4061 42.0309C16.2025 37.3513 20.8921 33.4738 26.2018 30.6241C27.18 29.3254 28.2063 28.0427 29.2646 26.8081C23.0724 29.3517 17.4946 33.1877 12.9041 38.0596C8.31362 42.9316 4.81621 48.7272 2.64567 55.0592C-4.53823 74.9247 3.81629 95.1589 17.9115 109.781Z" fill="#F9C270"/>
<path d="M185.45 47.3148C186.774 45.9636 187.641 44.2313 187.928 42.3617C188.216 40.4922 187.91 38.5796 187.054 36.893C186.727 34.9847 185.734 33.2542 184.251 32.0094C182.768 30.7645 180.892 30.0861 178.956 30.0948C177.299 30.1616 175.683 30.6287 174.246 31.4562C172.81 32.2837 171.595 33.4469 170.706 34.8463C169.817 36.2458 169.281 37.8397 169.142 39.4918C169.004 41.1438 169.268 42.8048 169.912 44.3325C170.575 45.7213 171.556 46.9348 172.775 47.8752C173.994 48.8157 175.416 49.4568 176.928 49.747C178.44 50.0371 179.998 49.9682 181.479 49.5457C182.959 49.1233 184.319 48.3591 185.45 47.3148V47.3148Z" fill="#C85551"/>
<path d="M87.3162 38.045C87.4156 38.1018 87.5212 38.1471 87.631 38.1799C88.6463 38.4004 89.5966 38.8535 90.4072 39.5034C91.2177 40.1533 91.8665 40.9824 92.3024 41.9254C92.7384 42.8685 92.9496 43.8998 92.9195 44.9384C92.8894 45.9769 92.6187 46.9942 92.1289 47.9105C90.7528 50.512 90.0712 53.4246 90.1499 56.3666C90.3156 59.5078 91.3884 62.5336 93.2385 65.0776C94.348 63.7582 95.4274 62.4238 96.5519 61.1194C103.251 53.2452 110.742 46.0808 118.907 39.7392C119.881 39.048 121.07 38.7247 122.26 38.8266C123.451 38.9285 124.567 39.449 125.41 40.2957C126.253 41.1424 126.769 42.2605 126.865 43.4515C126.962 44.6425 126.634 45.8292 125.939 46.801C122.297 51.4947 118.376 55.9657 114.199 60.1899C113.374 61.0295 112.535 61.1344 111.845 60.4747C111.688 60.3125 111.568 60.1185 111.493 59.9059C111.418 59.6933 111.39 59.467 111.409 59.2424C111.429 59.0178 111.497 58.8 111.609 58.6039C111.72 58.4079 111.872 58.238 112.055 58.1058C116.049 54.0555 119.808 49.7804 123.315 45.3017C124.319 44.0123 124.274 43.3376 123.075 42.303C122.93 42.1378 122.752 42.0036 122.554 41.9084C122.356 41.8133 122.14 41.7592 121.92 41.7494C121.7 41.7396 121.481 41.7743 121.275 41.8514C121.069 41.9285 120.88 42.0464 120.721 42.1981C111.834 49.1135 103.757 57.0099 96.6419 65.7373L96.432 66.0372C97.8807 66.7347 99.0605 67.8882 99.7905 69.3207L103.134 66.517C103.376 66.2941 103.685 66.1572 104.013 66.1274C104.341 66.0976 104.67 66.1765 104.948 66.352C105.208 66.4934 105.413 66.7181 105.53 66.9901C105.647 67.262 105.669 67.5654 105.593 67.8514C105.453 68.2439 105.215 68.5946 104.903 68.8709C104.004 69.6805 103.059 70.3702 102.039 71.3148C105.274 72.525 108.854 72.4173 112.01 71.0149C113.841 70.0381 115.85 69.4414 117.917 69.2607C120.432 69.0544 122.957 69.5222 125.231 70.6158C127.505 71.7095 129.447 73.3895 130.856 75.4829C132.327 77.4 133.263 79.6729 133.569 82.0699C133.874 84.4668 133.538 86.9019 132.596 89.1266C127.168 102.92 117.123 111.391 102.609 114.015C92.4878 115.763 82.0855 113.446 73.6631 107.567C65.2407 101.688 59.4789 92.723 57.6298 82.6196C57.3449 81.1203 57.2099 79.516 57 77.9717V73.1739C57.1349 72.1244 57.2549 71.0599 57.4199 69.9954C58.824 59.999 64.0743 50.9455 72.0532 44.7619C76.0102 41.6215 80.5659 39.3207 85.442 38L87.3162 38.045ZM90.0749 65.8723C89.775 65.3325 89.4901 64.8377 89.2353 64.3729C88.9804 63.9082 88.7105 63.3084 88.5006 62.7537C87.4879 60.2202 87.0346 57.4978 87.1718 54.7729C87.3089 52.048 88.0333 49.3849 89.2953 46.9659C89.7069 46.2026 89.9086 45.3438 89.88 44.477C89.6401 41.8532 87.3012 40.5488 84.6474 41.4784C76.8327 44.0548 70.1405 49.2379 65.6914 56.1599C61.2424 63.0818 59.3067 71.3222 60.2086 79.501C60.9258 87.4038 64.3467 94.8174 69.8942 100.491C78.995 109.847 90.1349 113.55 102.879 110.987C115.623 108.423 124.754 100.596 129.672 88.302C130.76 85.6896 130.803 82.7589 129.792 80.1157C129.245 78.5597 128.373 77.1381 127.234 75.9455C126.095 74.753 124.715 73.8169 123.185 73.1998C121.656 72.5826 120.013 72.2986 118.365 72.3665C116.717 72.4344 115.103 72.8528 113.629 73.5937C111.036 74.9808 108.069 75.5059 105.158 75.093C103.554 74.8681 101.994 74.4783 100.375 74.1635L100.21 74.6433C100.21 74.8382 100.09 75.0331 100 75.213C99.4677 76.5516 98.5425 77.6976 97.3463 78.5004C96.1501 79.3032 94.739 79.7252 93.2984 79.7109C90.2229 79.6608 87.2526 80.8305 85.0372 82.9644V82.9644C84.8167 83.2068 84.5229 83.3703 84.2007 83.4299C83.8785 83.4895 83.5456 83.4418 83.253 83.2943C82.9601 83.1526 82.7212 82.9194 82.5724 82.63C82.4237 82.3406 82.3732 82.0107 82.4284 81.69C82.6034 79.9068 82.8787 78.1347 83.253 76.3825C84.2725 72.1244 85.9817 68.2412 90.0749 65.8723V65.8723ZM85.7119 78.5265C86.5065 78.1516 87.1212 77.8368 87.751 77.5819C89.4934 76.9646 91.3299 76.6551 93.1785 76.6673C94.0974 76.6647 94.9924 76.3739 95.7374 75.836C96.4824 75.2981 97.0399 74.5401 97.3316 73.6687C97.5825 72.8146 97.5535 71.9026 97.2486 71.0662C96.9437 70.2299 96.3791 69.5131 95.6374 69.0208C94.8029 68.4545 93.8022 68.185 92.7961 68.2557C91.7901 68.3264 90.837 68.7331 90.0899 69.4106C87.556 71.8245 86.4916 75.0181 85.7119 78.5265V78.5265Z" fill="#F9C270"/>
<path d="M77.2858 65.8873C77.2857 67.0993 76.9274 68.2841 76.2558 69.293C75.5842 70.3018 74.6294 71.0897 73.5114 71.5575C72.3934 72.0253 71.162 72.1522 69.9721 71.9222C68.7822 71.6922 67.6867 71.1156 66.8236 70.2649C65.9604 69.4141 65.368 68.3272 65.1207 67.1408C64.8735 65.9543 64.9825 64.7213 65.434 63.5966C65.8855 62.4719 66.6593 61.5057 67.6583 60.8196C68.6573 60.1334 69.8368 59.7579 71.0486 59.7401C71.8656 59.72 72.6783 59.8645 73.4383 60.1651C74.1982 60.4658 74.8898 60.9164 75.4718 61.49C76.0539 62.0637 76.5145 62.7487 76.8262 63.5042C77.1378 64.2596 77.2941 65.0701 77.2858 65.8873V65.8873ZM74.2872 65.8873C74.2811 65.2598 74.0885 64.6483 73.7338 64.1305C73.3792 63.6127 72.8786 63.2122 72.2957 62.9797C71.7127 62.7472 71.0738 62.6934 70.4602 62.825C69.8466 62.9566 69.286 63.2678 68.8497 63.7189C68.4134 64.17 68.1213 64.7407 68.0102 65.3583C67.8991 65.976 67.9743 66.6127 68.2261 67.1876C68.4779 67.7624 68.895 68.2493 69.4243 68.5865C69.9536 68.9236 70.5712 69.0957 71.1986 69.0809C71.616 69.0751 72.028 68.9864 72.4108 68.8199C72.7935 68.6534 73.1393 68.4125 73.4281 68.1111C73.7169 67.8098 73.943 67.454 74.093 67.0645C74.2431 66.675 74.3142 66.2596 74.3022 65.8423L74.2872 65.8873Z" fill="#F9C270"/>
<path d="M86.2517 94.2843C87.4717 94.2902 88.6625 94.6583 89.6732 95.3417C90.6838 96.025 91.4688 96.9931 91.9288 98.1231C92.3888 99.253 92.503 100.494 92.257 101.689C92.0109 102.884 91.4157 103.979 90.5467 104.835C89.6778 105.692 88.5741 106.271 87.3757 106.499C86.1773 106.728 84.938 106.596 83.8148 106.119C82.6917 105.643 81.7353 104.844 81.0668 103.823C80.3982 102.802 80.0476 101.606 80.0595 100.386C80.0753 98.7574 80.7357 97.2008 81.8961 96.0573C83.0565 94.9137 84.6225 94.2762 86.2517 94.2843V94.2843ZM86.2517 97.2829C85.8335 97.2706 85.4171 97.3434 85.0279 97.4969C84.6387 97.6504 84.2848 97.8814 83.9875 98.1759C83.6903 98.4703 83.456 98.822 83.2988 99.2098C83.1416 99.5975 83.0648 100.013 83.0731 100.431C83.0672 100.843 83.1429 101.253 83.2961 101.635C83.4492 102.018 83.6766 102.366 83.9652 102.66C84.2538 102.955 84.5979 103.189 84.9775 103.349C85.3571 103.509 85.7646 103.593 86.1767 103.595C86.6095 103.625 87.0438 103.565 87.4526 103.42C87.8614 103.275 88.2359 103.048 88.553 102.752C88.8701 102.456 89.123 102.098 89.2959 101.7C89.4688 101.302 89.558 100.873 89.558 100.439C89.558 100.005 89.4688 99.576 89.2959 99.1782C89.123 98.7803 88.8701 98.4223 88.553 98.1263C88.2359 97.8303 87.8614 97.6027 87.4526 97.4576C87.0438 97.3125 86.6095 97.253 86.1767 97.2829H86.2517Z" fill="#F9C270"/>
<path d="M71.4985 92.4252C70.665 92.4549 69.8342 92.3151 69.0563 92.0143C68.2784 91.7134 67.5696 91.2578 66.973 90.675C66.3764 90.0922 65.9043 89.3944 65.5854 88.6238C65.2664 87.8532 65.1071 87.0258 65.1173 86.1919C65.1274 85.3579 65.3068 84.5347 65.6445 83.7721C65.9821 83.0095 66.4711 82.3233 67.0817 81.7552C67.6924 81.1872 68.412 80.749 69.1969 80.4672C69.9819 80.1854 70.8159 80.0658 71.6484 80.1158C73.2289 80.2107 74.7122 80.9104 75.7907 82.0696C76.8691 83.2289 77.46 84.7588 77.4407 86.342C77.4214 87.9252 76.7934 89.4402 75.6871 90.5729C74.5807 91.7055 73.0808 92.3688 71.4985 92.4252V92.4252ZM71.4985 89.4266C72.3185 89.4193 73.1038 89.0954 73.6906 88.5226C74.2773 87.9499 74.62 87.1725 74.647 86.353C74.6281 85.5225 74.2908 84.731 73.7048 84.1422C73.1187 83.5534 72.3289 83.2123 71.4985 83.1894C70.6595 83.1894 69.8548 83.5227 69.2615 84.116C68.6683 84.7093 68.3349 85.5139 68.3349 86.353C68.3349 87.192 68.6683 87.9967 69.2615 88.5899C69.8548 89.1832 70.6595 89.5165 71.4985 89.5165V89.4266Z" fill="#F9C270"/>
<path d="M106.657 106.219C105.02 106.215 103.451 105.563 102.294 104.405C101.136 103.248 100.484 101.679 100.48 100.042C100.558 98.4621 101.241 96.9728 102.386 95.8823C103.532 94.7918 105.053 94.1836 106.635 94.1836C108.217 94.1836 109.738 94.7918 110.883 95.8823C112.029 96.9728 112.712 98.4621 112.79 100.042C112.79 101.672 112.145 103.237 110.996 104.394C109.848 105.551 108.288 106.207 106.657 106.219V106.219ZM109.776 100.222C109.809 99.7944 109.754 99.3647 109.614 98.9594C109.474 98.5542 109.252 98.1819 108.963 97.8657C108.673 97.5495 108.322 97.296 107.931 97.1211C107.539 96.9461 107.116 96.8533 106.687 96.8484C105.848 96.8484 105.044 97.1817 104.45 97.7749C103.857 98.3682 103.524 99.1729 103.524 100.012C103.524 100.851 103.857 101.656 104.45 102.249C105.044 102.842 105.848 103.175 106.687 103.175C107.495 103.172 108.27 102.853 108.846 102.288C109.423 101.722 109.756 100.954 109.776 100.147V100.222Z" fill="#F9C270"/>
<path d="M120.676 91.5105C119.845 91.5243 119.02 91.3699 118.25 91.0565C117.48 90.7431 116.782 90.2773 116.197 89.687C115.612 89.0966 115.152 88.3941 114.846 87.6216C114.539 86.849 114.392 86.0225 114.413 85.1916C114.435 84.3608 114.624 83.5428 114.969 82.787C115.315 82.0311 115.81 81.353 116.424 80.7933C117.039 80.2337 117.76 79.8042 118.545 79.5305C119.33 79.2569 120.162 79.1449 120.991 79.2012C122.576 79.3088 124.059 80.0249 125.129 81.1999C126.2 82.3749 126.774 83.918 126.734 85.5068C126.693 87.0956 126.04 88.6072 124.911 89.726C123.783 90.8448 122.265 91.4841 120.676 91.5105V91.5105ZM120.811 88.5119C121.244 88.5417 121.678 88.4823 122.087 88.3372C122.495 88.1921 122.87 87.9645 123.187 87.6685C123.504 87.3725 123.757 87.0144 123.93 86.6166C124.103 86.2188 124.192 85.7896 124.192 85.3558C124.192 84.9221 124.103 84.4929 123.93 84.0951C123.757 83.6972 123.504 83.3392 123.187 83.0432C122.87 82.7472 122.495 82.5196 122.087 82.3745C121.678 82.2294 121.244 82.1699 120.811 82.1998C120.011 82.2549 119.263 82.6114 118.716 83.1972C118.169 83.783 117.865 84.5545 117.865 85.3558C117.865 86.1572 118.169 86.9287 118.716 87.5145C119.263 88.1003 120.011 88.4568 120.811 88.5119Z" fill="#F9C270"/>
</svg>
