<svg width="189" height="157" viewBox="0 0 189 157" fill="none" xmlns="http://www.w3.org/2000/svg">
<path d="M15.7626 104.025C16.9332 105.452 18.1519 106.847 19.4187 108.194C44.37 133.495 78.6057 148.582 114.349 141.544C125.567 139.407 136.276 135.158 145.907 129.022C155.704 122.608 162.391 114.383 168.244 104.314C174.693 93.7815 178.739 81.9565 180.094 69.6816C174.867 59.7088 166.416 51.8685 160.146 42.5209C155.143 35.0974 151.471 26.5997 146.243 19.4487C145.677 18.7005 145.1 17.9629 144.512 17.2361C143.246 15.6635 141.863 14.1895 140.374 12.8269C130.593 3.92829 116.85 1.21863 103.765 0.352821C87.0884 -0.769524 69.8984 0.609361 54.6006 7.4717C44.8156 11.9366 36.1371 18.5064 29.1844 26.7119C28.1261 27.9465 27.0997 29.2292 26.1216 30.5279C16.3856 43.3285 10.8915 58.8502 10.4068 74.9246C10.2456 84.8839 12.0661 94.7759 15.7626 104.025Z" fill="#BDBDBD"/>
<path d="M107.71 144.863C73.9076 148.999 42.3337 134.249 18.7295 110.744C23.5344 120.321 30.2655 128.804 38.5013 135.66C39.1908 136.349 39.8963 137.006 40.6179 137.648C54.8734 150.282 74.2122 155.285 93.0379 156.647C117.572 158.379 143.646 153.874 162.76 138.065C181.073 122.929 190.79 95.7362 182.003 73.7222C180.062 86.9498 174.193 99.6162 166.929 110.776C153.78 130.978 131.379 141.977 107.71 144.863Z" fill="#BDBDBD"/>
<path d="M17.9115 109.781C18.2162 110.118 18.5529 110.423 18.8736 110.744C42.3976 134.249 74.0357 148.999 107.71 144.863C131.314 141.977 153.716 130.978 166.865 110.776C174.129 99.5521 179.998 86.9498 181.938 73.7222C182.786 68.1031 182.84 62.3928 182.099 56.7587C180.062 42.0239 172.574 25.8141 158.158 19.5931C153.881 17.7631 149.236 16.9561 144.592 17.2361C145.19 17.963 145.768 18.7005 146.324 19.4488H147.542C164.428 20.0901 174.947 35.4823 178.731 50.4736C180.289 56.7606 180.777 63.2649 180.175 69.7138C178.819 81.9887 174.773 93.8136 168.324 104.346C162.471 114.415 155.785 122.705 145.987 129.054C136.356 135.19 125.647 139.439 114.429 141.576C78.686 148.615 44.4502 133.559 19.499 108.226C18.2322 106.879 17.0135 105.485 15.8429 104.058C5.17934 91.1345 -0.882099 74.604 4.0889 57.8811C5.78244 52.0984 8.60975 46.7104 12.4061 42.0309C16.2025 37.3513 20.8921 33.4738 26.2018 30.6241C27.18 29.3254 28.2063 28.0427 29.2646 26.8081C23.0724 29.3517 17.4946 33.1877 12.9041 38.0596C8.31362 42.9316 4.81621 48.7272 2.64567 55.0592C-4.53823 74.9247 3.81629 95.1589 17.9115 109.781Z" fill="#E0E0E0"/>
<path d="M185.45 47.3148C186.774 45.9636 187.641 44.2313 187.928 42.3617C188.216 40.4922 187.91 38.5796 187.054 36.893C186.727 34.9847 185.734 33.2542 184.251 32.0094C182.768 30.7645 180.892 30.0861 178.956 30.0948C177.299 30.1616 175.683 30.6287 174.246 31.4562C172.81 32.2837 171.595 33.4469 170.706 34.8463C169.817 36.2458 169.281 37.8397 169.142 39.4918C169.004 41.1438 169.268 42.8048 169.912 44.3325C170.575 45.7213 171.556 46.9348 172.775 47.8752C173.994 48.8157 175.416 49.4568 176.928 49.747C178.44 50.0371 179.998 49.9682 181.479 49.5457C182.959 49.1233 184.319 48.3591 185.45 47.3148Z" fill="#BDBDBD"/>
<path d="M54.0299 101.325C54.1649 101.145 54.2698 100.965 54.4048 100.8C54.5393 100.625 54.7095 100.479 54.904 100.374C55.0986 100.268 55.3133 100.205 55.534 100.188C55.7547 100.171 55.9766 100.201 56.185 100.275C56.3934 100.35 56.5838 100.467 56.7437 100.62C56.9007 100.769 57.0257 100.948 57.1112 101.146C57.1966 101.345 57.2408 101.559 57.2408 101.775C57.2408 101.991 57.1966 102.205 57.1112 102.403C57.0257 102.602 56.9007 102.781 56.7437 102.929C56.5833 103.081 56.3936 103.199 56.1862 103.275C55.9788 103.35 55.758 103.383 55.5376 103.37C55.3171 103.358 55.1015 103.3 54.9041 103.201C54.7067 103.102 54.5317 102.964 54.3897 102.794L54 102.285L54.0299 101.325Z" fill="white"/>
<path d="M136.957 44.1263C136.913 45.4375 136.598 46.7255 136.033 47.9097C135.468 49.0938 134.665 50.1486 133.673 51.0081L115.112 67.6505C114.032 68.6251 112.998 69.6446 111.963 70.6491C111.755 70.8056 111.587 71.0083 111.47 71.2412C111.354 71.474 111.294 71.7308 111.294 71.991C111.294 72.2513 111.354 72.508 111.47 72.7409C111.587 72.9738 111.755 73.1764 111.963 73.3329C113.283 74.6823 114.632 76.0017 115.967 77.3361C116.827 78.1027 117.516 79.0427 117.988 80.0944C118.46 81.1461 118.703 82.2857 118.703 83.4383C118.703 84.5909 118.46 85.7305 117.988 86.7822C117.516 87.8339 116.827 88.7739 115.967 89.5405L96.2206 109.316C94.9312 110.606 94.2415 110.606 92.9521 109.316L61.8714 78.2207C60.5819 76.9313 60.5819 76.2416 61.8714 74.9672L81.6173 55.2212C82.5702 54.1817 83.765 53.3938 85.0957 52.9272C86.5849 52.4123 88.1918 52.3423 89.7201 52.7257C91.2485 53.1091 92.632 53.9294 93.7018 55.0863C95.0212 56.3907 96.3256 57.725 97.645 59.0295C98.9644 60.3339 99.6091 60.2139 100.644 59.0295C103.972 55.3711 107.256 51.6978 110.539 48.0095C113.823 44.3212 116.746 40.9027 119.88 37.3494C121.187 35.8402 122.928 34.7711 124.866 34.2881C126.803 33.8051 128.842 33.9317 130.705 34.6506C132.596 35.3939 134.211 36.703 135.33 38.399C136.449 40.0951 137.018 42.0952 136.957 44.1263ZM82.142 93.8135C82.2922 93.5697 82.4628 93.339 82.6518 93.1239C84.9308 90.8149 87.1498 88.536 89.5187 86.242C89.762 85.9928 90.0279 85.7669 90.3133 85.5673C90.5996 85.281 90.988 85.1202 91.3929 85.1202C91.5933 85.1202 91.7918 85.1597 91.9771 85.2364C92.1623 85.3131 92.3306 85.4255 92.4723 85.5673C92.6141 85.7091 92.7265 85.8774 92.8032 86.0626C92.8799 86.2478 92.9194 86.4463 92.9194 86.6468C92.9194 86.8473 92.8799 87.0458 92.8032 87.231C92.7265 87.4163 92.6141 87.5846 92.4723 87.7263C92.2759 88.0142 92.0498 88.2805 91.7976 88.521L84.301 96.0175L88.799 100.515L89.3687 99.9607L96.2506 93.0939C96.4724 92.8642 96.7132 92.6535 96.9703 92.4642C97.2761 92.2624 97.6413 92.1704 98.0063 92.2031C98.3712 92.2358 98.7143 92.3912 98.9794 92.6441C99.237 92.906 99.3969 93.2484 99.4324 93.6141C99.4678 93.9798 99.3767 94.3466 99.1742 94.6532C98.9881 94.9219 98.7718 95.1684 98.5295 95.3878L91.6177 102.315L91.063 102.899L94.3615 106.213L110.464 90.3651L80.9276 60.8286L65.0499 76.6464L68.3184 79.9299L68.9181 79.3602L76.0698 72.2234C76.205 72.0337 76.3796 71.8753 76.5815 71.7592C76.7835 71.6431 77.0082 71.5719 77.2402 71.5506C77.4722 71.5292 77.7061 71.5582 77.9258 71.6355C78.1456 71.7128 78.3462 71.8366 78.5137 71.9985C78.6823 72.1662 78.813 72.368 78.897 72.5904C78.9811 72.8129 79.0164 73.0507 79.0008 73.288C78.9852 73.5252 78.9189 73.7564 78.8065 73.9658C78.694 74.1753 78.5379 74.3583 78.3488 74.5024C76.9544 75.9267 75.5301 77.3211 74.1207 78.7454L70.6423 82.2089L75.3202 86.8867C75.4436 86.6721 75.5893 86.4711 75.7549 86.287C78.0739 83.9481 80.4029 81.6191 82.7418 79.3002C82.9647 79.0836 83.2111 78.8925 83.4764 78.7304C83.7789 78.5507 84.132 78.4753 84.4815 78.5159C84.831 78.5565 85.1574 78.711 85.4105 78.9553C85.6706 79.1954 85.8374 79.5198 85.8813 79.871C85.9252 80.2223 85.8434 80.5777 85.6505 80.8745C85.4596 81.171 85.233 81.4429 84.9757 81.6841L78.0489 88.6109L77.4792 89.2256L82.142 93.8135ZM83.2515 58.1898L113.043 87.9812C113.65 87.3628 114.211 86.7014 114.722 86.0021C115.332 85.0337 115.58 83.8804 115.421 82.7469C115.262 81.6133 114.706 80.5728 113.853 79.81C112.353 78.3106 110.674 76.7214 109.205 75.0721C108.459 74.2217 108.048 73.1294 108.048 71.9985C108.048 70.8677 108.459 69.7753 109.205 68.9249C109.639 68.4002 110.119 67.9354 110.464 67.5606L103.567 60.6487C103.417 60.8286 103.222 61.0835 102.998 61.3084C102.537 61.8809 101.953 62.3429 101.29 62.6603C100.627 62.9776 99.9018 63.1424 99.1668 63.1424C98.4318 63.1424 97.7061 62.9776 97.0432 62.6603C96.3803 62.3429 95.7969 61.8809 95.336 61.3084L91.3779 57.3652C90.8506 56.7869 90.1941 56.3414 89.4619 56.0652C88.7297 55.789 87.9426 55.6899 87.1648 55.7759C85.5955 56.0396 84.1913 56.9058 83.2515 58.1898ZM113.073 65.1167L117.676 60.9786C122.264 56.8854 126.867 52.7923 131.424 48.6692C132.252 47.9648 132.888 47.0634 133.274 46.0481C133.661 45.0328 133.785 43.9365 133.635 42.8605C133.486 41.7845 133.068 40.7635 132.419 39.892C131.771 39.0204 130.913 38.3264 129.925 37.8741C128.63 37.2801 127.176 37.1256 125.785 37.4342C124.394 37.7427 123.141 38.4974 122.219 39.5833C119.1 43.1217 115.997 46.6901 112.893 50.2435L106.011 58.0849L113.073 65.1167Z" fill="white"/>
<path d="M73.9858 95.3877C74.4955 95.7775 75.0953 96.0024 75.3052 96.4372C75.4413 96.9277 75.4413 97.446 75.3052 97.9365C75.3052 98.2214 74.9304 98.4463 74.7055 98.6862L66.3393 107.037C66.101 107.293 65.8286 107.515 65.5297 107.697C65.2454 107.977 64.8613 108.133 64.462 108.131C64.0628 108.128 63.6809 107.966 63.4006 107.682C63.1203 107.398 62.9644 107.014 62.9672 106.614C62.97 106.215 63.1313 105.833 63.4156 105.553C63.5805 105.273 63.7822 105.015 64.0154 104.788C66.8341 101.97 69.6527 99.136 72.4864 96.3323C72.96 95.9776 73.4614 95.6617 73.9858 95.3877Z" fill="white"/>
<path d="M58.408 97.337C58.6356 96.8036 58.9275 96.3001 59.2775 95.8377C61.4215 93.6487 63.5955 91.4747 65.7696 89.3306C65.9073 89.137 66.0855 88.9757 66.292 88.858C66.4984 88.7403 66.7281 88.6691 66.9649 88.6493C67.2017 88.6294 67.44 88.6615 67.6631 88.7431C67.8862 88.8248 68.0889 88.9542 68.2569 89.1222C68.4249 89.2903 68.5543 89.4929 68.636 89.716C68.7176 89.9392 68.7497 90.1775 68.7298 90.4143C68.71 90.6511 68.6388 90.8807 68.5211 91.0871C68.4034 91.2936 68.2422 91.4719 68.0485 91.6096C65.8895 93.7986 63.7155 95.9576 61.5415 98.1316C61.3333 98.4211 61.0288 98.6268 60.6826 98.712C60.3363 98.7972 59.9711 98.7562 59.6523 98.5964C59.1763 98.2418 58.7568 97.8172 58.408 97.337Z" fill="white"/>
<path d="M74.4806 108.717C74.7178 108.228 74.9988 107.761 75.3202 107.322C76.7146 105.823 78.1539 104.444 79.6082 103.034C79.7511 102.853 79.9315 102.705 80.137 102.6C80.3424 102.495 80.568 102.435 80.7986 102.425C81.0292 102.415 81.2592 102.455 81.4729 102.542C81.6867 102.629 81.8791 102.761 82.0371 102.929C82.188 103.094 82.3038 103.288 82.3775 103.499C82.4512 103.71 82.4813 103.934 82.4658 104.157C82.4504 104.38 82.3898 104.597 82.2878 104.796C82.1857 104.995 82.0443 105.171 81.8722 105.313C80.4479 106.813 79.0085 108.192 77.5842 109.616C77.3711 109.904 77.0619 110.107 76.7126 110.186C76.3633 110.266 75.997 110.218 75.68 110.051C75.2172 109.667 74.8132 109.218 74.4806 108.717Z" fill="white"/>
<path d="M87.5546 109.361C88.874 109.361 89.8185 110.681 89.0539 111.595C88.1687 112.703 87.163 113.709 86.0553 114.594C85.765 114.809 85.4071 114.911 85.0473 114.883C84.6874 114.855 84.3498 114.698 84.0964 114.441C83.843 114.184 83.6908 113.844 83.6678 113.484C83.6449 113.124 83.7526 112.767 83.9713 112.48C84.8803 111.428 85.8463 110.427 86.8649 109.481C87.0822 109.388 87.3184 109.346 87.5546 109.361Z" fill="white"/>
<path d="M71.6468 111.715C72.0614 111.706 72.4636 111.857 72.7704 112.136C73.0773 112.415 73.2655 112.801 73.2961 113.215C73.306 113.64 73.1465 114.052 72.8527 114.36C72.5589 114.668 72.1547 114.846 71.7292 114.856C71.3038 114.866 70.8918 114.707 70.5839 114.413C70.276 114.119 70.0975 113.715 70.0875 113.289C70.0951 112.877 70.2613 112.483 70.5517 112.19C70.8421 111.897 71.2343 111.727 71.6468 111.715Z" fill="white"/>
<path d="M60.2071 112.525C59.7868 112.517 59.3864 112.345 59.092 112.045C58.7976 111.745 58.6327 111.341 58.6328 110.921C58.6701 110.512 58.8581 110.133 59.1603 109.855C59.4624 109.578 59.8571 109.423 60.2671 109.421C60.6781 109.445 61.064 109.626 61.3436 109.928C61.6233 110.23 61.7748 110.629 61.7664 111.041C61.7646 111.241 61.7224 111.44 61.6424 111.624C61.5625 111.808 61.4463 111.974 61.3009 112.113C61.1555 112.251 60.9837 112.359 60.7959 112.43C60.608 112.501 60.4077 112.533 60.2071 112.525Z" fill="white"/>
<path d="M113.613 55.6859C113.775 55.3268 113.982 54.9894 114.227 54.6813C116.971 51.8326 119.745 48.9989 122.519 46.1802C122.659 46.006 122.833 45.8621 123.031 45.7573C123.229 45.6526 123.446 45.5891 123.669 45.5709C123.892 45.5527 124.116 45.58 124.328 45.6513C124.54 45.7225 124.736 45.8362 124.903 45.9853C125.077 46.1373 125.217 46.3251 125.313 46.5359C125.41 46.7467 125.459 46.9756 125.459 47.2073C125.459 47.4389 125.41 47.6679 125.313 47.8787C125.217 48.0895 125.077 48.2772 124.903 48.4292C122.134 51.2979 119.35 54.1516 116.551 56.9903C116.327 57.2678 116.015 57.4616 115.667 57.5404C115.319 57.6193 114.954 57.5787 114.632 57.4251C114.295 57.2867 114.013 57.0416 113.829 56.7274C113.645 56.4133 113.569 56.0474 113.613 55.6859Z" fill="white"/>
<path d="M128.456 44.2461C128.042 44.2513 127.642 44.0995 127.336 43.8212C127.03 43.543 126.841 43.159 126.807 42.7468C126.815 42.3387 126.972 41.9477 127.248 41.6469C127.524 41.3462 127.9 41.1562 128.306 41.1125C128.716 41.1146 129.111 41.2693 129.413 41.5465C129.715 41.8237 129.903 42.2035 129.94 42.6119C129.953 43.0235 129.805 43.4239 129.528 43.7288C129.251 44.0336 128.867 44.2191 128.456 44.2461Z" fill="white"/>
</svg>
