<svg width="198" height="44" viewBox="0 0 198 44" fill="none" xmlns="http://www.w3.org/2000/svg">
<rect x="33" y="6" width="132" height="30" rx="5" fill="#C85551"/>
<path d="M68.536 17.584V18.784H81.496V17.584H68.536ZM67.848 27.408V28.608H82.136V27.408H67.848ZM70.76 19.936C71.368 22.064 72.04 24.88 72.28 26.704L73.544 26.4C73.272 24.544 72.6 21.808 71.944 19.648L70.76 19.936ZM78.056 19.664C77.496 22.096 76.456 25.616 75.544 27.664L76.728 27.92C77.608 25.888 78.68 22.528 79.4 19.888L78.056 19.664ZM73.848 14.784C74.152 15.616 74.488 16.704 74.616 17.408L75.848 17.04C75.688 16.336 75.336 15.296 75 14.48L73.848 14.784ZM85.144 18.576V19.664H90.152V18.576H85.144ZM85.128 15.408V16.496H89.672V21.888H85.128V22.976H90.872V15.408H85.128ZM84.536 28.8C84.888 28.528 85.464 28.304 89.96 26.72C89.864 26.464 89.72 26.032 89.64 25.696L84.968 27.216L84.44 27.712L84.536 28.8ZM88.024 24.288C88.84 25.616 89.8 27.424 90.216 28.496L91.304 27.904C90.856 26.832 89.88 25.088 89.048 23.792L88.024 24.288ZM84.536 28.8C84.536 28.32 85.928 27.728 85.928 27.728V15.408H84.712V26.56C84.712 27.168 84.312 27.456 84.024 27.584C84.232 27.888 84.456 28.464 84.536 28.8ZM96.424 15.52V24.736C96.424 24.944 96.36 25.008 96.136 25.024C95.912 25.04 95.176 25.04 94.344 25.008C94.52 25.328 94.664 25.824 94.712 26.16C95.864 26.16 96.6 26.144 97.032 25.952C97.48 25.744 97.608 25.392 97.608 24.736V15.52H96.424ZM92.328 15.52V29.296H93.528V16.624H97.08V15.52H92.328ZM107.784 17.68V18.816H114.28V17.68H107.784ZM108.232 14.56C107.768 17.36 106.92 19.968 105.544 21.6C105.8 21.824 106.232 22.352 106.408 22.608C107.912 20.72 108.904 17.872 109.448 14.768L108.232 14.56ZM111.976 18.256C111.224 23.248 109.544 26.512 105.816 28.32C106.072 28.56 106.44 29.056 106.584 29.312C110.456 27.216 112.264 23.776 113.16 18.416L111.976 18.256ZM108.232 18.688L107.24 18.912C108.312 23.536 110.28 27.408 113.576 29.216C113.768 28.912 114.152 28.48 114.424 28.24C111.208 26.656 109.208 22.944 108.232 18.688ZM104.168 14.8V29.296H105.368V14.8H104.168ZM100.472 26.4C100.808 26.144 101.32 25.872 105.016 24.56C104.92 24.304 104.776 23.84 104.728 23.52L100.888 24.768L100.344 25.264L100.472 26.4ZM100.472 26.4C100.472 25.968 101.704 25.296 101.704 25.296V16.352H100.536V24.224C100.536 24.848 100.2 25.168 99.976 25.312C100.152 25.568 100.376 26.112 100.472 26.4ZM119.176 18.448V19.488H130.232V18.448H119.176ZM115.656 23.584V24.592H119V23.584H115.656ZM120.904 26.592V27.424H125.384V26.592H120.904ZM122.712 20.928V22.864H123.576V20.928H122.712ZM122.712 25.008V26.96H123.576V25.008H122.712ZM121 22.432V23.232H124.36V24.64H121V25.424H125.24V22.432H121ZM120.472 20.48V27.424H121.384V21.312H125.24V20.48H120.472ZM118.632 18.448V22.864C118.632 24.688 118.536 27.088 117.592 28.8C117.848 28.896 118.312 29.152 118.504 29.328C119.496 27.52 119.656 24.832 119.656 22.88V18.448H118.632ZM125.72 17.392C125.928 25.056 127.064 29.312 128.952 29.312C129.864 29.312 130.248 28.912 130.424 26.768C130.152 26.672 129.8 26.448 129.576 26.224C129.496 27.792 129.352 28.224 129.032 28.24C128.072 28.24 126.856 24.72 126.808 17.392H125.72ZM127.336 17.424C127.912 17.776 128.568 18.304 128.872 18.704L129.624 18.096C129.304 17.712 128.616 17.2 128.04 16.864L127.336 17.424ZM128.344 20.48C127.656 24.048 126.264 26.864 123.88 28.576C124.152 28.752 124.6 29.12 124.776 29.312C127.144 27.424 128.632 24.496 129.416 20.656L128.344 20.48ZM116.536 23.936V25.296C116.536 26.304 116.408 27.744 115.544 28.784C115.752 28.896 116.104 29.136 116.28 29.296C117.272 28.144 117.448 26.48 117.448 25.328V23.936H116.536ZM115.96 15.68V16.704H122.52V15.68H115.96ZM119.368 14.56V17.856H120.552V14.56H119.368ZM125.336 14.56V17.776H126.52V14.56H125.336ZM123.32 15.68V16.704H130.104V15.68H123.32ZM116.36 18.528V22.256H119.048V21.264H117.304V18.528H116.36Z" fill="white"/>
<path d="M1 25.0698L5.43 21.6798L1 18.2998" stroke="#C85551" stroke-miterlimit="10"/>
<path d="M8.96997 25.0698L13.41 21.6798L8.96997 18.2998" stroke="#C85551" stroke-miterlimit="10"/>
<path d="M16.95 25.0698L21.38 21.6798L16.95 18.2998" stroke="#C85551" stroke-miterlimit="10"/>
<path d="M197.14 18.2998L192.71 21.6798L197.14 25.0698" stroke="#C85551" stroke-miterlimit="10"/>
<path d="M189.17 18.2998L184.73 21.6798L189.17 25.0698" stroke="#C85551" stroke-miterlimit="10"/>
<path d="M181.19 18.2998L176.76 21.6798L181.19 25.0698" stroke="#C85551" stroke-miterlimit="10"/>
</svg>
